Lato-HeavyItalic.ufo
<glyph name="exclam" format="2">
  <advance width="540.4"/>
  <unicode hex="0021"/>
  <guideline x="340.84000000000003"/>
  <guideline x="100.0" y="0.0" angle="82.9991"/>
  <outline>
    <contour>
      <point x="242.52" y="1452.8" type="line"/>
      <point x="172.52" y="879.04" type="line" smooth="yes"/>
      <point x="156.76" y="757.52"/>
      <point x="155.8" y="641.04"/>
      <point x="160.92000000000002" y="512.96" type="curve"/>
      <point x="340.6" y="512.96" type="line"/>
      <point x="376.91999999999996" y="641.04"/>
      <point x="406.28" y="757.52"/>
      <point x="420.52" y="879.04" type="curve"/>
      <point x="490.52" y="1452.8" type="line"/>
    </contour>
    <contour>
      <point x="57.88" y="148.32" type="curve" smooth="yes"/>
      <point x="57.88" y="56.0"/>
      <point x="128.12" y="-14.24"/>
      <point x="220.44" y="-14.24" type="curve" smooth="yes"/>
      <point x="311.0" y="-14.24"/>
      <point x="383.24" y="56.0"/>
      <point x="383.24" y="148.32" type="curve" smooth="yes"/>
      <point x="383.24" y="238.88"/>
      <point x="311.0" y="311.12"/>
      <point x="220.44" y="311.12" type="curve" smooth="yes"/>
      <point x="128.12" y="311.12"/>
      <point x="57.88" y="238.88"/>
    </contour>
  </outline>
</glyph>
<glyph name="numbersign" format="2">
  <advance width="1160"/>
  <unicode hex="0023"/>
  <outline>
    <contour>
      <point x="208.12" y="518" type="line"/>
      <point x="202.6" y="471.04" type="line"/>
      <point x="56.68" y="0" type="line" name="n02"/>
      <point x="175.8" y="0" type="line" smooth="yes"/>
      <point x="231.32" y="0"/>
      <point x="286.6" y="26.88"/>
      <point x="306.44" y="96.96" type="curve"/>
      <point x="419.96" y="471.04" type="line"/>
      <point x="425.48" y="518" type="line"/>
      <point x="556.84" y="941.84" type="line"/>
      <point x="562.12" y="990.32" type="line"/>
      <point x="704.76" y="1451.04" type="line" name="n11"/>
      <point x="582.36" y="1451.04" type="line" smooth="yes"/>
      <point x="526.6" y="1451.04"/>
      <point x="476.6" y="1417.12"/>
      <point x="458.52" y="1361.12" type="curve"/>
      <point x="344.76" y="990.32" type="line"/>
      <point x="337.72" y="941.84" type="line"/>
    </contour>
    <contour>
      <point x="619.64" y="518" type="line"/>
      <point x="614.12" y="471.04" type="line"/>
      <point x="502.36" y="111.04" type="line"/>
      <point x="482.28" y="51.28"/>
      <point x="514.68" y="0"/>
      <point x="563.4" y="0" type="curve" smooth="yes"/>
      <point x="687.32" y="0" type="line"/>
      <point x="831.48" y="471.04" type="line"/>
      <point x="837" y="518" type="line"/>
      <point x="966.6" y="941.84" type="line"/>
      <point x="973.64" y="990.32" type="line"/>
      <point x="1087.4" y="1358.88" type="line" smooth="yes"/>
      <point x="1103.96" y="1411.6"/>
      <point x="1070.04" y="1451.04"/>
      <point x="1016.28" y="1451.04" type="curve" smooth="yes"/>
      <point x="897.16" y="1451.04" type="line"/>
      <point x="754.52" y="990.32" type="line"/>
      <point x="749.24" y="941.84" type="line"/>
    </contour>
    <contour>
      <point x="1021.72" y="401.92" type="line" name="n36"/>
      <point x="1046.6" y="487.12" type="line"/>
      <point x="1067.72" y="567.28"/>
      <point x="1045.88" y="595.92"/>
      <point x="992.12" y="595.92" type="curve" smooth="yes" name="n40"/>
      <point x="45" y="595.92" type="line"/>
      <point x="20.36" y="510.72" type="line"/>
      <point x="-1" y="432.32"/>
      <point x="20.84" y="401.92"/>
      <point x="74.6" y="401.92" type="curve" smooth="yes"/>
    </contour>
    <contour>
      <point x="102.44" y="856.88" type="line" name="n46"/>
      <point x="1030.2" y="856.88" type="line" smooth="yes"/>
      <point x="1105.08" y="856.88"/>
      <point x="1141" y="882"/>
      <point x="1156.84" y="937.52" type="curve"/>
      <point x="1192.28" y="1049.12" type="line"/>
      <point x="264.52" y="1049.12" type="line" smooth="yes" name="n52"/>
      <point x="187.88" y="1049.12"/>
      <point x="153.48" y="1024"/>
      <point x="135.88" y="968.48" type="curve" smooth="yes"/>
    </contour>
  </outline>
  <guideline angle="82.9991" x="580" y="0"/>
</glyph>
<glyph name="dollar" format="2">
  <advance width="1160"/>
  <unicode hex="0024"/>
  <outline>
    <contour>
      <point x="1144.84" y="1295.6" type="line"/>
      <point x="1063.08" y="1386.32"/>
      <point x="933.88" y="1465.28"/>
      <point x="722.2" y="1465.28" type="curve" smooth="yes" name="n03"/>
      <point x="379.24" y="1465.28"/>
      <point x="166.44" y="1236"/>
      <point x="166.44" y="990.24" type="curve" smooth="yes"/>
      <point x="166.44" y="541.44"/>
      <point x="812.92" y="696.88"/>
      <point x="812.92" y="435.04" type="curve" smooth="yes"/>
      <point x="812.92" y="291.76"/>
      <point x="708.84" y="206.4"/>
      <point x="511.56" y="206.4" type="curve" smooth="yes" name="n12"/>
      <point x="307.4" y="206.4"/>
      <point x="245.16" y="334.4"/>
      <point x="171.88" y="334.4" type="curve" smooth="yes"/>
      <point x="144.76" y="334.4"/>
      <point x="118.12" y="320.08"/>
      <point x="101.56" y="298.48" type="curve" smooth="yes"/>
      <point x="4.28" y="174.8" type="line"/>
      <point x="107.4" y="60.8"/>
      <point x="293.4" y="-16"/>
      <point x="483.16" y="-16" type="curve" smooth="yes" name="n22"/>
      <point x="847.8" y="-16"/>
      <point x="1072.76" y="221.68"/>
      <point x="1072.76" y="500.64" type="curve" smooth="yes"/>
      <point x="1072.76" y="911.76"/>
      <point x="422.52" y="785.68"/>
      <point x="422.52" y="1050.56" type="curve" smooth="yes"/>
      <point x="422.52" y="1155.6"/>
      <point x="503.64" y="1241.12"/>
      <point x="720.2" y="1241.12" type="curve" smooth="yes" name="n31"/>
      <point x="861.48" y="1241.12"/>
      <point x="946.44" y="1153.36"/>
      <point x="997.08" y="1153.36" type="curve" smooth="yes"/>
      <point x="1025.72" y="1153.36"/>
      <point x="1045.56" y="1165.92"/>
      <point x="1068.68" y="1196.32" type="curve" smooth="yes"/>
    </contour>
    <contour>
      <point x="331.8" y="-217.68" type="line" name="n38"/>
      <point x="429.8" y="-217.68" type="line" smooth="yes"/>
      <point x="469.48" y="-217.68"/>
      <point x="503.64" y="-185.28"/>
      <point x="508.92" y="-152.4" type="curve"/>
      <point x="889.4" y="1649.68" type="line" name="n43"/>
      <point x="791.4" y="1649.68" type="line" smooth="yes"/>
      <point x="751.72" y="1649.68"/>
      <point x="717.8" y="1617.28"/>
      <point x="712.28" y="1582.64" type="curve"/>
    </contour>
  </outline>
  <guideline angle="82.9991" x="580" y="0"/>
</glyph>
<glyph name="percent" format="2">
  <advance width="1537"/>
  <unicode hex="0025"/>
  <outline>
    <contour>
      <point x="766.84" y="1152.88" type="curve" smooth="yes"/>
      <point x="766.84" y="1341.36"/>
      <point x="656.76" y="1465.28" name="n02"/>
      <point x="490.52" y="1465.28" type="curve" smooth="yes"/>
      <point x="288.04" y="1465.28"/>
      <point x="126.44" y="1299.6"/>
      <point x="126.44" y="1049.04" type="curve" smooth="yes"/>
      <point x="126.44" y="864.32"/>
      <point x="236.28" y="740.4"/>
      <point x="401" y="740.4" type="curve" smooth="yes" name="n09"/>
      <point x="583.64" y="740.4"/>
      <point x="766.84" y="902.32"/>
    </contour>
    <contour>
      <point x="561.8" y="1151.12" type="curve" smooth="yes"/>
      <point x="561.8" y="973.68"/>
      <point x="501.48" y="915.04"/>
      <point x="422.36" y="915.04" type="curve" smooth="yes" name="n15"/>
      <point x="368.2" y="915.04"/>
      <point x="331.24" y="949.76"/>
      <point x="331.24" y="1049.04" type="curve" smooth="yes"/>
      <point x="331.24" y="1226.48"/>
      <point x="388.04" y="1292.4"/>
      <point x="469.16" y="1292.4" type="curve" smooth="yes" name="n21"/>
      <point x="523.08" y="1292.4"/>
      <point x="561.8" y="1253.92"/>
    </contour>
    <contour>
      <point x="54.04" y="0" type="line" name="n24"/>
      <point x="251.08" y="0" type="line" smooth="yes"/>
      <point x="288.76" y="0"/>
      <point x="315.88" y="17.84"/>
      <point x="335.72" y="39.68" type="curve"/>
      <point x="1512.76" y="1451.04" type="line"/>
      <point x="1319.24" y="1451.04" type="line" smooth="yes" name="n30"/>
      <point x="1274.28" y="1451.04"/>
      <point x="1249.16" y="1429.68"/>
      <point x="1229.08" y="1409.6" type="curve"/>
    </contour>
    <contour>
      <point x="1438.04" y="394.72" type="curve" smooth="yes"/>
      <point x="1438.04" y="583.2"/>
      <point x="1327.96" y="707.12"/>
      <point x="1161.72" y="707.12" type="curve" smooth="yes" name="n37"/>
      <point x="959.24" y="707.12"/>
      <point x="797.64" y="541.44"/>
      <point x="797.64" y="289.12" type="curve" smooth="yes"/>
      <point x="797.64" y="106.16"/>
      <point x="907.48" y="-17.76"/>
      <point x="1072.2" y="-17.76" type="curve" smooth="yes" name="n43"/>
      <point x="1254.84" y="-17.76"/>
      <point x="1438.04" y="142.4"/>
    </contour>
    <contour>
      <point x="1233" y="392.96" type="curve" smooth="yes"/>
      <point x="1233" y="215.52"/>
      <point x="1172.68" y="155.12"/>
      <point x="1093.56" y="155.12" type="curve" smooth="yes" name="n49"/>
      <point x="1039.4" y="155.12"/>
      <point x="1002.44" y="191.6"/>
      <point x="1002.44" y="289.12" type="curve" smooth="yes"/>
      <point x="1002.44" y="466.56"/>
      <point x="1059.24" y="532.48"/>
      <point x="1140.36" y="532.48" type="curve" smooth="yes" name="n55"/>
      <point x="1194.28" y="532.48"/>
      <point x="1233" y="495.76"/>
    </contour>
  </outline>
  <guideline angle="82.9991" x="691" y="0"/>
</glyph>
<glyph name="ampersand" format="2">
  <advance width="1346"/>
  <unicode hex="0026"/>
  <outline>
    <contour>
      <point x="467.48" y="850.64" type="line"/>
      <point x="233.4" y="780.88"/>
      <point x="36.6" y="602.16"/>
      <point x="36.6" y="356.32" type="curve" smooth="yes"/>
      <point x="36.6" y="129.68"/>
      <point x="183.8" y="-16" name="n05"/>
      <point x="440.6" y="-16" type="curve" smooth="yes"/>
      <point x="833.96" y="-16"/>
      <point x="1172.12" y="338.48"/>
      <point x="1231" y="803.28" type="curve"/>
      <point x="1043.24" y="803.28" type="line" smooth="yes"/>
      <point x="1007.84" y="803.28"/>
      <point x="992.4" y="779.92"/>
      <point x="986" y="746.4" type="curve" smooth="yes"/>
      <point x="931.32" y="454.56"/>
      <point x="729.48" y="197.6"/>
      <point x="497.4" y="197.6" type="curve" smooth="yes" name="n16"/>
      <point x="370.44" y="197.6"/>
      <point x="310.52" y="274.48"/>
      <point x="310.52" y="391.76" type="curve" smooth="yes"/>
      <point x="310.52" y="537.36"/>
      <point x="387.96" y="664.56"/>
      <point x="625.32" y="744.88" type="curve"/>
    </contour>
    <contour>
      <point x="732.28" y="1467.04" type="curve" smooth="yes" name="n23"/>
      <point x="463.88" y="1467.04"/>
      <point x="296.76" y="1272"/>
      <point x="296.76" y="1043.12" type="curve" smooth="yes"/>
      <point x="296.76" y="941.2"/>
      <point x="329.4" y="818.8"/>
      <point x="413.32" y="707.84" type="curve" smooth="yes"/>
      <point x="886.84" y="76.88" type="line"/>
      <point x="930.28" y="21.12"/>
      <point x="960.92" y="0"/>
      <point x="1046.84" y="0" type="curve" smooth="yes" name="n33"/>
      <point x="1277.56" y="0" type="line"/>
      <point x="614.12" y="869.92" type="line"/>
      <point x="564.6" y="940.96"/>
      <point x="544.28" y="1003.2"/>
      <point x="544.28" y="1059.92" type="curve" smooth="yes"/>
      <point x="544.28" y="1170.36"/>
      <point x="605.88" y="1262.24"/>
      <point x="707.64" y="1262.24" type="curve" smooth="yes" name="n41"/>
      <point x="777.56" y="1262.24"/>
      <point x="821.96" y="1216.56"/>
      <point x="841.32" y="1146.88" type="curve"/>
      <point x="853.64" y="1106.72"/>
      <point x="873.72" y="1097.44"/>
      <point x="918.44" y="1106.24" type="curve" smooth="yes"/>
      <point x="1077.92" y="1137.92" type="line"/>
      <point x="1081.44" y="1310.72"/>
      <point x="962.28" y="1467.04"/>
    </contour>
  </outline>
  <guideline angle="82.9991" x="627" y="0"/>
</glyph>
<glyph name="quotesingle" format="2">
  <advance width="411"/>
  <unicode hex="0027"/>
  <outline>
    <contour>
      <point x="191.2" y="1451.04" type="line" name="n00"/>
      <point x="154.96" y="1164.08" type="line"/>
      <point x="160.08" y="1006.8" type="line"/>
      <point x="165.36" y="942.96"/>
      <point x="186.72" y="907.28" name="n04"/>
      <point x="238.48" y="907.28" type="curve" smooth="yes"/>
      <point x="299.04" y="907.28"/>
      <point x="325.68" y="942.96"/>
      <point x="343.28" y="1006.8" type="curve" smooth="yes"/>
      <point x="386.16" y="1164.08" type="line"/>
      <point x="422.16" y="1451.04" type="line"/>
    </contour>
  </outline>
  <guideline angle="90" x="197" y="0"/>
  <guideline angle="82.9991" x="100" y="0"/>
</glyph>
<glyph name="parenleft" format="2">
  <advance width="539.84"/>
  <unicode hex="0028"/>
  <guideline x="276.0" y="0.0" angle="82.9991"/>
  <outline>
    <contour>
      <point x="292.32" y="429.84" type="curve"/>
      <point x="292.32" y="800.48"/>
      <point x="399.76" y="1111.52"/>
      <point x="566.08" y="1399.28" type="curve" smooth="yes"/>
      <point x="603.76" y="1458.32"/>
      <point x="582.4" y="1485.44"/>
      <point x="555.76" y="1505.04" type="curve"/>
      <point x="445.44" y="1576.16" type="line"/>
      <point x="156.0" y="1170.8"/>
      <point x="60.64" y="819.04"/>
      <point x="60.64" y="409.52" type="curve"/>
      <point x="60.64" y="178.64"/>
      <point x="106.64" y="-98.56"/>
      <point x="213.84" y="-322.72" type="curve"/>
      <point x="340.0" y="-251.6" type="line"/>
      <point x="372.15999999999997" y="-232.0"/>
      <point x="399.04" y="-204.88"/>
      <point x="377.2" y="-145.84" type="curve"/>
      <point x="321.2" y="17.68"/>
      <point x="292.32" y="250.08"/>
    </contour>
  </outline>
</glyph>
<glyph name="parenright" format="2">
  <advance width="538.96"/>
  <unicode hex="0029"/>
  <guideline x="276.0" y="0.0" angle="82.9991"/>
  <outline>
    <contour>
      <point x="249.72" y="823.6" type="curve"/>
      <point x="249.72" y="458.48"/>
      <point x="142.28" y="141.92000000000002"/>
      <point x="-24.04" y="-145.84" type="curve" smooth="yes"/>
      <point x="-61.72" y="-204.88"/>
      <point x="-40.6" y="-232.0"/>
      <point x="-13.719999999999999" y="-251.6" type="curve"/>
      <point x="94.84" y="-322.72" type="line"/>
      <point x="386.04" y="82.63999999999999"/>
      <point x="481.15999999999997" y="434.4"/>
      <point x="481.15999999999997" y="843.92" type="curve" smooth="yes"/>
      <point x="481.15999999999997" y="1076.56"/>
      <point x="435.15999999999997" y="1352.0"/>
      <point x="328.2" y="1576.16" type="curve"/>
      <point x="201.8" y="1505.04" type="line" smooth="yes"/>
      <point x="169.64" y="1485.44"/>
      <point x="143.0" y="1458.32"/>
      <point x="164.6" y="1399.28" type="curve" smooth="yes"/>
      <point x="218.84" y="1235.76"/>
      <point x="249.72" y="1003.36"/>
    </contour>
  </outline>
</glyph>
<glyph name="asterisk" format="2">
  <advance width="793"/>
  <unicode hex="002A"/>
  <outline>
    <contour>
      <point x="187.56" y="946.4" type="line"/>
      <point x="336.52" y="1036.24" type="line"/>
      <point x="378.68" y="1060.08"/>
      <point x="412.6" y="1086.72"/>
      <point x="430.84" y="1125.84" type="curve"/>
      <point x="409.48" y="1174.08" type="line"/>
      <point x="369.64" y="1180.16"/>
      <point x="328.44" y="1167.84"/>
      <point x="288.04" y="1144" type="curve" smooth="yes"/>
      <point x="139.08" y="1054.16" type="line"/>
    </contour>
    <contour>
      <point x="482.76" y="827.44" type="line" name="n10"/>
      <point x="505.48" y="1007.92" type="line" smooth="yes"/>
      <point x="511" y="1053.84"/>
      <point x="505.48" y="1094.8"/>
      <point x="482.6" y="1126.08" type="curve"/>
      <point x="430.84" y="1126.08" type="line"/>
      <point x="399.72" y="1096.8"/>
      <point x="385.4" y="1053.84"/>
      <point x="379.88" y="1006.16" type="curve" smooth="yes"/>
      <point x="357.16" y="827.44" type="line"/>
    </contour>
    <contour>
      <point x="756.44" y="1052.4" type="line"/>
      <point x="629.96" y="1144" type="line" smooth="yes"/>
      <point x="595.08" y="1169.6"/>
      <point x="554.12" y="1180.16"/>
      <point x="516.28" y="1174.08" type="curve"/>
      <point x="482.36" y="1125.84" type="line"/>
      <point x="489.56" y="1086.48"/>
      <point x="519.72" y="1060.08"/>
      <point x="554.84" y="1036.24" type="curve" smooth="yes"/>
      <point x="682.84" y="946.4" type="line"/>
    </contour>
    <contour>
      <point x="442.76" y="1518.96" type="line" name="n30"/>
      <point x="420.04" y="1338.48" type="line" smooth="yes"/>
      <point x="414.52" y="1294.32"/>
      <point x="420.04" y="1253.12"/>
      <point x="441.4" y="1221.84" type="curve"/>
      <point x="494.92" y="1221.84" type="line"/>
      <point x="525.8" y="1251.36"/>
      <point x="540.12" y="1294.32"/>
      <point x="545.64" y="1340.24" type="curve" smooth="yes"/>
      <point x="568.36" y="1518.96" type="line"/>
    </contour>
    <contour>
      <point x="167.56" y="1294" type="line"/>
      <point x="295.56" y="1202.4" type="line"/>
      <point x="330.44" y="1178.56"/>
      <point x="369.64" y="1166.24"/>
      <point x="409.48" y="1173.84" type="curve"/>
      <point x="441.4" y="1222.08" type="line"/>
      <point x="435.72" y="1259.44"/>
      <point x="405.8" y="1288.08"/>
      <point x="370.92" y="1310.16" type="curve"/>
      <point x="242.92" y="1401.76" type="line"/>
    </contour>
    <contour>
      <point x="738.2" y="1400" type="line"/>
      <point x="589.24" y="1310.16" type="line"/>
      <point x="547.08" y="1288.08"/>
      <point x="512.92" y="1259.44"/>
      <point x="494.92" y="1222.08" type="curve"/>
      <point x="516.28" y="1173.84" type="line"/>
      <point x="554.12" y="1165.76"/>
      <point x="595.32" y="1180.32"/>
      <point x="637.48" y="1202.4" type="curve"/>
      <point x="786.44" y="1292.24" type="line"/>
    </contour>
    <contour>
      <point x="405.48" y="1204.24" type="line"/>
      <point x="388.12" y="1131.36" type="line"/>
      <point x="444.92" y="1086.88" type="line"/>
      <point x="525.08" y="1129.6" type="line"/>
      <point x="535.88" y="1213.28" type="line"/>
      <point x="478.6" y="1243.2" type="line"/>
    </contour>
  </outline>
  <guideline angle="82.9991" x="368" y="0"/>
</glyph>
<glyph name="plus" format="2">
  <advance width="1160.0"/>
  <unicode hex="002B"/>
  <guideline x="580.0" y="0.0" angle="82.9991"/>
  <outline>
    <contour>
      <point x="84.88" y="572.0" type="line"/>
      <point x="1064.96" y="572.0" type="line"/>
      <point x="1089.84" y="771.52" type="line"/>
      <point x="109.76" y="771.52" type="line"/>
    </contour>
    <contour>
      <point x="540.3199999999999" y="1174.64" type="line"/>
      <point x="415.28" y="166.88" type="line"/>
      <point x="632.4" y="166.88" type="line"/>
      <point x="755.6800000000001" y="1174.64" type="line"/>
    </contour>
  </outline>
</glyph>
<glyph name="comma" format="2">
  <advance width="478.68"/>
  <unicode hex="002C"/>
  <guideline x="229.88" y="0.0" angle="82.9991"/>
  <outline>
    <contour>
      <point x="25.36" y="166.4" type="curve" smooth="yes"/>
      <point x="25.36" y="74.08"/>
      <point x="88.08" y="4.32"/>
      <point x="179.92000000000002" y="4.32" type="curve" smooth="yes"/>
      <point x="212.72" y="4.32"/>
      <point x="237.28" y="12.32"/>
      <point x="254.56" y="23.04" type="curve"/>
      <point x="176.64" y="49.44" type="line"/>
      <point x="176.64" y="-87.6"/>
      <point x="40.96" y="-159.44"/>
      <point x="40.96" y="-206.64" type="curve"/>
      <point x="40.96" y="-222.72"/>
      <point x="46.239999999999995" y="-233.76"/>
      <point x="60.56" y="-246.32" type="curve" smooth="yes"/>
      <point x="108.56" y="-290.8" type="line"/>
      <point x="261.04" y="-173.04"/>
      <point x="342.72" y="-0.8799999999999955"/>
      <point x="342.72" y="129.28" type="curve" smooth="yes"/>
      <point x="342.72" y="226.8"/>
      <point x="290.32" y="311.12"/>
      <point x="180.4" y="311.12" type="curve"/>
      <point x="88.08" y="311.12"/>
      <point x="25.36" y="247.68"/>
    </contour>
  </outline>
</glyph>
<glyph name="hyphen" format="2">
  <advance width="690.96"/>
  <unicode hex="002D"/>
  <unicode hex="00AD"/>
  <unicode hex="2010"/>
  <guideline x="337.12" y="0.0" angle="82.9991"/>
  <outline>
    <contour>
      <point x="85.36" y="493.52" type="line"/>
      <point x="574.08" y="493.52" type="line"/>
      <point x="602.48" y="717.6800000000001" type="line"/>
      <point x="112.24000000000001" y="717.6800000000001" type="line"/>
    </contour>
  </outline>
</glyph>
<glyph name="period" format="2">
  <advance width="479.16"/>
  <unicode hex="002E"/>
  <guideline x="229.88" y="0.0" angle="82.9991"/>
  <outline>
    <contour>
      <point x="23.08" y="148.32" type="curve" smooth="yes"/>
      <point x="23.08" y="56.0"/>
      <point x="93.32" y="-14.24"/>
      <point x="185.64" y="-14.24" type="curve" smooth="yes"/>
      <point x="276.2" y="-14.24"/>
      <point x="348.44" y="56.0"/>
      <point x="348.44" y="148.32" type="curve" smooth="yes"/>
      <point x="348.44" y="238.88"/>
      <point x="276.2" y="311.12"/>
      <point x="185.64" y="311.12" type="curve" smooth="yes"/>
      <point x="93.32" y="311.12"/>
      <point x="23.08" y="238.88"/>
    </contour>
  </outline>
</glyph>
<glyph name="slash" format="2">
  <advance width="869"/>
  <unicode hex="002F"/>
  <outline>
    <contour>
      <point x="917.64" y="1457.6" type="line" name="n00"/>
      <point x="805.56" y="1457.6" type="line" smooth="yes"/>
      <point x="742.76" y="1457.6"/>
      <point x="689.24" y="1421.92"/>
      <point x="658.84" y="1362.88" type="curve"/>
      <point x="-34.2" y="-99.12" type="line" name="n05"/>
      <point x="79.4" y="-99.12" type="line" smooth="yes"/>
      <point x="133.16" y="-99.12"/>
      <point x="197.72" y="-63.68"/>
      <point x="229.88" y="0.88" type="curve"/>
    </contour>
  </outline>
  <guideline angle="82.9991" x="315" y="0"/>
</glyph>
<glyph name="zero" format="2">
  <advance width="1160.0"/>
  <unicode hex="0030"/>
  <guideline x="588.24" y="0.0" angle="82.9991"/>
  <outline>
    <contour>
      <point x="1098.84" y="884.68" type="curve" smooth="yes"/>
      <point x="1098.84" y="1273.88"/>
      <point x="927.68" y="1467.92"/>
      <point x="682.64" y="1467.92" type="curve" smooth="yes"/>
      <point x="353.28" y="1467.92"/>
      <point x="87.03999999999999" y="1173.72"/>
      <point x="87.03999999999999" y="566.48" type="curve" smooth="yes"/>
      <point x="87.03999999999999" y="178.16"/>
      <point x="255.56" y="-15.76"/>
      <point x="500.6" y="-15.76" type="curve" smooth="yes"/>
      <point x="829.08" y="-15.76"/>
      <point x="1098.84" y="276.32"/>
    </contour>
    <contour>
      <point x="826.44" y="898.88" type="curve" smooth="yes"/>
      <point x="826.44" y="363.76"/>
      <point x="671.88" y="206.64000000000001"/>
      <point x="527.24" y="206.64000000000001" type="curve" smooth="yes"/>
      <point x="437.76" y="206.64000000000001"/>
      <point x="359.2" y="287.6"/>
      <point x="359.2" y="549.76" type="curve" smooth="yes"/>
      <point x="359.2" y="1083.76"/>
      <point x="508.84000000000003" y="1244.6399999999999"/>
      <point x="655.12" y="1244.6399999999999" type="curve" smooth="yes"/>
      <point x="745.48" y="1244.6399999999999"/>
      <point x="826.44" y="1163.44"/>
    </contour>
  </outline>
</glyph>
<glyph name="one" format="2">
  <advance width="1160"/>
  <unicode hex="0031"/>
  <outline>
    <contour>
      <point x="669" y="1452.88" type="line" name="n00"/>
      <point x="624.8" y="1307.6"/>
      <point x="584.24" y="1142.72"/>
      <point x="567.04" y="1000.96" type="curve" smooth="yes"/>
      <point x="443.88" y="0" type="line"/>
      <point x="709.88" y="0" type="line"/>
      <point x="888.16" y="1452.88" type="line"/>
    </contour>
    <contour>
      <point x="181.92" y="0" type="line" name="n07"/>
      <point x="936.44" y="0" type="line"/>
      <point x="961.44" y="200.4" type="line"/>
      <point x="206.92" y="200.4" type="line" name="n10"/>
    </contour>
    <contour>
      <point x="209.32" y="1075.12" type="line"/>
      <point x="278.56" y="958.88" type="line" smooth="yes"/>
      <point x="293.24" y="934.4"/>
      <point x="343.36" y="908.88"/>
      <point x="397.88" y="949.2" type="curve"/>
      <point x="629.76" y="1144.64" type="line"/>
      <point x="669" y="1452.88" type="line"/>
    </contour>
  </outline>
  <guideline angle="82.9991" x="458" y="0"/>
</glyph>
<glyph name="two" format="2">
  <advance width="1160.0"/>
  <unicode hex="0032"/>
  <guideline x="523.2" y="0.0" angle="82.9991"/>
  <outline>
    <contour>
      <point x="699.92" y="1467.92" type="curve" smooth="yes"/>
      <point x="457.96" y="1467.92"/>
      <point x="254.24" y="1326.16"/>
      <point x="179.88" y="1042.32" type="curve"/>
      <point x="317.6" y="1017.68" type="line" smooth="yes"/>
      <point x="387.96" y="1005.36"/>
      <point x="424.88" y="1025.2"/>
      <point x="456.91999999999996" y="1090.88" type="curve" smooth="yes"/>
      <point x="489.68" y="1176.64"/>
      <point x="564.12" y="1241.12"/>
      <point x="656.44" y="1241.12" type="curve" smooth="yes"/>
      <point x="751.36" y="1241.12"/>
      <point x="802.48" y="1182.56"/>
      <point x="802.48" y="1080.64" type="curve" smooth="yes"/>
      <point x="802.48" y="918.4"/>
      <point x="723.92" y="803.72"/>
      <point x="548.24" y="632.8" type="curve"/>
      <point x="103.2" y="200.0" type="line"/>
      <point x="65.12" y="167.2"/>
      <point x="47.56" y="124.24"/>
      <point x="43.16" y="89.2" type="curve"/>
      <point x="32.36" y="0.0" type="line"/>
      <point x="964.32" y="0.0" type="line"/>
      <point x="983.92" y="160.72" type="line" smooth="yes"/>
      <point x="990.2" y="214.24"/>
      <point x="958.92" y="249.92"/>
      <point x="901.88" y="249.92" type="curve" smooth="yes"/>
      <point x="620.8" y="249.92" type="line" smooth="yes"/>
      <point x="516.88" y="249.92"/>
      <point x="365.0" y="205.68"/>
      <point x="264.72" y="154.16" type="curve"/>
      <point x="251.2" y="48.96" type="line"/>
      <point x="746.92" y="536.08" type="line" smooth="yes"/>
      <point x="927.24" y="711.4"/>
      <point x="1077.28" y="861.28"/>
      <point x="1077.28" y="1104.64" type="curve" smooth="yes"/>
      <point x="1077.28" y="1318.24"/>
      <point x="934.96" y="1467.92"/>
    </contour>
  </outline>
</glyph>
<glyph name="three" format="2">
  <advance width="1160"/>
  <unicode hex="0033"/>
  <outline>
    <contour>
      <point x="705.84" y="1467.92" type="curve" smooth="yes" name="n00"/>
      <point x="464" y="1467.92"/>
      <point x="260.28" y="1326.16"/>
      <point x="185.92" y="1042.32" type="curve"/>
      <point x="322.64" y="1017.68" type="line" smooth="yes"/>
      <point x="394" y="1005.36"/>
      <point x="430.56" y="1025.2"/>
      <point x="462.72" y="1090.88" type="curve"/>
      <point x="495.48" y="1176.64"/>
      <point x="570.04" y="1241.12"/>
      <point x="662.48" y="1241.12" type="curve" smooth="yes" name="n10"/>
      <point x="757.4" y="1241.12"/>
      <point x="808.68" y="1183.16"/>
      <point x="808.68" y="1082.32" type="curve" smooth="yes"/>
      <point x="808.68" y="925.72"/>
      <point x="738.24" y="839.96"/>
      <point x="510.6" y="838.88" type="curve"/>
      <point x="487.48" y="646.88" type="line"/>
      <point x="704.6" y="646.64"/>
      <point x="752.64" y="579.12"/>
      <point x="752.64" y="482.64" type="curve" smooth="yes"/>
      <point x="752.64" y="338.24"/>
      <point x="666.16" y="209.92"/>
      <point x="517.6" y="209.92" type="curve" smooth="yes" name="n23"/>
      <point x="416.28" y="209.92"/>
      <point x="368.28" y="286.56"/>
      <point x="328.96" y="386.48" type="curve" smooth="yes"/>
      <point x="311.88" y="432"/>
      <point x="254.76" y="444.72"/>
      <point x="190.04" y="418.96" type="curve" smooth="yes"/>
      <point x="66.24" y="369.44" type="line"/>
      <point x="116.2" y="112.24"/>
      <point x="235.4" y="-16"/>
      <point x="493.6" y="-16" type="curve" smooth="yes" name="n33"/>
      <point x="762.2" y="-16"/>
      <point x="1017.76" y="158.48"/>
      <point x="1017.76" y="483.76" type="curve" smooth="yes"/>
      <point x="1017.76" y="682.4"/>
      <point x="881.24" y="794.68"/>
      <point x="603.88" y="807.6" type="curve"/>
      <point x="594.2" y="727.68" type="line"/>
      <point x="903.96" y="751.88"/>
      <point x="1072.92" y="836.52"/>
      <point x="1072.92" y="1134.48" type="curve" smooth="yes"/>
      <point x="1072.92" y="1317.96"/>
      <point x="942.76" y="1467.92"/>
    </contour>
  </outline>
  <guideline angle="82.9991" x="488" y="0"/>
</glyph>
<glyph name="four" format="2">
  <advance width="1160.0"/>
  <unicode hex="0034"/>
  <guideline x="543.68" y="0.0" angle="82.9991"/>
  <outline>
    <contour>
      <point x="1025.2" y="1452.16" type="line"/>
      <point x="772.6" y="1452.16" type="line"/>
      <point x="37.12" y="540.64" type="line"/>
      <point x="47.8" y="403.28" type="line"/>
      <point x="50.56" y="370.0"/>
      <point x="78.08" y="345.76"/>
      <point x="111.32" y="345.76" type="curve" smooth="yes"/>
      <point x="985.32" y="345.76" type="line" smooth="yes"/>
      <point x="1018.32" y="345.76"/>
      <point x="1040.8" y="370.0"/>
      <point x="1044.44" y="398.24" type="curve" smooth="yes"/>
      <point x="1063.04" y="554.08" type="line"/>
      <point x="101.28" y="554.08" type="line"/>
      <point x="217.64" y="429.28" type="line"/>
      <point x="937.88" y="1351.6" type="line"/>
      <point x="841.64" y="1369.68" type="line"/>
      <point x="782.84" y="1237.92"/>
      <point x="749.68" y="1094.72"/>
      <point x="737.12" y="990.24" type="curve" smooth="yes"/>
      <point x="615.6" y="0.0" type="line"/>
      <point x="846.92" y="0.0" type="line"/>
    </contour>
  </outline>
</glyph>
<glyph name="five" format="2">
  <advance width="1160"/>
  <unicode hex="0035"/>
  <outline>
    <contour>
      <point x="1077.12" y="1451.92" type="line"/>
      <point x="400.92" y="1451.92" type="line" name="n01"/>
      <point x="200.12" y="737.84" type="line"/>
      <point x="359.56" y="691.12" type="line"/>
      <point x="421.84" y="715.48"/>
      <point x="485.96" y="728.36"/>
      <point x="546.64" y="728.36" type="curve" smooth="yes" name="n06"/>
      <point x="675.04" y="728.36"/>
      <point x="744.6" y="654.12"/>
      <point x="744.6" y="530.12" type="curve" smooth="yes"/>
      <point x="744.6" y="363.64"/>
      <point x="666.04" y="208.64"/>
      <point x="481.48" y="208.64" type="curve" smooth="yes" name="n12"/>
      <point x="328.12" y="208.64"/>
      <point x="292.04" y="311.44"/>
      <point x="223" y="311.44" type="curve" smooth="yes"/>
      <point x="196.76" y="311.44"/>
      <point x="171.64" y="299.76"/>
      <point x="151.04" y="275.52" type="curve" smooth="yes"/>
      <point x="55.16" y="161.04" type="line"/>
      <point x="137.16" y="66.8"/>
      <point x="266.28" y="-16"/>
      <point x="438" y="-16" type="curve" smooth="yes" name="n22"/>
      <point x="760.16" y="-16"/>
      <point x="1013.48" y="222.52"/>
      <point x="1013.48" y="564.2" type="curve" smooth="yes"/>
      <point x="1013.48" y="777.36"/>
      <point x="885.56" y="948.12"/>
      <point x="631.48" y="948.12" type="curve" smooth="yes" name="n28"/>
      <point x="553.96" y="948.12"/>
      <point x="465.32" y="934.36"/>
      <point x="364.68" y="902.08" type="curve"/>
      <point x="425.28" y="737.36" type="line"/>
      <point x="619.28" y="1427.68" type="line"/>
      <point x="398.4" y="1208.16" type="line" name="n34"/>
      <point x="891.16" y="1208.16" type="line" smooth="yes"/>
      <point x="1003.88" y="1208.16"/>
      <point x="1054" y="1261.68"/>
      <point x="1062.8" y="1337.2" type="curve" smooth="yes"/>
    </contour>
  </outline>
  <guideline angle="82.9991" x="461" y="0"/>
</glyph>
<glyph name="six" format="2">
  <advance width="1067"/>
  <unicode hex="0036"/>
  <outline>
    <contour>
      <point x="345.4" y="412.44" type="curve" smooth="yes"/>
      <point x="345.4" y="590"/>
      <point x="454.28" y="710.88"/>
      <point x="591.16" y="710.88" type="curve" smooth="yes" name="n03"/>
      <point x="710.88" y="710.88"/>
      <point x="785.48" y="629.04"/>
      <point x="785.48" y="497.08" type="curve" smooth="yes"/>
      <point x="785.48" y="327.48"/>
      <point x="669.56" y="203.76"/>
      <point x="530.16" y="203.76" type="curve" smooth="yes" name="n09"/>
      <point x="405.32" y="203.76"/>
      <point x="345.4" y="288.76"/>
    </contour>
    <contour>
      <point x="345.64" y="506.08" type="line"/>
      <point x="366.52" y="670.88"/>
      <point x="465.84" y="784.8"/>
      <point x="594.68" y="930.16" type="curve" smooth="yes"/>
      <point x="1054.84" y="1451.92" type="line" name="n16"/>
      <point x="818.36" y="1451.92" type="line" smooth="yes"/>
      <point x="755.4" y="1451.92"/>
      <point x="698.48" y="1422.88"/>
      <point x="668.96" y="1387.84" type="curve"/>
      <point x="305.52" y="933.12" type="line" smooth="yes"/>
      <point x="164.76" y="757.64"/>
      <point x="92.72" y="603.68"/>
      <point x="92.72" y="423.24" type="curve" smooth="yes"/>
      <point x="92.72" y="165.12"/>
      <point x="243.44" y="-16"/>
      <point x="507.92" y="-16" type="curve" smooth="yes" name="n27"/>
      <point x="821.84" y="-16"/>
      <point x="1054.88" y="234.2"/>
      <point x="1054.88" y="539.32" type="curve" smooth="yes"/>
      <point x="1054.88" y="786.56"/>
      <point x="888.64" y="912.16"/>
      <point x="709.2" y="912.16" type="curve" smooth="yes" name="n33"/>
      <point x="467.76" y="912.16"/>
      <point x="315.08" y="717.84"/>
      <point x="289.6" y="505.36" type="curve"/>
    </contour>
  </outline>
</glyph>
<glyph name="seven" format="2">
  <advance width="1160"/>
  <unicode hex="0037"/>
  <outline>
    <contour>
      <point x="222" y="1451.92" type="line" name="n00"/>
      <point x="199.88" y="1269.44" type="line" smooth="yes"/>
      <point x="196.24" y="1237.68"/>
      <point x="222.12" y="1208.16"/>
      <point x="253" y="1208.16" type="curve" smooth="yes" name="n04"/>
      <point x="1081.84" y="1208.16" type="line"/>
      <point x="886.76" y="1234.4" type="line"/>
      <point x="836.76" y="1191.44"/>
      <point x="798.32" y="1143.2"/>
      <point x="758.12" y="1080.64" type="curve"/>
      <point x="134.92" y="0" type="line" name="n10"/>
      <point x="328.2" y="0" type="line" smooth="yes"/>
      <point x="402.44" y="0"/>
      <point x="448.28" y="40.96"/>
      <point x="478.8" y="91.2" type="curve"/>
      <point x="1092.96" y="1197.12" type="line" smooth="yes"/>
      <point x="1110.04" y="1226.64"/>
      <point x="1134.04" y="1266.96"/>
      <point x="1142.96" y="1335.2" type="curve" smooth="yes"/>
      <point x="1157.16" y="1451.92" type="line"/>
    </contour>
  </outline>
  <guideline angle="82.9991" x="475" y="0"/>
</glyph>
<glyph name="eight" format="2">
  <advance width="1160"/>
  <unicode hex="0038"/>
  <outline>
    <contour>
      <point x="502.36" y="-16" type="curve" smooth="yes" name="n00"/>
      <point x="807.88" y="-16"/>
      <point x="1031.28" y="172.16"/>
      <point x="1031.28" y="463.68" type="curve" smooth="yes"/>
      <point x="1031.28" y="656.6"/>
      <point x="909.68" y="785.68"/>
      <point x="616.4" y="794.32" type="curve"/>
      <point x="605.6" y="709.68" type="line"/>
      <point x="911.24" y="720.68"/>
      <point x="1067.52" y="876"/>
      <point x="1067.52" y="1117.92" type="curve" smooth="yes"/>
      <point x="1067.52" y="1314.96"/>
      <point x="915.04" y="1467.92"/>
      <point x="684.4" y="1467.92" type="curve" smooth="yes" name="n13"/>
      <point x="414.88" y="1467.92"/>
      <point x="203.96" y="1278.6"/>
      <point x="203.96" y="1026.88" type="curve" smooth="yes"/>
      <point x="203.96" y="839"/>
      <point x="327.8" y="718.68"/>
      <point x="576.6" y="709.68" type="curve"/>
      <point x="586.4" y="794.32" type="line"/>
      <point x="220.4" y="783.8"/>
      <point x="77.76" y="611.36"/>
      <point x="77.76" y="359.4" type="curve" smooth="yes"/>
      <point x="77.76" y="132.88"/>
      <point x="242.88" y="-16"/>
    </contour>
    <contour>
      <point x="608.44" y="856.16" type="curve" smooth="yes"/>
      <point x="496.96" y="856.16"/>
      <point x="462.04" y="938.72"/>
      <point x="462.04" y="1024.48" type="curve" smooth="yes"/>
      <point x="462.04" y="1152.52"/>
      <point x="520.52" y="1264.88"/>
      <point x="659.52" y="1264.88" type="curve" smooth="yes" name="n32"/>
      <point x="764.92" y="1264.88"/>
      <point x="807.68" y="1187.64"/>
      <point x="807.68" y="1101.96" type="curve" smooth="yes"/>
      <point x="807.68" y="964"/>
      <point x="745.32" y="856.16"/>
    </contour>
    <contour>
      <point x="527.24" y="193.2" type="curve" smooth="yes" name="n38"/>
      <point x="407.72" y="193.2"/>
      <point x="353.44" y="273.96"/>
      <point x="353.44" y="378.36" type="curve" smooth="yes"/>
      <point x="353.44" y="560.16"/>
      <point x="441.04" y="645.2"/>
      <point x="582.68" y="645.2" type="curve" smooth="yes"/>
      <point x="701.32" y="645.2"/>
      <point x="758.24" y="578.68"/>
      <point x="758.24" y="466.2" type="curve" smooth="yes"/>
      <point x="758.24" y="309.48"/>
      <point x="682.88" y="193.2"/>
    </contour>
  </outline>
  <guideline angle="82.9991" x="488" y="0"/>
</glyph>
<glyph name="nine" format="2">
  <advance width="1160.0"/>
  <unicode hex="0039"/>
  <guideline x="509.68" y="0.0" angle="82.9991"/>
  <outline>
    <contour>
      <point x="829.0" y="1049.72" type="curve"/>
      <point x="829.0" y="892.84"/>
      <point x="739.3199999999999" y="776.56"/>
      <point x="593.44" y="776.56" type="curve" smooth="yes"/>
      <point x="480.72" y="776.56"/>
      <point x="421.56" y="845.48"/>
      <point x="421.56" y="966.68" type="curve" smooth="yes"/>
      <point x="421.56" y="1131.0"/>
      <point x="514.16" y="1248.16"/>
      <point x="650.2" y="1248.16" type="curve" smooth="yes"/>
      <point x="758.16" y="1248.16"/>
      <point x="829.0" y="1175.32"/>
    </contour>
    <contour>
      <point x="836.64" y="967.44" type="line"/>
      <point x="816.04" y="804.4"/>
      <point x="743.6800000000001" y="697.68"/>
      <point x="622.28" y="558.16" type="curve" smooth="yes"/>
      <point x="132.4" y="0.0" type="line"/>
      <point x="377.68" y="0.0" type="line" smooth="yes"/>
      <point x="438.88" y="0.0"/>
      <point x="493.91999999999996" y="27.28"/>
      <point x="521.8" y="61.44" type="curve"/>
      <point x="872.48" y="524.4" type="line" smooth="yes"/>
      <point x="1001.4" y="690.88"/>
      <point x="1081.68" y="842.8"/>
      <point x="1081.68" y="1053.4" type="curve" smooth="yes"/>
      <point x="1081.68" y="1294.4"/>
      <point x="936.6" y="1467.92"/>
      <point x="680.36" y="1467.92" type="curve" smooth="yes"/>
      <point x="377.4" y="1467.92"/>
      <point x="152.04000000000002" y="1225.0"/>
      <point x="152.04000000000002" y="933.36" type="curve" smooth="yes"/>
      <point x="152.04000000000002" y="695.88"/>
      <point x="311.76" y="574.4"/>
      <point x="473.52" y="574.4" type="curve" smooth="yes"/>
      <point x="680.44" y="574.4"/>
      <point x="859.92" y="717.44"/>
      <point x="890.56" y="967.44" type="curve"/>
    </contour>
  </outline>
</glyph>
<glyph name="less" format="2">
  <advance width="1160.0"/>
  <unicode hex="003C"/>
  <guideline x="533.0" y="0.0" angle="82.9991"/>
  <outline>
    <contour>
      <point x="164.2" y="730.56" type="line"/>
      <point x="154.28" y="646.64" type="line"/>
      <point x="335.04" y="646.88"/>
      <point x="479.48" y="660.52"/>
      <point x="588.72" y="712.88" type="curve" smooth="yes"/>
      <point x="936.44" y="879.6" type="line" smooth="yes"/>
      <point x="971.68" y="896.28"/>
      <point x="988.24" y="921.52"/>
      <point x="991.88" y="950.76" type="curve" smooth="yes"/>
      <point x="1015.76" y="1150.08" type="line"/>
    </contour>
    <contour>
      <point x="150.76" y="618.24" type="line"/>
      <point x="899.0" y="198.72" type="line"/>
      <point x="923.88" y="398.04" type="line"/>
      <point x="927.52" y="427.28"/>
      <point x="917.24" y="452.52"/>
      <point x="886.64" y="469.2" type="curve"/>
      <point x="579.3199999999999" y="635.92" type="line"/>
      <point x="482.76" y="688.4"/>
      <point x="341.2" y="701.92"/>
      <point x="160.56" y="702.16" type="curve"/>
    </contour>
  </outline>
</glyph>
<glyph name="equal" format="2">
  <advance width="1160.0"/>
  <unicode hex="003D"/>
  <guideline x="580.0" y="0.0" angle="82.9991"/>
  <outline>
    <contour>
      <point x="104.4" y="393.28" type="line"/>
      <point x="997.68" y="393.28" type="line"/>
      <point x="1022.56" y="592.8" type="line"/>
      <point x="129.28" y="592.8" type="line"/>
    </contour>
    <contour>
      <point x="149.2" y="750.64" type="line"/>
      <point x="1042.48" y="750.64" type="line"/>
      <point x="1065.6" y="950.16" type="line"/>
      <point x="174.07999999999998" y="950.16" type="line"/>
    </contour>
  </outline>
</glyph>
<glyph name="greater" format="2">
  <advance width="1160.0"/>
  <unicode hex="003E"/>
  <guideline x="533.0" y="0.0" angle="82.9991"/>
  <outline>
    <contour>
      <point x="1010.8" y="618.24" type="line"/>
      <point x="1020.6" y="702.16" type="line"/>
      <point x="839.96" y="701.92"/>
      <point x="694.64" y="688.28"/>
      <point x="585.28" y="635.92" type="curve" smooth="yes"/>
      <point x="238.44" y="469.2" type="line" smooth="yes"/>
      <point x="202.32" y="452.52"/>
      <point x="186.76" y="427.28"/>
      <point x="183.12" y="398.04" type="curve"/>
      <point x="158.24" y="198.72" type="line"/>
    </contour>
    <contour>
      <point x="1024.24" y="730.56" type="line"/>
      <point x="275.0" y="1150.08" type="line"/>
      <point x="251.12" y="950.76" type="line" smooth="yes"/>
      <point x="247.48" y="921.52"/>
      <point x="256.76" y="896.28"/>
      <point x="288.24" y="879.6" type="curve" smooth="yes"/>
      <point x="594.6800000000001" y="712.88" type="line"/>
      <point x="691.36" y="660.4"/>
      <point x="833.8" y="646.88"/>
      <point x="1014.32" y="646.64" type="curve"/>
    </contour>
  </outline>
</glyph>
<glyph name="question" format="2">
  <advance width="871.0"/>
  <unicode hex="003F"/>
  <guideline x="399.2" y="0.0" angle="82.9991"/>
  <outline>
    <contour>
      <point x="146.07999999999998" y="1318.6" type="curve"/>
      <point x="203.0" y="1207.0" type="line"/>
      <point x="215.68" y="1182.76"/>
      <point x="226.6" y="1173.08"/>
      <point x="253.12" y="1173.08" type="curve"/>
      <point x="297.64" y="1173.08"/>
      <point x="348.44" y="1249.92"/>
      <point x="480.8" y="1249.92" type="curve" smooth="yes"/>
      <point x="573.6" y="1249.92"/>
      <point x="615.2" y="1200.64"/>
      <point x="615.2" y="1123.28" type="curve"/>
      <point x="615.2" y="928.0"/>
      <point x="293.6" y="881.12"/>
      <point x="291.2" y="674.64" type="curve" smooth="yes"/>
      <point x="288.56" y="512.96" type="line"/>
      <point x="471.76" y="512.96" type="line"/>
      <point x="513.84" y="656.8" type="line" smooth="yes"/>
      <point x="568.76" y="839.84"/>
      <point x="860.96" y="835.76"/>
      <point x="860.96" y="1174.56" type="curve" smooth="yes"/>
      <point x="860.96" y="1334.08"/>
      <point x="747.76" y="1467.04"/>
      <point x="530.32" y="1467.04" type="curve" smooth="yes"/>
      <point x="368.64" y="1467.04"/>
      <point x="245.76" y="1400.68"/>
    </contour>
    <contour>
      <point x="194.48" y="148.32" type="curve" smooth="yes"/>
      <point x="194.48" y="56.0"/>
      <point x="264.72" y="-14.24"/>
      <point x="357.04" y="-14.24" type="curve" smooth="yes"/>
      <point x="447.6" y="-14.24"/>
      <point x="519.84" y="56.0"/>
      <point x="519.84" y="148.32" type="curve" smooth="yes"/>
      <point x="519.84" y="238.88"/>
      <point x="447.6" y="311.12"/>
      <point x="357.04" y="311.12" type="curve" smooth="yes"/>
      <point x="264.72" y="311.12"/>
      <point x="194.48" y="238.88"/>
    </contour>
  </outline>
</glyph>
<glyph name="at" format="2">
  <advance width="1546.52"/>
  <unicode hex="0040"/>
  <guideline y="727.28"/>
  <guideline x="744.44"/>
  <guideline x="100.0" y="0.0" angle="82.9991"/>
  <outline>
    <contour>
      <point x="1036.24" y="182.96" type="curve" smooth="yes"/>
      <point x="1290.32" y="182.96"/>
      <point x="1492.88" y="449.2"/>
      <point x="1492.88" y="782.88" type="curve" smooth="yes"/>
      <point x="1492.88" y="1152.16"/>
      <point x="1229.04" y="1388.72"/>
      <point x="903.84" y="1388.72" type="curve" smooth="yes"/>
      <point x="447.76" y="1388.72"/>
      <point x="71.75999999999999" y="966.64"/>
      <point x="71.75999999999999" y="469.28" type="curve" smooth="yes"/>
      <point x="71.75999999999999" y="36.96"/>
      <point x="339.04" y="-241.28"/>
      <point x="750.64" y="-241.28" type="curve" smooth="yes"/>
      <point x="974.32" y="-241.28"/>
      <point x="1151.36" y="-176.96"/>
      <point x="1287.52" y="-87.28" type="curve"/>
      <point x="1267.92" y="-11.920000000000002" type="line"/>
      <point x="1257.12" y="24.0"/>
      <point x="1228.24" y="54.400000000000006"/>
      <point x="1162.16" y="18.480000000000004" type="curve"/>
      <point x="1096.64" y="-19.919999999999987"/>
      <point x="962.32" y="-67.91999999999999"/>
      <point x="770.24" y="-67.91999999999999" type="curve" smooth="yes"/>
      <point x="466.4" y="-67.91999999999999"/>
      <point x="264.48" y="123.12"/>
      <point x="264.48" y="478.56" type="curve" smooth="yes"/>
      <point x="264.48" y="897.76"/>
      <point x="531.36" y="1217.36"/>
      <point x="882.48" y="1217.36" type="curve" smooth="yes"/>
      <point x="1145.12" y="1217.36"/>
      <point x="1305.44" y="1062.96"/>
      <point x="1305.44" y="782.88" type="curve" smooth="yes"/>
      <point x="1305.44" y="540.96"/>
      <point x="1207.44" y="349.03999999999996"/>
      <point x="1094.8" y="349.03999999999996" type="curve" smooth="yes"/>
      <point x="1030.96" y="349.03999999999996"/>
      <point x="999.76" y="388.0"/>
      <point x="1052.48" y="546.8" type="curve"/>
      <point x="1188.8" y="921.52" type="line"/>
      <point x="1124.64" y="952.08"/>
      <point x="1065.12" y="967.36"/>
      <point x="960.56" y="967.36" type="curve" smooth="yes"/>
      <point x="595.12" y="967.36"/>
      <point x="403.2" y="671.76"/>
      <point x="403.2" y="426.96" type="curve" smooth="yes"/>
      <point x="403.2" y="289.04"/>
      <point x="469.04" y="183.68"/>
      <point x="607.44" y="183.68" type="curve" smooth="yes"/>
      <point x="745.28" y="183.68"/>
      <point x="864.8" y="262.4"/>
      <point x="989.28" y="480.56" type="curve"/>
      <point x="867.44" y="421.36" type="line"/>
      <point x="844.56" y="248.24"/>
      <point x="930.16" y="182.96"/>
    </contour>
    <contour>
      <point x="971.2" y="863.44" type="line"/>
      <point x="845.92" y="519.12" type="line" smooth="yes"/>
      <point x="802.96" y="392.64"/>
      <point x="738.32" y="356.8"/>
      <point x="682.32" y="356.8" type="curve" smooth="yes"/>
      <point x="635.12" y="356.8"/>
      <point x="610.24" y="392.8"/>
      <point x="610.24" y="455.6" type="curve" smooth="yes"/>
      <point x="610.24" y="633.36"/>
      <point x="751.44" y="801.28"/>
      <point x="896.96" y="801.28" type="curve" smooth="yes"/>
      <point x="946.16" y="801.28"/>
      <point x="993.76" y="789.76"/>
      <point x="1030.48" y="766.96" type="curve"/>
    </contour>
  </outline>
</glyph>
<glyph name="A" format="2">
  <advance width="1315"/>
  <unicode hex="0041"/>
  <anchor x="776.32" y="1521.52" name="Top"/>
  <anchor x="579.04" y="-70" name="bottom"/>
  <anchor x="238.04" y="1120" name="onRight"/>
  <anchor x="776.32" y="1521.52" name="top"/>
  <outline>
    <contour>
      <point x="-85.68" y="0" type="line" name="n00"/>
      <point x="141.52" y="0" type="line" smooth="yes"/>
      <point x="188" y="0"/>
      <point x="227.44" y="32.16"/>
      <point x="243.76" y="66.32" type="curve"/>
      <point x="649.04" y="996.88" type="line"/>
      <point x="692.72" y="1100.08"/>
      <point x="771.36" y="1283.52"/>
      <point x="806" y="1452.8" type="curve" name="n08"/>
      <point x="612" y="1452.8" type="line"/>
    </contour>
    <contour>
      <point x="205.52" y="344.24" type="line" name="n10"/>
      <point x="1055.12" y="344.24" type="line"/>
      <point x="1080.24" y="550.8" type="line"/>
      <point x="232.16" y="550.8" type="line" name="n13"/>
    </contour>
    <contour>
      <point x="908.32" y="1452.8" type="line"/>
      <point x="709.04" y="1452.8" type="line"/>
      <point x="707.52" y="1283.52"/>
      <point x="743.44" y="1100.08"/>
      <point x="761.76" y="998.64" type="curve"/>
      <point x="938.08" y="66.32" type="line"/>
      <point x="948.88" y="26.88"/>
      <point x="975.76" y="0"/>
      <point x="1025.76" y="0" type="curve" smooth="yes"/>
      <point x="1249.68" y="0" type="line"/>
    </contour>
  </outline>
  <guideline angle="82.9991" x="566" y="0"/>
</glyph>
<glyph name="D" format="2">
  <advance width="1417"/>
  <unicode hex="0044"/>
  <anchor x="738.4" y="1521.52" name="Top"/>
  <anchor x="546.04" y="-99.04" name="bottom"/>
  <anchor x="738.4" y="1521.52" name="top"/>
  <outline>
    <contour>
      <point x="1369.28" y="820.8" type="curve" smooth="yes"/>
      <point x="1369.28" y="1183.28"/>
      <point x="1137.36" y="1452.8"/>
      <point x="763.04" y="1452.8" type="curve" smooth="yes" name="n03"/>
      <point x="246.72" y="1452.8" type="line"/>
      <point x="67.68" y="0" type="line"/>
      <point x="584" y="0" type="line" smooth="yes" name="n06"/>
      <point x="1038.08" y="0"/>
      <point x="1369.28" y="344.48"/>
    </contour>
    <contour>
      <point x="1072.24" y="813.76" type="curve" smooth="yes"/>
      <point x="1072.24" y="456.08"/>
      <point x="892.08" y="232.96"/>
      <point x="612.4" y="232.96" type="curve" smooth="yes" name="n12"/>
      <point x="387.6" y="232.96" type="line"/>
      <point x="509.84" y="1219.84" type="line"/>
      <point x="734.64" y="1219.84" type="line" smooth="yes" name="n15"/>
      <point x="950.4" y="1219.84"/>
      <point x="1072.24" y="1060.64"/>
    </contour>
  </outline>
  <guideline angle="82.9991" x="705" y="0"/>
</glyph>
<glyph name="E" format="2">
  <advance width="1072"/>
  <unicode hex="0045"/>
  <anchor x="586.08" y="724.64" name="Slash"/>
  <anchor x="694.4" y="1521.52" name="Top"/>
  <anchor x="517.6" y="-70" name="bottom"/>
  <anchor x="-36.68" y="1120" name="onRight"/>
  <anchor x="694.4" y="1521.52" name="top"/>
  <outline>
    <contour>
      <point x="538.24" y="1452.8" type="line"/>
      <point x="246.72" y="1452.8" type="line"/>
      <point x="67.68" y="0" type="line"/>
      <point x="359.2" y="0" type="line" name="n03"/>
    </contour>
    <contour>
      <point x="435.92" y="843.44" type="line" name="n04"/>
      <point x="407.28" y="619.04" type="line" name="n05"/>
      <point x="871.36" y="619.04" type="line"/>
      <point x="900" y="843.44" type="line"/>
    </contour>
    <contour>
      <point x="509.12" y="1452.8" type="line" name="n08"/>
      <point x="480.72" y="1219.6" type="line" name="n09"/>
      <point x="1072.4" y="1219.6" type="line"/>
      <point x="1101.04" y="1452.8" type="line"/>
    </contour>
    <contour>
      <point x="360.48" y="233.2" type="line" name="n12"/>
      <point x="331.84" y="0" type="line"/>
      <point x="923.76" y="0" type="line"/>
      <point x="952.4" y="233.2" type="line"/>
    </contour>
  </outline>
  <guideline angle="82.9991" x="552" y="0"/>
</glyph>
<glyph name="F" format="2">
  <advance width="1063"/>
  <unicode hex="0046"/>
  <anchor x="691.44" y="1521.52" name="Top"/>
  <anchor x="365.76" y="-70" name="bottom"/>
  <anchor x="691.44" y="1521.52" name="top"/>
  <outline>
    <contour>
      <point x="538.24" y="1452.8" type="line"/>
      <point x="246.72" y="1452.8" type="line"/>
      <point x="67.68" y="0" type="line" name="n02"/>
      <point x="359.2" y="0" type="line"/>
    </contour>
    <contour>
      <point x="431.92" y="812.88" type="line" name="n04"/>
      <point x="403.52" y="579.68" type="line" name="n05"/>
      <point x="901.44" y="579.68" type="line"/>
      <point x="931.84" y="812.88" type="line"/>
    </contour>
    <contour>
      <point x="509.12" y="1452.8" type="line" name="n08"/>
      <point x="480.72" y="1219.6" type="line" name="n09"/>
      <point x="1072.4" y="1219.6" type="line"/>
      <point x="1101.04" y="1452.8" type="line"/>
    </contour>
  </outline>
  <guideline angle="82.9991" x="531" y="0"/>
</glyph>
<glyph name="G" format="2">
  <advance width="1353"/>
  <unicode hex="0047"/>
  <anchor x="880.72" y="1521.52" name="Top"/>
  <anchor x="698.56" y="-70" name="bottom"/>
  <anchor x="880.72" y="1521.52" name="top"/>
  <outline>
    <contour>
      <point x="1043.56" y="315.68" type="line"/>
      <point x="943.32" y="256.88"/>
      <point x="857.56" y="216.96"/>
      <point x="719" y="216.96" type="curve" smooth="yes" name="n03"/>
      <point x="510.6" y="216.96"/>
      <point x="370.44" y="376.08"/>
      <point x="370.44" y="640.8" type="curve" smooth="yes"/>
      <point x="370.44" y="985.92"/>
      <point x="561.64" y="1218.24"/>
      <point x="833.56" y="1218.24" type="curve" smooth="yes" name="n09"/>
      <point x="972.92" y="1218.24"/>
      <point x="1039.08" y="1178.88"/>
      <point x="1123.96" y="1120.8" type="curve" smooth="yes"/>
      <point x="1168.68" y="1090.88"/>
      <point x="1214.68" y="1101.68"/>
      <point x="1244.84" y="1144.4" type="curve"/>
      <point x="1338.84" y="1266.56" type="line"/>
      <point x="1242.12" y="1373.04"/>
      <point x="1096.2" y="1468.8"/>
      <point x="854.92" y="1468.8" type="curve" smooth="yes" name="n19"/>
      <point x="413.64" y="1468.8"/>
      <point x="73.64" y="1116.64"/>
      <point x="73.64" y="630.24" type="curve" smooth="yes"/>
      <point x="73.64" y="260.48"/>
      <point x="312.84" y="-16"/>
      <point x="669.48" y="-16" type="curve" smooth="yes" name="n25"/>
      <point x="887.48" y="-16"/>
      <point x="1051.32" y="31.68"/>
      <point x="1199.88" y="139.76" type="curve"/>
      <point x="1273.72" y="737.52" type="line"/>
      <point x="807.4" y="737.52" type="line" name="n30"/>
      <point x="788.04" y="570.88" type="line" smooth="yes"/>
      <point x="784.28" y="540.48"/>
      <point x="804.36" y="518.64"/>
      <point x="840.28" y="518.64" type="curve" smooth="yes" name="n34"/>
      <point x="983.96" y="518.64" type="line"/>
      <point x="935" y="110.88" type="line"/>
    </contour>
  </outline>
  <guideline angle="82.9991" x="700" y="0"/>
</glyph>
<glyph name="H" format="2">
  <advance width="1441"/>
  <unicode hex="0048"/>
  <anchor x="823.16" y="1521.52" name="Top"/>
  <anchor x="635.32" y="-70" name="bottom"/>
  <anchor x="-36.68" y="1120" name="onRight"/>
  <anchor x="823.16" y="1521.52" name="top"/>
  <outline>
    <contour>
      <point x="538.24" y="1452.8" type="line" name="n00"/>
      <point x="246.72" y="1452.8" type="line"/>
      <point x="67.68" y="0" type="line" name="n02"/>
      <point x="359.2" y="0" type="line"/>
    </contour>
    <contour>
      <point x="434.16" y="832.88" type="line" name="n04"/>
      <point x="409.04" y="626.08" type="line" name="n05"/>
      <point x="1131.92" y="626.08" type="line"/>
      <point x="1158.8" y="832.88" type="line"/>
    </contour>
    <contour>
      <point x="1400.88" y="1452.8" type="line"/>
      <point x="1109.36" y="1452.8" type="line"/>
      <point x="930.32" y="0" type="line"/>
      <point x="1221.84" y="0" type="line"/>
    </contour>
  </outline>
  <guideline angle="82.9991" x="696" y="0"/>
</glyph>
<glyph name="I" format="2">
  <advance width="577.28"/>
  <unicode hex="0049"/>
  <guideline x="292.64" y="0.0" angle="82.9991"/>
  <anchor x="397.56" y="1521.52" name="Top"/>
  <anchor x="-54.48" y="1120.0" name="onRight"/>
  <anchor x="397.56" y="1521.52" name="top"/>
  <anchor x="207.68" y="-70.0" name="bottom"/>
  <outline>
    <contour>
      <point x="536.48" y="1452.8" type="line"/>
      <point x="244.95999999999998" y="1452.8" type="line"/>
      <point x="67.67999999999999" y="0.0" type="line"/>
      <point x="359.2" y="0.0" type="line"/>
    </contour>
  </outline>
</glyph>
<glyph name="J" format="2">
  <advance width="825"/>
  <unicode hex="004A"/>
  <anchor x="557.92" y="724.64" name="Bar"/>
  <anchor x="658.76" y="1521.52" name="Top"/>
  <anchor x="231.6" y="-70" name="bottom"/>
  <anchor x="658.76" y="1521.52" name="top"/>
  <outline>
    <contour>
      <point x="796.16" y="1452.8" type="line" name="n00"/>
      <point x="506.4" y="1452.8" type="line"/>
      <point x="391.44" y="507.04" type="line" smooth="yes"/>
      <point x="367.52" y="305.92"/>
      <point x="285.2" y="225.76"/>
      <point x="169.28" y="225.76" type="curve" smooth="yes" name="n05"/>
      <point x="114.08" y="225.76"/>
      <point x="75.04" y="237.68"/>
      <point x="44" y="237.68" type="curve" smooth="yes"/>
      <point x="5.84" y="237.68"/>
      <point x="-10.24" y="214.08"/>
      <point x="-14" y="183.68" type="curve" smooth="yes"/>
      <point x="-35.36" y="10.48" type="line"/>
      <point x="34.24" y="-7.76"/>
      <point x="98.8" y="-16"/>
      <point x="169.04" y="-16" type="curve" name="n15"/>
      <point x="469.84" y="-16.24"/>
      <point x="641.44" y="192"/>
      <point x="681.2" y="514.08" type="curve" smooth="yes"/>
    </contour>
  </outline>
  <guideline angle="82.9991" x="425" y="0"/>
</glyph>
<glyph name="K" format="2">
  <advance width="1302.6"/>
  <unicode hex="004B"/>
  <guideline x="651.72" y="0.0" angle="82.9991"/>
  <anchor x="776.24" y="1521.52" name="Top"/>
  <anchor x="551.12" y="-70.0" name="bottom"/>
  <anchor x="776.24" y="1521.52" name="top"/>
  <outline>
    <contour>
      <point x="534.72" y="1453.04" type="line"/>
      <point x="244.95999999999998" y="1453.04" type="line"/>
      <point x="67.67999999999999" y="0.0" type="line"/>
      <point x="355.68" y="0.0" type="line"/>
    </contour>
    <contour>
      <point x="368.8" y="630.08" type="line"/>
      <point x="510.32" y="630.08" type="line" smooth="yes"/>
      <point x="566.56" y="630.08"/>
      <point x="595.6800000000001" y="616.3199999999999"/>
      <point x="612.64" y="579.52" type="curve" smooth="yes"/>
      <point x="877.76" y="56.24" type="line"/>
      <point x="896.3199999999999" y="21.6"/>
      <point x="917.92" y="0.0"/>
      <point x="985.44" y="0.0" type="curve" smooth="yes"/>
      <point x="1241.84" y="0.0" type="line"/>
      <point x="901.44" y="676.72" type="line"/>
      <point x="854.56" y="777.12"/>
      <point x="774.96" y="793.6800000000001"/>
      <point x="641.52" y="793.6800000000001" type="curve"/>
      <point x="654.48" y="743.44" type="line"/>
      <point x="758.0799999999999" y="743.68"/>
      <point x="829.2" y="764.8"/>
      <point x="899.12" y="853.6" type="curve"/>
      <point x="1386.64" y="1452.8" type="line"/>
      <point x="1136.8" y="1452.8" type="line" smooth="yes"/>
      <point x="1079.04" y="1452.8"/>
      <point x="1037.48" y="1439.36"/>
      <point x="1002.24" y="1391.04" type="curve" smooth="yes"/>
      <point x="616.88" y="897.04" type="line" smooth="yes"/>
      <point x="591.92" y="865.28"/>
      <point x="558.3199999999999" y="850.72"/>
      <point x="512.3199999999999" y="850.72" type="curve" smooth="yes"/>
      <point x="398.96000000000004" y="850.72" type="line"/>
    </contour>
  </outline>
</glyph>
<glyph name="L" format="2">
  <advance width="971.68"/>
  <unicode hex="004C"/>
  <guideline x="476.8" y="0.0" angle="82.9991"/>
  <anchor x="412.28" y="1521.52" name="Top"/>
  <anchor x="434.24" y="-70.0" name="bottom"/>
  <anchor x="298.68" y="724.64" name="Bar"/>
  <anchor x="412.28" y="1521.52" name="top"/>
  <outline>
    <contour>
      <point x="536.48" y="1452.8" type="line"/>
      <point x="246.72" y="1452.8" type="line"/>
      <point x="67.67999999999999" y="0.0" type="line"/>
      <point x="357.44" y="0.0" type="line"/>
    </contour>
    <contour>
      <point x="362.24" y="242.0" type="line"/>
      <point x="331.84000000000003" y="0.0" type="line"/>
      <point x="867.36" y="0.0" type="line"/>
      <point x="896.0" y="242.0" type="line"/>
    </contour>
  </outline>
</glyph>
<glyph name="M" format="2">
  <advance width="1772"/>
  <unicode hex="004D"/>
  <anchor x="958.88" y="1521.52" name="Top"/>
  <anchor x="805.32" y="-70" name="bottom"/>
  <anchor x="958.88" y="1521.52" name="top"/>
  <outline>
    <contour>
      <point x="784.56" y="281.44" type="curve"/>
      <point x="908.48" y="281.44" type="line"/>
      <point x="890.64" y="389.52"/>
      <point x="872.68" y="510.28"/>
      <point x="837.12" y="614.96" type="curve"/>
      <point x="557.36" y="1406.08" type="line"/>
      <point x="530.48" y="1445.52"/>
      <point x="515.92" y="1452.8" name="n07"/>
      <point x="465.92" y="1452.8" type="curve" smooth="yes"/>
      <point x="246.72" y="1452.8" type="line"/>
      <point x="67.68" y="0" type="line" name="n10"/>
      <point x="323.52" y="0" type="line"/>
      <point x="431.2" y="890.96" type="line" smooth="yes"/>
      <point x="440.24" y="970.32"/>
      <point x="440.24" y="1092.16"/>
      <point x="440.24" y="1171.52" type="curve"/>
      <point x="388" y="1161.76" type="line"/>
      <point x="717.76" y="228.4" type="line" smooth="yes"/>
      <point x="732.08" y="187.2"/>
      <point x="767.76" y="165.6"/>
      <point x="812.48" y="165.6" type="curve" smooth="yes"/>
      <point x="851.92" y="165.6" type="line" smooth="yes"/>
      <point x="896.64" y="165.6"/>
      <point x="935.84" y="187.2"/>
      <point x="960.96" y="228.4" type="curve" smooth="yes"/>
      <point x="1517.84" y="1161.76" type="line"/>
      <point x="1469.12" y="1171.52" type="line"/>
      <point x="1449.28" y="1092.16"/>
      <point x="1418.88" y="966.8"/>
      <point x="1408.08" y="885.68" type="curve"/>
      <point x="1298.64" y="0" type="line"/>
      <point x="1552.72" y="0" type="line"/>
      <point x="1731.76" y="1452.8" type="line"/>
      <point x="1510.8" y="1452.8" type="line" smooth="yes"/>
      <point x="1460.8" y="1452.8"/>
      <point x="1444.48" y="1445.52"/>
      <point x="1408.8" y="1406.08" type="curve"/>
      <point x="932.08" y="614.96" type="line" smooth="yes"/>
      <point x="869" y="509.4"/>
      <point x="827.04" y="389.52"/>
    </contour>
  </outline>
  <guideline angle="82.9991" x="827" y="0"/>
</glyph>
<glyph name="N" format="2">
  <advance width="1441"/>
  <unicode hex="004E"/>
  <anchor x="831.88" y="1521.28" name="Top"/>
  <anchor x="639.88" y="-70" name="bottom"/>
  <anchor x="831.88" y="1521.28" name="top"/>
  <outline>
    <contour>
      <point x="1061.68" y="408.96" type="line"/>
      <point x="488.48" y="1406.08" type="line" smooth="yes"/>
      <point x="465.12" y="1447.28"/>
      <point x="449.04" y="1452.8" name="n03"/>
      <point x="399.04" y="1452.8" type="curve" smooth="yes"/>
      <point x="246.72" y="1452.8" type="line"/>
      <point x="67.68" y="0" type="line" name="n06"/>
      <point x="323.52" y="0" type="line"/>
      <point x="431.2" y="887.44" type="line" smooth="yes"/>
      <point x="440.24" y="966.8"/>
      <point x="445.52" y="1079.84"/>
      <point x="447.28" y="1171.52" type="curve"/>
      <point x="407.36" y="1043.84" type="line"/>
      <point x="976.8" y="50.48" type="line"/>
      <point x="1001.92" y="14.56"/>
      <point x="1027.04" y="0"/>
      <point x="1071.76" y="0" type="curve" smooth="yes"/>
      <point x="1221.84" y="0" type="line"/>
      <point x="1400.88" y="1452.8" type="line"/>
      <point x="1145.04" y="1452.8" type="line"/>
      <point x="1039.12" y="590.24" type="line" smooth="yes"/>
      <point x="1028.32" y="502.32"/>
      <point x="1019.76" y="373.68"/>
      <point x="1021.52" y="264.64" type="curve"/>
    </contour>
  </outline>
  <guideline angle="82.9991" x="695" y="0"/>
</glyph>
<glyph name="Q" format="2">
  <advance width="1513"/>
  <unicode hex="0051"/>
  <anchor x="775.32" y="724.64" name="Slash"/>
  <anchor x="871.2" y="1521.52" name="Top"/>
  <anchor x="675.68" y="-70" name="bottom"/>
  <anchor x="17.12" y="1120" name="onRight"/>
  <anchor x="871.2" y="1521.52" name="top"/>
  <outline>
    <component base="O"/>
    <contour>
      <point x="1076.92" y="177.36" type="line" name="n00"/>
      <point x="756.2" y="151.52" type="line"/>
      <point x="1011.8" y="-212.4" type="line"/>
      <point x="1051" y="-262.16"/>
      <point x="1102.76" y="-278.48" name="n04"/>
      <point x="1170.84" y="-278.48" type="curve" smooth="yes"/>
      <point x="1408.36" y="-278.48" type="line"/>
    </contour>
  </outline>
  <guideline angle="82.9991" x="732" y="0"/>
</glyph>
<glyph name="R" format="2">
  <advance width="1212.04"/>
  <unicode hex="0052"/>
  <guideline x="608.72" y="0.0" angle="82.9991"/>
  <anchor x="685.44" y="1521.52" name="Top"/>
  <anchor x="685.44" y="1521.52" name="top"/>
  <anchor x="565.28" y="-70.0" name="bottom"/>
  <outline>
    <contour>
      <point x="512.96" y="554.56" type="line" smooth="yes"/>
      <point x="561.2" y="554.56"/>
      <point x="580.72" y="539.52"/>
      <point x="596.96" y="504.48" type="curve" smooth="yes"/>
      <point x="784.24" y="57.76" type="line" smooth="yes"/>
      <point x="799.28" y="21.12"/>
      <point x="833.44" y="0.0"/>
      <point x="882.16" y="0.0" type="curve" smooth="yes"/>
      <point x="1142.8" y="0.0" type="line"/>
      <point x="905.6" y="523.28" type="line" smooth="yes"/>
      <point x="853.6800000000001" y="627.68"/>
      <point x="748.48" y="658.08"/>
      <point x="637.52" y="658.08" type="curve"/>
      <point x="529.36" y="577.44" type="line"/>
      <point x="588.56" y="577.44" type="line" smooth="yes"/>
      <point x="937.2" y="577.44"/>
      <point x="1153.52" y="793.76"/>
      <point x="1153.52" y="1084.4" type="curve" smooth="yes"/>
      <point x="1153.52" y="1296.96"/>
      <point x="1014.24" y="1452.8"/>
      <point x="669.92" y="1452.8" type="curve" smooth="yes"/>
      <point x="244.95999999999998" y="1452.8" type="line"/>
      <point x="67.67999999999999" y="0.0" type="line"/>
      <point x="355.68" y="0.0" type="line"/>
      <point x="533.76" y="1444.16" type="line"/>
      <point x="265.2" y="1226.88" type="line"/>
      <point x="643.28" y="1226.88" type="line" smooth="yes"/>
      <point x="794.08" y="1226.88"/>
      <point x="865.52" y="1154.48"/>
      <point x="865.52" y="1038.4" type="curve" smooth="yes"/>
      <point x="865.52" y="888.48"/>
      <point x="783.6" y="762.88"/>
      <point x="585.28" y="762.88" type="curve" smooth="yes"/>
      <point x="352.72" y="762.88" type="line"/>
      <point x="288.88" y="554.56" type="line"/>
    </contour>
  </outline>
</glyph>
<glyph name="S" format="2">
  <advance width="1038"/>
  <unicode hex="0053"/>
  <anchor x="684.28" y="1521.52" name="Top"/>
  <anchor x="427.44" y="-70" name="bottom"/>
  <anchor x="684.28" y="1521.52" name="top"/>
  <outline>
    <contour>
      <point x="1033.76" y="1297.36" type="line"/>
      <point x="956.48" y="1395.12"/>
      <point x="813.92" y="1467.04"/>
      <point x="652.96" y="1467.04" type="curve" smooth="yes" name="n03"/>
      <point x="339.6" y="1467.04"/>
      <point x="144.56" y="1234"/>
      <point x="144.56" y="979.2" type="curve" smooth="yes"/>
      <point x="144.56" y="536.88"/>
      <point x="675.2" y="689.12"/>
      <point x="675.2" y="437.76" type="curve" smooth="yes"/>
      <point x="675.2" y="300.32"/>
      <point x="593.68" y="224"/>
      <point x="456.88" y="224" type="curve" smooth="yes" name="n12"/>
      <point x="283.52" y="224"/>
      <point x="230.8" y="352"/>
      <point x="161.28" y="352" type="curve" smooth="yes"/>
      <point x="135.92" y="352"/>
      <point x="109.28" y="335.92"/>
      <point x="92.96" y="316.08" type="curve"/>
      <point x="-9.84" y="174.8" type="line"/>
      <point x="82" y="60.8"/>
      <point x="251.2" y="-16"/>
      <point x="419.68" y="-16" type="curve" smooth="yes" name="n22"/>
      <point x="750.24" y="-16"/>
      <point x="955.92" y="223.68"/>
      <point x="955.92" y="511.68" type="curve" smooth="yes"/>
      <point x="955.92" y="921.36"/>
      <point x="420" y="817.6"/>
      <point x="420" y="1042.8" type="curve" smooth="yes"/>
      <point x="420" y="1149.04"/>
      <point x="491.36" y="1228.8"/>
      <point x="626.08" y="1228.8" type="curve" smooth="yes" name="n31"/>
      <point x="768.72" y="1228.8"/>
      <point x="823.28" y="1130.48"/>
      <point x="878.96" y="1130.48" type="curve" smooth="yes"/>
      <point x="907.6" y="1130.48"/>
      <point x="925.68" y="1144.8"/>
      <point x="947.04" y="1173.44" type="curve"/>
    </contour>
  </outline>
  <guideline angle="82.9991" x="475" y="0"/>
</glyph>
<glyph name="U" format="2">
  <advance width="1389.16"/>
  <unicode hex="0055"/>
  <guideline x="668.2" y="0.0" angle="82.9991"/>
  <anchor x="800.24" y="1521.52" name="Top"/>
  <anchor x="800.24" y="1521.52" name="top"/>
  <anchor x="614.12" y="-70.0" name="bottom"/>
  <outline>
    <contour>
      <point x="647.28" y="236.32" type="curve" smooth="yes"/>
      <point x="471.36" y="236.32"/>
      <point x="386.4" y="373.28"/>
      <point x="411.6" y="585.36" type="curve"/>
      <point x="517.84" y="1452.8" type="line"/>
      <point x="228.07999999999998" y="1452.8" type="line"/>
      <point x="123.6" y="585.12" type="line" smooth="yes"/>
      <point x="80.56" y="236.32"/>
      <point x="265.76" y="-16.24"/>
      <point x="616.88" y="-16.24" type="curve" smooth="yes"/>
      <point x="968.24" y="-16.24"/>
      <point x="1214.96" y="236.32"/>
      <point x="1258.24" y="585.12" type="curve"/>
      <point x="1364.48" y="1452.8" type="line"/>
      <point x="1074.72" y="1452.8" type="line"/>
      <point x="968.48" y="585.12" type="line"/>
      <point x="943.04" y="373.03999999999996"/>
      <point x="822.96" y="236.32"/>
    </contour>
  </outline>
</glyph>
<glyph name="V" format="2">
  <advance width="1314"/>
  <unicode hex="0056"/>
  <anchor x="760.24" y="1521.52" name="Top"/>
  <anchor x="576.76" y="-70" name="bottom"/>
  <anchor x="760.24" y="1521.52" name="top"/>
  <outline>
    <contour>
      <point x="1428.12" y="1452.8" type="line" name="n00"/>
      <point x="1193.88" y="1452.8" type="line" smooth="yes"/>
      <point x="1145.64" y="1452.8"/>
      <point x="1104.44" y="1418.88"/>
      <point x="1090.12" y="1386.48" type="curve" smooth="yes"/>
      <point x="711.24" y="543.92" type="line"/>
      <point x="637.64" y="398.48"/>
      <point x="571.32" y="169.28"/>
      <point x="543.72" y="0" type="curve" name="n08"/>
      <point x="713.08" y="0" type="line"/>
    </contour>
    <contour>
      <point x="450.2" y="0" type="line"/>
      <point x="624.84" y="0" type="line"/>
      <point x="652.76" y="169.28"/>
      <point x="623.88" y="398.48"/>
      <point x="586.2" y="543.92" type="curve"/>
      <point x="411.4" y="1386.48" type="line"/>
      <point x="404.36" y="1424.16"/>
      <point x="373.96" y="1452.8"/>
      <point x="323.96" y="1452.8" type="curve" smooth="yes"/>
      <point x="91.24" y="1452.8" type="line"/>
    </contour>
  </outline>
  <guideline angle="82.9991" x="566" y="0"/>
</glyph>
<glyph name="W" format="2">
  <advance width="1948"/>
  <unicode hex="0057"/>
  <anchor x="1071.36" y="1521.52" name="Top"/>
  <anchor x="889.88" y="-70" name="bottom"/>
  <anchor x="1071.36" y="1521.52" name="top"/>
  <outline>
    <contour>
      <point x="1038.48" y="1452.8" type="line" smooth="yes" name="n00"/>
      <point x="990.24" y="1452.8"/>
      <point x="950.92" y="1419"/>
      <point x="936.48" y="1386.48" type="curve"/>
      <point x="604.4" y="559.76" type="line"/>
      <point x="541.6" y="410.8"/>
      <point x="479.04" y="169.28"/>
      <point x="453.44" y="0" type="curve" name="n07"/>
      <point x="602.96" y="0" type="line"/>
      <point x="987.52" y="953.28" type="line" smooth="yes"/>
      <point x="1032.24" y="1062.32"/>
      <point x="1092.8" y="1261.36"/>
      <point x="1108.88" y="1368.64" type="curve"/>
      <point x="1017.12" y="1368.64" type="line"/>
      <point x="1006.56" y="1261.36"/>
      <point x="1019.12" y="1062.32"/>
      <point x="1036.96" y="953.28" type="curve"/>
      <point x="1186.56" y="0" type="line"/>
      <point x="1344.88" y="0" type="line"/>
      <point x="1358.96" y="169.28"/>
      <point x="1349.68" y="410.8"/>
      <point x="1324.56" y="559.76" type="curve"/>
      <point x="1195.04" y="1386.48" type="line"/>
      <point x="1184.36" y="1424.28"/>
      <point x="1155.84" y="1452.8"/>
      <point x="1105.84" y="1452.8" type="curve" smooth="yes"/>
    </contour>
    <contour>
      <point x="341.84" y="0" type="line"/>
      <point x="547.92" y="0" type="line"/>
      <point x="562" y="169.28"/>
      <point x="549.2" y="407.28"/>
      <point x="536.4" y="559.76" type="curve"/>
      <point x="420.72" y="1386.48" type="line" smooth="yes"/>
      <point x="415.44" y="1425.92"/>
      <point x="383.28" y="1452.8"/>
      <point x="333.28" y="1452.8" type="curve" smooth="yes"/>
      <point x="105.84" y="1452.8" type="line"/>
    </contour>
    <contour>
      <point x="2041.76" y="1452.8" type="line"/>
      <point x="1812.8" y="1452.8" type="line" smooth="yes"/>
      <point x="1764.56" y="1452.8"/>
      <point x="1719.6" y="1420.64"/>
      <point x="1708.8" y="1386.48" type="curve"/>
      <point x="1390.8" y="559.76" type="line"/>
      <point x="1340.32" y="407.28"/>
      <point x="1274.24" y="169.28"/>
      <point x="1248.64" y="0" type="curve"/>
      <point x="1449.44" y="0" type="line"/>
    </contour>
  </outline>
  <guideline angle="0" x="0" y="83"/>
  <guideline angle="82.9991" x="883" y="0"/>
</glyph>
<glyph name="Y" format="2">
  <advance width="1236"/>
  <unicode hex="0059"/>
  <anchor x="722.12" y="1521.52" name="Top"/>
  <anchor x="536.88" y="-70" name="bottom"/>
  <anchor x="-123.2" y="1120" name="onRight"/>
  <anchor x="722.12" y="1521.52" name="top"/>
  <outline>
    <contour>
      <point x="1350.96" y="1452.8" type="line" name="n00"/>
      <point x="1110.96" y="1452.8" type="line" smooth="yes"/>
      <point x="1062.72" y="1452.8"/>
      <point x="1028.8" y="1419.12"/>
      <point x="1008.96" y="1386.72" type="curve" smooth="yes"/>
      <point x="726.4" y="921.84" type="line"/>
      <point x="646.24" y="783.12"/>
      <point x="595.52" y="684.64"/>
      <point x="571.68" y="533.92" type="curve"/>
      <point x="739.28" y="533.92" type="line"/>
    </contour>
    <contour>
      <point x="476.4" y="533.92" type="line"/>
      <point x="658.08" y="533.92" type="line"/>
      <point x="668.16" y="651.2"/>
      <point x="653.12" y="772.56"/>
      <point x="603.12" y="921.84" type="curve"/>
      <point x="437.68" y="1386.72" type="line"/>
      <point x="425.12" y="1426.16"/>
      <point x="398.24" y="1452.8"/>
      <point x="348.24" y="1452.8" type="curve" smooth="yes"/>
      <point x="90.64" y="1452.8" type="line"/>
    </contour>
    <contour>
      <point x="762.64" y="609.76" type="line"/>
      <point x="472.88" y="609.76" type="line"/>
      <point x="396.88" y="0" type="line" name="n22"/>
      <point x="686.64" y="0" type="line"/>
    </contour>
  </outline>
  <guideline angle="0" x="0" y="662"/>
  <guideline angle="82.9991" x="529" y="0"/>
</glyph>
<glyph name="Z" format="2">
  <advance width="1126.48"/>
  <unicode hex="005A"/>
  <guideline x="563.6" y="0.0" angle="82.9991"/>
  <anchor x="691.16" y="1521.52" name="Top"/>
  <anchor x="500.88" y="-70.0" name="bottom"/>
  <anchor x="691.16" y="1521.52" name="top"/>
  <outline>
    <contour>
      <point x="1139.0" y="1293.04" type="line" smooth="yes"/>
      <point x="1153.8" y="1315.12"/>
      <point x="1166.36" y="1336.48"/>
      <point x="1170.12" y="1361.84" type="curve"/>
      <point x="1182.68" y="1452.8" type="line"/>
      <point x="935.88" y="1452.8" type="line"/>
      <point x="0.1999999999999993" y="157.76" type="line"/>
      <point x="-14.36" y="135.92000000000002"/>
      <point x="-26.92" y="114.56"/>
      <point x="-30.68" y="89.2" type="curve"/>
      <point x="-41.48" y="0.0" type="line"/>
      <point x="205.32" y="0.0" type="line"/>
    </contour>
    <contour>
      <point x="185.24" y="1452.8" type="line"/>
      <point x="156.6" y="1219.6" type="line"/>
      <point x="1001.0" y="1219.6" type="line"/>
      <point x="1182.68" y="1452.8" type="line"/>
    </contour>
    <contour>
      <point x="138.44" y="233.2" type="line"/>
      <point x="-41.48" y="0.0" type="line"/>
      <point x="985.56" y="0.0" type="line"/>
      <point x="1014.2" y="233.2" type="line"/>
    </contour>
  </outline>
</glyph>
<glyph name="bracketleft" format="2">
  <advance width="603.6"/>
  <unicode hex="005B"/>
  <guideline x="276.0" y="0.0" angle="82.9991"/>
  <outline>
    <contour>
      <point x="669.28" y="1551.28" type="line"/>
      <point x="269.44" y="1551.28" type="line"/>
      <point x="258.08" y="1378.4" type="line"/>
      <point x="579.6" y="1378.4" type="line" smooth="yes"/>
      <point x="619.28" y="1378.4"/>
      <point x="653.2" y="1408.8"/>
      <point x="656.96" y="1444.96" type="curve"/>
    </contour>
    <contour>
      <point x="441.2" y="-314.15999999999997" type="line"/>
      <point x="453.76" y="-209.6" type="line"/>
      <point x="459.04" y="-171.68"/>
      <point x="433.92" y="-141.28"/>
      <point x="394.24" y="-141.28" type="curve" smooth="yes"/>
      <point x="81.52000000000001" y="-141.28" type="line"/>
      <point x="41.36" y="-314.15999999999997" type="line"/>
    </contour>
    <contour>
      <point x="492.08000000000004" y="1551.28" type="line"/>
      <point x="269.44" y="1551.28" type="line"/>
      <point x="41.36" y="-314.15999999999997" type="line"/>
      <point x="262.0" y="-314.15999999999997" type="line"/>
    </contour>
  </outline>
</glyph>
<glyph name="backslash" format="2">
  <advance width="862.24"/>
  <unicode hex="005C"/>
  <guideline x="366.92" y="0.0" angle="82.9991"/>
  <outline>
    <contour>
      <point x="484.04" y="0.8799999999999955" type="line"/>
      <point x="500.12" y="-63.68"/>
      <point x="555.88" y="-99.12"/>
      <point x="611.4" y="-99.12" type="curve" smooth="yes"/>
      <point x="723.24" y="-99.12" type="line"/>
      <point x="389.64" y="1362.88" type="line" smooth="yes"/>
      <point x="373.56" y="1421.92"/>
      <point x="328.84000000000003" y="1457.6"/>
      <point x="266.04" y="1457.6" type="curve" smooth="yes"/>
      <point x="153.96" y="1457.6" type="line"/>
    </contour>
  </outline>
</glyph>
<glyph name="bracketright" format="2">
  <advance width="603.96"/>
  <unicode hex="005D"/>
  <guideline x="276.0" y="0.0" angle="82.9991"/>
  <outline>
    <contour>
      <point x="148.64" y="1444.96" type="line"/>
      <point x="144.88" y="1408.8"/>
      <point x="170.0" y="1378.4"/>
      <point x="209.92" y="1378.4" type="curve" smooth="yes"/>
      <point x="531.44" y="1378.4" type="line"/>
      <point x="562.8" y="1551.28" type="line"/>
      <point x="162.72" y="1551.28" type="line"/>
    </contour>
    <contour>
      <point x="332.96" y="-314.15999999999997" type="line"/>
      <point x="344.32" y="-141.28" type="line"/>
      <point x="22.8" y="-141.28" type="line" smooth="yes"/>
      <point x="-17.12" y="-141.28"/>
      <point x="-49.28" y="-171.68"/>
      <point x="-53.04" y="-209.6" type="curve"/>
      <point x="-67.12" y="-314.15999999999997" type="line"/>
    </contour>
    <contour>
      <point x="112.08" y="-314.15999999999997" type="line"/>
      <point x="332.96" y="-314.15999999999997" type="line"/>
      <point x="562.8" y="1551.28" type="line"/>
      <point x="341.92" y="1551.28" type="line"/>
    </contour>
  </outline>
</glyph>
<glyph name="asciicircum" format="2">
  <advance width="1160"/>
  <unicode hex="005E"/>
  <outline>
    <contour>
      <point x="159.68" y="771.52" type="line" name="n00"/>
      <point x="372.56" y="771.52" type="line" smooth="yes"/>
      <point x="408.96" y="771.52"/>
      <point x="430.8" y="791.84"/>
      <point x="443.6" y="817.2" type="curve"/>
      <point x="582.8" y="1075.04" type="line" smooth="yes"/>
      <point x="651.12" y="1200.88"/>
      <point x="662.88" y="1298.56"/>
      <point x="664.88" y="1452.8" type="curve" name="n08"/>
      <point x="538.48" y="1452.8" type="line"/>
    </contour>
    <contour>
      <point x="717.68" y="1452.8" type="line"/>
      <point x="598.32" y="1452.8" type="line"/>
      <point x="598.56" y="1298.56"/>
      <point x="612.08" y="1202.64"/>
      <point x="683.92" y="1075.04" type="curve"/>
      <point x="826.64" y="817.2" type="line" smooth="yes"/>
      <point x="841.2" y="791.6"/>
      <point x="861.52" y="771.52"/>
      <point x="894.16" y="771.52" type="curve" smooth="yes"/>
      <point x="1096.48" y="771.52" type="line"/>
    </contour>
  </outline>
  <guideline angle="82.9991" x="580" y="0"/>
</glyph>
<glyph name="underscore" format="2">
  <advance width="890"/>
  <unicode hex="005F"/>
  <outline>
    <contour>
      <point x="-7.16" y="-123.84" type="line" name="n00"/>
      <point x="-28.52" y="-297.2" type="line" name="n01"/>
      <point x="697.24" y="-297.2" type="line"/>
      <point x="718.84" y="-123.84" type="line"/>
    </contour>
  </outline>
  <guideline angle="82.9991" x="363" y="0"/>
</glyph>
<glyph name="grave" format="2">
  <advance width="736.0"/>
  <unicode hex="0060"/>
  <guideline x="368.0" y="0.0" angle="82.9991"/>
  <anchor x="400.0" y="1120.0" name="_top"/>
  <outline>
    <contour>
      <point x="218.92" y="1468.8" type="line"/>
      <point x="421.92" y="1206.48" type="line"/>
      <point x="443.28" y="1177.6"/>
      <point x="462.48" y="1166.8"/>
      <point x="500.04" y="1166.8" type="curve" smooth="yes"/>
      <point x="644.16" y="1166.8" type="line"/>
      <point x="543.92" y="1411.6" type="line" smooth="yes"/>
      <point x="528.76" y="1448.96"/>
      <point x="509.32" y="1468.8"/>
      <point x="456.76" y="1468.8" type="curve" smooth="yes"/>
    </contour>
  </outline>
</glyph>
<glyph name="b" format="2">
  <advance width="1086"/>
  <unicode hex="0062"/>
  <anchor x="406.6" y="1521.52" name="Top"/>
  <anchor x="310.56" y="1238" name="bar"/>
  <anchor x="456.8" y="-70" name="bottom"/>
  <anchor x="599.52" y="197.76" name="hook"/>
  <anchor x="686.4" y="1120" name="top"/>
  <outline>
    <contour>
      <point x="182.68" y="0" type="line" smooth="yes" name="n00"/>
      <point x="241.96" y="0"/>
      <point x="262.84" y="23.6"/>
      <point x="278.92" y="75.6" type="curve" smooth="yes"/>
      <point x="301.28" y="153" type="line"/>
      <point x="320.88" y="170.04" type="line"/>
      <point x="483.56" y="1492.8" type="line" name="n06"/>
      <point x="213.4" y="1492.8" type="line"/>
      <point x="32.36" y="0" type="line"/>
    </contour>
    <contour>
      <point x="257.96" y="134.24" type="line"/>
      <point x="311.72" y="46.48"/>
      <point x="402.84" y="-15.52"/>
      <point x="524.6" y="-15.52" type="curve" smooth="yes" name="n12"/>
      <point x="794.44" y="-15.52"/>
      <point x="1027.24" y="303.36"/>
      <point x="1027.24" y="659.76" type="curve" smooth="yes"/>
      <point x="1027.24" y="929.2"/>
      <point x="912.04" y="1048.56"/>
      <point x="741.56" y="1048.56" type="curve" smooth="yes" name="n18"/>
      <point x="530.2" y="1048.56"/>
      <point x="347.48" y="836.32"/>
      <point x="251" y="549.12" type="curve"/>
      <point x="343.24" y="423.04" type="line"/>
      <point x="391.88" y="642.24"/>
      <point x="522.84" y="829.68"/>
      <point x="632.44" y="829.68" type="curve" smooth="yes" name="n25"/>
      <point x="707" y="829.68"/>
      <point x="753.56" y="767.52"/>
      <point x="753.56" y="631.6" type="curve" smooth="yes"/>
      <point x="753.56" y="417.2"/>
      <point x="642.12" y="196.32"/>
      <point x="480.84" y="196.32" type="curve" smooth="yes" name="n31"/>
      <point x="416.12" y="196.32"/>
      <point x="339.8" y="220.4"/>
      <point x="298.92" y="289.44" type="curve"/>
    </contour>
  </outline>
  <guideline angle="82.9991" x="496" y="0"/>
</glyph>
<glyph name="e" format="2">
  <advance width="980.72"/>
  <unicode hex="0065"/>
  <guideline x="478.12" y="0.0" angle="82.9991"/>
  <anchor x="590.48" y="1120.0" name="top"/>
  <anchor x="450.36" y="-70.0" name="bottom"/>
  <anchor x="883.6" y="197.76" name="hook"/>
  <outline>
    <contour>
      <point x="275.72" y="421.44" type="line"/>
      <point x="789.48" y="467.84000000000003"/>
      <point x="923.64" y="594.64"/>
      <point x="923.64" y="784.08" type="curve" smooth="yes"/>
      <point x="923.64" y="907.92"/>
      <point x="808.28" y="1046.8"/>
      <point x="590.6" y="1046.8" type="curve" smooth="yes"/>
      <point x="257.72" y="1046.8"/>
      <point x="36.44" y="747.04"/>
      <point x="36.44" y="418.32" type="curve" smooth="yes"/>
      <point x="36.44" y="156.4"/>
      <point x="200.76" y="-15.52"/>
      <point x="442.92" y="-15.52" type="curve" smooth="yes"/>
      <point x="633.96" y="-15.52"/>
      <point x="757.56" y="47.76"/>
      <point x="901.16" y="190.8" type="curve"/>
      <point x="830.52" y="277.28" type="line" smooth="yes"/>
      <point x="817.72" y="291.84000000000003"/>
      <point x="799.88" y="302.4"/>
      <point x="781.8" y="302.4" type="curve" smooth="yes"/>
      <point x="697.0" y="302.4"/>
      <point x="669.4" y="199.84"/>
      <point x="497.72" y="199.84" type="curve" smooth="yes"/>
      <point x="369.64" y="199.84"/>
      <point x="304.84000000000003" y="272.48"/>
      <point x="304.84000000000003" y="425.36" type="curve" smooth="yes"/>
      <point x="306.6" y="672.96"/>
      <point x="415.56" y="852.56"/>
      <point x="574.76" y="852.56" type="curve" smooth="yes"/>
      <point x="645.48" y="852.56"/>
      <point x="675.08" y="811.12"/>
      <point x="675.08" y="773.52" type="curve" smooth="yes"/>
      <point x="675.08" y="697.84"/>
      <point x="621.72" y="642.72"/>
      <point x="307.88" y="599.84" type="curve"/>
    </contour>
  </outline>
</glyph>
<glyph name="f" format="2">
  <advance width="670.56"/>
  <unicode hex="0066"/>
  <guideline x="324.32" y="0.0" angle="82.9991"/>
  <anchor x="385.24" y="197.76" name="hook"/>
  <anchor x="596.92" y="1512.96" name="top"/>
  <anchor x="291.92" y="480.08" name="bar"/>
  <anchor x="522.0" y="1521.52" name="Top"/>
  <anchor x="185.32" y="-421.0" name="bottom"/>
  <outline>
    <contour>
      <point x="490.72" y="1084.48" type="line"/>
      <point x="508.15999999999997" y="1227.28"/>
      <point x="575.6800000000001" y="1277.84"/>
      <point x="680.8" y="1277.84" type="curve" smooth="yes"/>
      <point x="714.88" y="1277.84"/>
      <point x="751.92" y="1283.28"/>
      <point x="757.6800000000001" y="1315.36" type="curve"/>
      <point x="782.8" y="1460.64" type="line"/>
      <point x="744.48" y="1472.88"/>
      <point x="706.24" y="1479.12"/>
      <point x="661.6800000000001" y="1479.12" type="curve" smooth="yes"/>
      <point x="433.2" y="1479.12"/>
      <point x="260.88" y="1329.6"/>
      <point x="231.12" y="1093.28" type="curve" smooth="yes"/>
      <point x="68.88" y="-246.72" type="line"/>
      <point x="180.24" y="-246.72" type="line" smooth="yes"/>
      <point x="259.91999999999996" y="-246.72"/>
      <point x="299.36" y="-204.24"/>
      <point x="322.48" y="-132.64" type="curve"/>
      <point x="374.56" y="46.96" type="line"/>
      <point x="483.03999999999996" y="940.08" type="line"/>
      <point x="477.76" y="969.2" type="line"/>
    </contour>
    <contour>
      <point x="679.44" y="830.24" type="line"/>
      <point x="704.56" y="1027.76" type="line"/>
      <point x="88.32" y="1027.76" type="line"/>
      <point x="74.24" y="914.4" type="line" smooth="yes"/>
      <point x="68.96000000000001" y="873.2"/>
      <point x="93.84" y="853.6"/>
      <point x="128.24" y="844.8" type="curve"/>
      <point x="243.28" y="821.44" type="line"/>
      <point x="280.16" y="830.24" type="line"/>
    </contour>
  </outline>
</glyph>
<glyph name="g" format="2">
  <advance width="1019.76"/>
  <unicode hex="0067"/>
  <guideline x="493.8"/>
  <guideline x="100.0" y="0.0" angle="82.9991"/>
  <anchor x="566.08" y="1120.0" name="top"/>
  <anchor x="419.96" y="-421.0" name="bottom"/>
  <outline>
    <contour>
      <point x="465.0" y="493.04" type="curve" smooth="yes"/>
      <point x="384.84000000000003" y="493.04"/>
      <point x="342.12" y="548.64"/>
      <point x="342.12" y="641.76" type="curve" smooth="yes"/>
      <point x="342.12" y="755.44"/>
      <point x="398.04" y="861.36"/>
      <point x="507.8" y="861.36" type="curve" smooth="yes"/>
      <point x="589.72" y="861.36"/>
      <point x="632.68" y="808.24"/>
      <point x="632.68" y="717.12" type="curve" smooth="yes"/>
      <point x="630.92" y="608.96"/>
      <point x="574.76" y="493.04"/>
    </contour>
    <contour>
      <point x="885.0" y="727.68" type="curve"/>
      <point x="885.0" y="946.0"/>
      <point x="724.92" y="1048.56"/>
      <point x="539.48" y="1048.56" type="curve" smooth="yes"/>
      <point x="245.24" y="1048.56"/>
      <point x="91.32" y="846.16"/>
      <point x="91.32" y="643.52" type="curve" smooth="yes"/>
      <point x="91.32" y="428.24"/>
      <point x="230.28" y="325.2"/>
      <point x="385.8" y="325.2" type="curve" smooth="yes"/>
      <point x="535.96" y="325.2"/>
      <point x="605.88" y="378.8"/>
      <point x="678.68" y="454.88" type="curve"/>
      <point x="665.08" y="507.84" type="line"/>
      <point x="596.52" y="405.92"/>
      <point x="564.2" y="325.76"/>
      <point x="564.2" y="257.2" type="curve"/>
      <point x="563.96" y="166.96"/>
      <point x="609.16" y="107.04"/>
      <point x="608.92" y="6.719999999999999" type="curve" smooth="yes"/>
      <point x="608.68" y="-94.32"/>
      <point x="514.52" y="-165.92"/>
      <point x="376.84000000000003" y="-165.92" type="curve" smooth="yes"/>
      <point x="251.16" y="-165.92"/>
      <point x="195.08" y="-127.12"/>
      <point x="195.08" y="-54.959999999999994" type="curve"/>
      <point x="195.32" y="27.52"/>
      <point x="318.84000000000003" y="96.32"/>
      <point x="642.36" y="35.040000000000006" type="curve"/>
      <point x="602.68" y="193.84" type="line"/>
      <point x="385.08000000000004" y="244.8"/>
      <point x="-66.03999999999999" y="217.44"/>
      <point x="-66.28" y="-90.16" type="curve"/>
      <point x="-66.28" y="-241.68"/>
      <point x="94.84" y="-356.64"/>
      <point x="353.72" y="-356.64" type="curve" smooth="yes"/>
      <point x="671.88" y="-356.64"/>
      <point x="857.72" y="-180.48"/>
      <point x="859.72" y="29.599999999999994" type="curve" smooth="yes"/>
      <point x="859.96" y="169.92000000000002"/>
      <point x="761.72" y="236.72"/>
      <point x="761.96" y="345.2" type="curve"/>
      <point x="761.96" y="497.76"/>
      <point x="884.52" y="552.56"/>
    </contour>
    <contour>
      <point x="806.76" y="781.6800000000001" type="line"/>
      <point x="973.72" y="832.96" type="line"/>
      <point x="1003.56" y="845.28"/>
      <point x="1021.64" y="868.88"/>
      <point x="1026.92" y="904.56" type="curve" smooth="yes"/>
      <point x="1039.24" y="995.28" type="line"/>
      <point x="637.16" y="995.28" type="line"/>
    </contour>
  </outline>
</glyph>
<glyph name="h" format="2">
  <advance width="1091"/>
  <unicode hex="0068"/>
  <anchor x="560.88" y="724.64" name="Slash"/>
  <anchor x="407.48" y="1521.52" name="Top"/>
  <anchor x="469.96" y="-70" name="bottom"/>
  <anchor x="407.48" y="1521.52" name="top"/>
  <outline>
    <contour>
      <point x="307.8" y="0" type="line" name="n00"/>
      <point x="488.84" y="1492.8" type="line" name="n01"/>
      <point x="213.4" y="1492.8" type="line"/>
      <point x="32.36" y="0" type="line"/>
    </contour>
    <contour>
      <point x="919.08" y="0" type="line"/>
      <point x="996.6" y="656.16" type="line"/>
      <point x="721.16" y="656.16" type="line"/>
      <point x="643.64" y="0" type="line"/>
    </contour>
    <contour>
      <point x="996.6" y="656.16" type="line"/>
      <point x="1028.12" y="907.52"/>
      <point x="915.56" y="1048.56"/>
      <point x="741.8" y="1048.56" type="curve" smooth="yes" name="n11"/>
      <point x="556.28" y="1048.56"/>
      <point x="374.84" y="907.04"/>
      <point x="264.04" y="606.16" type="curve"/>
      <point x="356.04" y="473.04" type="line"/>
      <point x="399.88" y="681.36"/>
      <point x="531.08" y="822.64"/>
      <point x="635.96" y="822.64" type="curve" smooth="yes" name="n18"/>
      <point x="709.24" y="822.64"/>
      <point x="736.6" y="777.36"/>
      <point x="721.16" y="656.16" type="curve"/>
    </contour>
  </outline>
  <guideline angle="82.9991" x="502" y="0"/>
</glyph>
<glyph name="i" format="2">
  <advance width="502.88"/>
  <unicode hex="0069"/>
  <guideline x="263.16"/>
  <guideline x="100.0" y="0.0" angle="82.9991"/>
  <anchor x="312.12" y="197.76" name="hook"/>
  <anchor x="338.92" y="1521.52" name="Top"/>
  <anchor x="338.92" y="1521.52" name="top"/>
  <anchor x="171.8" y="-70.0" name="bottom"/>
  <outline>
    <contour>
      <point x="165.12" y="1032.8" type="line"/>
      <point x="41.599999999999994" y="0.0" type="line"/>
      <point x="313.52" y="0.0" type="line"/>
      <point x="437.03999999999996" y="1032.8" type="line"/>
    </contour>
    <contour>
      <point x="497.44" y="1322.88" type="curve"/>
      <point x="497.44" y="1418.0"/>
      <point x="416.88" y="1495.04"/>
      <point x="329.28" y="1495.04" type="curve" smooth="yes"/>
      <point x="244.96" y="1495.04"/>
      <point x="164.64" y="1416.24"/>
      <point x="164.64" y="1322.88" type="curve" smooth="yes"/>
      <point x="164.64" y="1229.76"/>
      <point x="243.2" y="1152.72"/>
      <point x="327.52" y="1152.72" type="curve" smooth="yes"/>
      <point x="413.36" y="1152.72"/>
      <point x="497.44" y="1229.76"/>
    </contour>
  </outline>
</glyph>
<glyph name="j" format="2">
  <advance width="501"/>
  <unicode hex="006A"/>
  <anchor x="331.36" y="1521.52" name="Top"/>
  <anchor x="218.64" y="480.08" name="bar"/>
  <anchor x="126.92" y="-421" name="bottom"/>
  <anchor x="331.36" y="1521.52" name="top"/>
  <outline>
    <contour>
      <point x="166" y="1032.8" type="line" name="n00"/>
      <point x="38.08" y="-15.36" type="line"/>
      <point x="24.08" y="-121.6"/>
      <point x="-4.72" y="-151.6"/>
      <point x="-92.64" y="-151.6" type="curve" smooth="yes" name="n04"/>
      <point x="-137.12" y="-151.6"/>
      <point x="-150.88" y="-161.84"/>
      <point x="-157.6" y="-189.12" type="curve"/>
      <point x="-184.48" y="-339.68" type="line"/>
      <point x="-145.12" y="-351.92"/>
      <point x="-109.04" y="-358.16"/>
      <point x="-54.16" y="-358.16" type="curve" smooth="yes" name="n11"/>
      <point x="168.48" y="-358.16"/>
      <point x="285.44" y="-203.76"/>
      <point x="308.24" y="-15.36" type="curve" smooth="yes"/>
      <point x="436.16" y="1032.8" type="line"/>
    </contour>
    <contour>
      <point x="486.72" y="1322.88" type="curve" smooth="yes"/>
      <point x="486.72" y="1418"/>
      <point x="406.16" y="1495.04"/>
      <point x="318.56" y="1495.04" type="curve" smooth="yes" name="n19"/>
      <point x="234.24" y="1495.04"/>
      <point x="153.92" y="1416.24"/>
      <point x="153.92" y="1322.88" type="curve" smooth="yes"/>
      <point x="153.92" y="1229.76"/>
      <point x="232.48" y="1152.72"/>
      <point x="316.8" y="1152.72" type="curve" smooth="yes" name="n25"/>
      <point x="402.64" y="1152.72"/>
      <point x="486.72" y="1229.76"/>
    </contour>
  </outline>
  <guideline angle="90" x="204" y="0"/>
  <guideline angle="82.9991" x="100" y="0"/>
</glyph>
<glyph name="k" format="2">
  <advance width="1023"/>
  <unicode hex="006B"/>
  <anchor x="430.36" y="1521.52" name="Top"/>
  <anchor x="449.76" y="-70" name="bottom"/>
  <anchor x="829.2" y="197.76" name="hook"/>
  <anchor x="430.36" y="1521.52" name="top"/>
  <outline>
    <contour>
      <point x="213.52" y="1492.8" type="line" name="n00"/>
      <point x="30.48" y="0" type="line" name="n01"/>
      <point x="302.4" y="0" type="line"/>
      <point x="485.44" y="1492.8" type="line"/>
    </contour>
    <contour>
      <point x="286.24" y="648.64" type="line"/>
      <point x="314.16" y="463.44" type="line"/>
      <point x="391.84" y="463.44" type="line" smooth="yes"/>
      <point x="429.6" y="463.44"/>
      <point x="441.84" y="457.44"/>
      <point x="456.32" y="424.88" type="curve" smooth="yes"/>
      <point x="630.08" y="48.96" type="line"/>
      <point x="645.12" y="12.56"/>
      <point x="670.72" y="0"/>
      <point x="710.64" y="0" type="curve" smooth="yes"/>
      <point x="950.16" y="0" type="line"/>
      <point x="717.2" y="496.96" type="line"/>
      <point x="682.08" y="576.32"/>
      <point x="634.4" y="625.52"/>
      <point x="512.16" y="625.52" type="curve"/>
      <point x="504.64" y="541.6" type="line"/>
      <point x="604.8" y="541.6"/>
      <point x="680.16" y="582.8"/>
      <point x="742.4" y="658.64" type="curve"/>
      <point x="1058.8" y="1032.8" type="line" name="n23"/>
      <point x="812.24" y="1032.8" type="line" smooth="yes"/>
      <point x="771.6" y="1032.8"/>
      <point x="745.76" y="1016.24"/>
      <point x="721.68" y="985.12" type="curve"/>
      <point x="476" y="684.24" type="line" smooth="yes"/>
      <point x="454.48" y="657.68"/>
      <point x="437.44" y="648.64"/>
      <point x="405.12" y="648.64" type="curve" smooth="yes"/>
    </contour>
  </outline>
  <guideline angle="82.9991" x="413" y="0"/>
</glyph>
<glyph name="l" format="2">
  <advance width="489"/>
  <unicode hex="006C"/>
  <anchor x="351.76" y="1521.52" name="Top"/>
  <anchor x="262.92" y="749.28" name="bar"/>
  <anchor x="156.6" y="-70" name="bottom"/>
  <anchor x="314.88" y="197.76" name="hook"/>
  <anchor x="351.76" y="1521.52" name="top"/>
  <outline>
    <contour>
      <point x="305.48" y="0" type="line" name="n00"/>
      <point x="486.76" y="1492.8" type="line" name="n01"/>
      <point x="214.84" y="1492.8" type="line"/>
      <point x="33.8" y="0" type="line"/>
    </contour>
  </outline>
  <guideline angle="82.9991" x="212" y="0"/>
</glyph>
<glyph name="n" format="2">
  <advance width="1092"/>
  <unicode hex="006E"/>
  <anchor x="470.96" y="-70" name="bottom"/>
  <anchor x="908.68" y="197.76" name="hook"/>
  <anchor x="604.76" y="1120" name="top"/>
  <outline>
    <contour>
      <point x="308.68" y="0" type="line" name="n00"/>
      <point x="390.76" y="742.72" type="line"/>
      <point x="383.72" y="759.04" type="line"/>
      <point x="389" y="943.6" type="line"/>
      <point x="389" y="1005.92"/>
      <point x="355.32" y="1033.28" name="n05"/>
      <point x="297.8" y="1033.28" type="curve" smooth="yes"/>
      <point x="156.52" y="1033.28" type="line"/>
      <point x="33.24" y="0" type="line"/>
    </contour>
    <contour>
      <point x="920.2" y="0" type="line"/>
      <point x="997.72" y="656.16" type="line"/>
      <point x="722.28" y="656.16" type="line"/>
      <point x="644.76" y="0" type="line"/>
    </contour>
    <contour>
      <point x="997.72" y="656.16" type="line"/>
      <point x="1029.24" y="907.52"/>
      <point x="916.44" y="1048.56"/>
      <point x="744.68" y="1048.56" type="curve" smooth="yes" name="n16"/>
      <point x="557.4" y="1048.56"/>
      <point x="377.72" y="907.04"/>
      <point x="266.92" y="606.16" type="curve"/>
      <point x="357.16" y="473.04" type="line"/>
      <point x="400.76" y="681.36"/>
      <point x="531.96" y="820.88"/>
      <point x="638.84" y="820.88" type="curve" smooth="yes" name="n23"/>
      <point x="710.36" y="820.88"/>
      <point x="737.72" y="777.36"/>
      <point x="722.28" y="656.16" type="curve"/>
    </contour>
  </outline>
  <guideline angle="90" x="503" y="0"/>
  <guideline angle="82.9991" x="100" y="0"/>
</glyph>
<glyph name="p" format="2">
  <advance width="1086.56"/>
  <unicode hex="0070"/>
  <guideline x="535.12" y="0.0" angle="82.9991"/>
  <anchor x="717.08" y="197.76" name="hook"/>
  <anchor x="152.76" y="-140.28" name="bar"/>
  <anchor x="625.76" y="127.6" name="tick"/>
  <anchor x="579.24" y="1120.0" name="top"/>
  <anchor x="535.08" y="-70.0" name="bottom"/>
  <outline>
    <contour>
      <point x="260.15999999999997" y="-331.84" type="line"/>
      <point x="391.28" y="738.64" type="line"/>
      <point x="384.24" y="754.96" type="line"/>
      <point x="390.0" y="943.6" type="line"/>
      <point x="390.0" y="1005.92"/>
      <point x="356.32" y="1033.28"/>
      <point x="298.8" y="1033.28" type="curve" smooth="yes"/>
      <point x="157.52" y="1033.28" type="line"/>
      <point x="-8.239999999999995" y="-331.84" type="line"/>
    </contour>
    <contour>
      <point x="258.08" y="134.24" type="line"/>
      <point x="311.84000000000003" y="46.48"/>
      <point x="402.96" y="-15.52"/>
      <point x="524.72" y="-15.52" type="curve" smooth="yes"/>
      <point x="794.56" y="-15.52"/>
      <point x="1027.3600000000001" y="303.36"/>
      <point x="1027.3600000000001" y="659.76" type="curve" smooth="yes"/>
      <point x="1027.3600000000001" y="929.2"/>
      <point x="912.16" y="1048.56"/>
      <point x="741.6800000000001" y="1048.56" type="curve" smooth="yes"/>
      <point x="530.32" y="1048.56"/>
      <point x="347.6" y="836.32"/>
      <point x="251.12" y="549.12" type="curve"/>
      <point x="343.36" y="423.04" type="line"/>
      <point x="392.0" y="642.24"/>
      <point x="522.96" y="829.6800000000001"/>
      <point x="632.56" y="829.6800000000001" type="curve" smooth="yes"/>
      <point x="707.12" y="829.6800000000001"/>
      <point x="753.68" y="767.52"/>
      <point x="753.68" y="631.6" type="curve" smooth="yes"/>
      <point x="753.68" y="417.2"/>
      <point x="642.24" y="196.32"/>
      <point x="480.96" y="196.32" type="curve" smooth="yes"/>
      <point x="416.24" y="196.32"/>
      <point x="339.91999999999996" y="220.4"/>
      <point x="299.03999999999996" y="289.44" type="curve"/>
    </contour>
  </outline>
</glyph>
<glyph name="q" format="2">
  <advance width="1051.8"/>
  <unicode hex="0071"/>
  <guideline x="522.76" y="0.0" angle="82.9991"/>
  <anchor x="658.04" y="1120.0" name="top"/>
  <anchor x="422.8" y="-421.0" name="bottom"/>
  <outline>
    <contour>
      <point x="829.16" y="-331.84" type="line"/>
      <point x="995.96" y="1002.08" type="line"/>
      <point x="724.04" y="988.0" type="line"/>
      <point x="567.8" y="-230.95999999999998" type="line" smooth="yes"/>
      <point x="562.04" y="-274.8"/>
      <point x="580.36" y="-331.84"/>
      <point x="649.16" y="-331.84" type="curve" smooth="yes"/>
    </contour>
    <contour>
      <point x="995.96" y="1002.08" type="line"/>
      <point x="903.0" y="1036.32"/>
      <point x="804.52" y="1048.32"/>
      <point x="709.64" y="1048.32" type="curve" smooth="yes"/>
      <point x="317.64" y="1048.32"/>
      <point x="29.32" y="727.12"/>
      <point x="29.32" y="354.16" type="curve" smooth="yes"/>
      <point x="29.32" y="103.6"/>
      <point x="158.92" y="-15.52"/>
      <point x="311.56" y="-15.52" type="curve" smooth="yes"/>
      <point x="523.16" y="-15.52"/>
      <point x="681.32" y="196.96"/>
      <point x="776.04" y="484.16" type="curve"/>
      <point x="683.8" y="619.04" type="line"/>
      <point x="636.92" y="399.84000000000003"/>
      <point x="532.04" y="212.16"/>
      <point x="420.68" y="212.16" type="curve" smooth="yes"/>
      <point x="351.4" y="212.16"/>
      <point x="305.0" y="267.52"/>
      <point x="305.0" y="405.2" type="curve" smooth="yes"/>
      <point x="305.0" y="647.2"/>
      <point x="458.6" y="850.56"/>
      <point x="670.92" y="850.56" type="curve" smooth="yes"/>
      <point x="723.08" y="850.56"/>
      <point x="786.36" y="843.6"/>
      <point x="843.88" y="821.92" type="curve"/>
    </contour>
  </outline>
</glyph>
<glyph name="r" format="2">
  <advance width="716"/>
  <unicode hex="0072"/>
  <anchor x="223.56" y="480.08" name="bar"/>
  <anchor x="154.84" y="-70" name="bottom"/>
  <anchor x="311.48" y="197.76" name="hook"/>
  <anchor x="452.92" y="1120" name="top"/>
  <outline>
    <contour>
      <point x="302.52" y="0" type="line" name="n00"/>
      <point x="391.64" y="742.72" type="line"/>
      <point x="384.6" y="759.04" type="line"/>
      <point x="389.88" y="943.6" type="line"/>
      <point x="389.88" y="1005.92"/>
      <point x="356.2" y="1033.28" name="n05"/>
      <point x="298.68" y="1033.28" type="curve" smooth="yes"/>
      <point x="157.4" y="1033.28" type="line"/>
      <point x="32.36" y="0" type="line"/>
    </contour>
    <contour>
      <point x="333.4" y="328.72" type="line"/>
      <point x="395.88" y="714"/>
      <point x="524.44" y="829.36"/>
      <point x="704.36" y="753.84" type="curve"/>
      <point x="754.12" y="1020" type="line"/>
      <point x="548.04" y="1113.12"/>
      <point x="344.12" y="850.08"/>
      <point x="244.68" y="389.68" type="curve"/>
    </contour>
  </outline>
  <guideline angle="82.9991" x="323" y="0"/>
</glyph>
<glyph name="t" format="2">
  <advance width="741"/>
  <unicode hex="0074"/>
  <anchor x="389.72" y="724.64" name="Slash"/>
  <anchor x="260.88" y="480.08" name="bar"/>
  <anchor x="323.76" y="-70" name="bottom"/>
  <anchor x="448.92" y="1408.8" name="top"/>
  <outline>
    <contour>
      <point x="208.6" y="957.92" type="line"/>
      <point x="137.88" y="391.76" type="line" smooth="yes"/>
      <point x="122.12" y="260.4"/>
      <point x="121.88" y="237.44"/>
      <point x="121.88" y="218.16" type="curve"/>
      <point x="127.16" y="72.48"/>
      <point x="221.64" y="-16"/>
      <point x="373.48" y="-16" type="curve" smooth="yes" name="n07"/>
      <point x="466.36" y="-16"/>
      <point x="561.72" y="15.2"/>
      <point x="639.16" y="74.48" type="curve"/>
      <point x="579.08" y="210.48" type="line" smooth="yes"/>
      <point x="571.04" y="228.32"/>
      <point x="564.52" y="235.6"/>
      <point x="548.2" y="235.6" type="curve" smooth="yes"/>
      <point x="525.4" y="235.6"/>
      <point x="509.4" y="208.16"/>
      <point x="459.96" y="208.16" type="curve" smooth="yes" name="n17"/>
      <point x="417.88" y="208.16"/>
      <point x="395.56" y="237.6"/>
      <point x="395.56" y="281.52" type="curve" smooth="yes"/>
      <point x="395.56" y="286.48"/>
      <point x="395.8" y="299.36"/>
      <point x="409.8" y="407.36" type="curve" smooth="yes"/>
      <point x="525.48" y="1338.96" type="line" name="n24"/>
      <point x="376.92" y="1338.96" type="line" smooth="yes"/>
      <point x="346.28" y="1338.96"/>
      <point x="325.44" y="1322.16"/>
      <point x="315.64" y="1293.28" type="curve" smooth="yes"/>
    </contour>
    <contour>
      <point x="313.08" y="1027.76" type="line"/>
      <point x="263.88" y="1036.56" type="line"/>
      <point x="75" y="999.12" type="line"/>
      <point x="62.44" y="887.52" type="line"/>
      <point x="57.16" y="849.84"/>
      <point x="77" y="830"/>
      <point x="102.6" y="830" type="curve" smooth="yes"/>
      <point x="703.8" y="830" type="line" name="n36"/>
      <point x="726.92" y="1027.76" type="line" name="n37"/>
    </contour>
  </outline>
  <guideline angle="82.9991" x="317" y="0"/>
</glyph>
<glyph name="v" format="2">
  <advance width="994"/>
  <unicode hex="0076"/>
  <anchor x="418" y="-70" name="bottom"/>
  <anchor x="634.44" y="197.76" name="hook"/>
  <anchor x="554.76" y="1120" name="top"/>
  <outline>
    <contour>
      <point x="307.52" y="0" type="line" name="n00"/>
      <point x="465.6" y="0" type="line"/>
      <point x="465.6" y="168.32"/>
      <point x="461.84" y="318.8"/>
      <point x="436.48" y="483.36" type="curve"/>
      <point x="346.88" y="981.84" type="line" smooth="yes"/>
      <point x="341.36" y="1010.72"/>
      <point x="318" y="1032.8" name="n07"/>
      <point x="279.84" y="1032.8" type="curve" smooth="yes"/>
      <point x="53.12" y="1032.8" type="line"/>
    </contour>
    <contour>
      <point x="1044.96" y="1032.8" type="line"/>
      <point x="827.04" y="1032.8" type="line" smooth="yes"/>
      <point x="794.28" y="1032.8"/>
      <point x="765.28" y="1010.96"/>
      <point x="752.48" y="981.84" type="curve" smooth="yes"/>
      <point x="536.16" y="483.36" type="line"/>
      <point x="467.84" y="315.04"/>
      <point x="426.4" y="168.32"/>
      <point x="388.96" y="0" type="curve"/>
      <point x="540" y="0" type="line"/>
    </contour>
  </outline>
  <guideline angle="82.9991" x="430" y="0"/>
</glyph>
<glyph name="w" format="2">
  <advance width="1488.12"/>
  <unicode hex="0077"/>
  <guideline x="743.24" y="0.0" angle="82.9991"/>
  <anchor x="792.4" y="1120.0" name="top"/>
  <anchor x="660.52" y="-70.0" name="bottom"/>
  <outline>
    <contour>
      <point x="230.24" y="0.0" type="line"/>
      <point x="435.6" y="0.0" type="line" smooth="yes"/>
      <point x="462.48" y="0.0"/>
      <point x="482.32" y="16.32"/>
      <point x="494.88" y="48.72" type="curve"/>
      <point x="717.6" y="594.64" type="line"/>
      <point x="762.56" y="707.44"/>
      <point x="791.2" y="820.0"/>
      <point x="812.8" y="932.8" type="curve"/>
      <point x="745.44" y="932.8" type="line"/>
      <point x="741.92" y="820.0"/>
      <point x="741.92" y="709.2"/>
      <point x="758.24" y="596.4" type="curve"/>
      <point x="846.48" y="48.72" type="line"/>
      <point x="851.76" y="14.56"/>
      <point x="866.32" y="0.0"/>
      <point x="888.16" y="0.0" type="curve" smooth="yes"/>
      <point x="1102.32" y="0.0" type="line"/>
      <point x="1525.04" y="1032.8" type="line"/>
      <point x="1322.96" y="1032.8" type="line" smooth="yes"/>
      <point x="1290.32" y="1032.8"/>
      <point x="1259.68" y="1010.96"/>
      <point x="1250.4" y="981.84" type="curve"/>
      <point x="1075.6" y="483.36" type="line" smooth="yes"/>
      <point x="1018.08" y="311.52"/>
      <point x="981.44" y="168.8"/>
      <point x="951.04" y="0.48" type="curve"/>
      <point x="1024.16" y="0.24" type="line"/>
      <point x="1034.72" y="168.56"/>
      <point x="1018.64" y="317.04"/>
      <point x="995.28" y="483.36" type="curve" smooth="yes"/>
      <point x="921.36" y="983.04" type="line"/>
      <point x="917.84" y="1011.92"/>
      <point x="892.96" y="1033.52"/>
      <point x="855.28" y="1033.52" type="curve" smooth="yes"/>
      <point x="736.88" y="1033.52" type="line" smooth="yes"/>
      <point x="704.48" y="1033.52"/>
      <point x="674.08" y="1011.92"/>
      <point x="663.28" y="983.04" type="curve"/>
      <point x="462.4" y="483.36" type="line" smooth="yes"/>
      <point x="396.08" y="315.28000000000003"/>
      <point x="340.56" y="168.8"/>
      <point x="303.12" y="0.48" type="curve"/>
      <point x="386.56" y="0.48" type="line"/>
      <point x="395.36" y="168.8"/>
      <point x="393.36" y="315.28000000000003"/>
      <point x="382.32" y="483.36" type="curve" smooth="yes"/>
      <point x="335.76" y="981.84" type="line" smooth="yes"/>
      <point x="330.24" y="1011.2"/>
      <point x="305.12" y="1032.8"/>
      <point x="268.72" y="1032.8" type="curve" smooth="yes"/>
      <point x="58.08" y="1032.8" type="line"/>
    </contour>
  </outline>
</glyph>
<glyph name="y" format="2">
  <advance width="994"/>
  <unicode hex="0079"/>
  <anchor x="272.08" y="-421" name="bottom"/>
  <anchor x="567.52" y="1120" name="top"/>
  <outline>
    <contour>
      <point x="335.4" y="0.96" type="line"/>
      <point x="477.64" y="0.96" type="line"/>
      <point x="486.44" y="171.04"/>
      <point x="495" y="340.88"/>
      <point x="460.84" y="500.16" type="curve"/>
      <point x="351.64" y="981.84" type="line"/>
      <point x="344.36" y="1009.44"/>
      <point x="326.28" y="1032.8" name="n07"/>
      <point x="286.36" y="1032.8" type="curve" smooth="yes"/>
      <point x="54.36" y="1032.8" type="line"/>
    </contour>
    <contour>
      <point x="1048.2" y="1032.8" type="line"/>
      <point x="826.52" y="1032.8" type="line" smooth="yes"/>
      <point x="797.64" y="1032.8"/>
      <point x="767" y="1011.44"/>
      <point x="752.44" y="982.32" type="curve"/>
      <point x="527.08" y="501.92" type="line"/>
      <point x="485.4" y="409.76"/>
      <point x="443.72" y="315.6"/>
      <point x="422.12" y="221.68" type="curve"/>
      <point x="358.28" y="171.6" type="line"/>
      <point x="80.36" y="-331.84" type="line" name="n20"/>
      <point x="285.96" y="-331.84" type="line" smooth="yes"/>
      <point x="325.88" y="-331.84"/>
      <point x="353" y="-313.76"/>
      <point x="373.08" y="-275.36" type="curve" smooth="yes"/>
    </contour>
  </outline>
  <guideline angle="82.9991" x="430" y="0"/>
</glyph>
<glyph name="z" format="2">
  <advance width="873"/>
  <unicode hex="007A"/>
  <anchor x="340.08" y="-70" name="bottom"/>
  <anchor x="671" y="197.76" name="hook"/>
  <anchor x="509.64" y="1120" name="top"/>
  <outline>
    <contour>
      <point x="867.72" y="1032.8" type="line"/>
      <point x="124.36" y="1032.8" type="line" name="n01"/>
      <point x="99.24" y="819.2" type="line" name="n02"/>
      <point x="599.32" y="819.2" type="line"/>
      <point x="537" y="842.8" type="line"/>
      <point x="31.4" y="211.84" type="line" smooth="yes"/>
      <point x="6.28" y="181.44"/>
      <point x="-11.8" y="140.48"/>
      <point x="-13.56" y="116.88" type="curve"/>
      <point x="-27.64" y="0" type="line"/>
      <point x="732.04" y="0" type="line" name="n10"/>
      <point x="756.92" y="213.6" type="line" name="n11"/>
      <point x="237" y="213.6" type="line"/>
      <point x="302.84" y="184.48" type="line"/>
      <point x="808.44" y="813.68" type="line" smooth="yes"/>
      <point x="829.4" y="839.92"/>
      <point x="849.88" y="878"/>
      <point x="853.4" y="917.2" type="curve"/>
    </contour>
  </outline>
  <guideline angle="82.9991" x="410" y="0"/>
</glyph>
<glyph name="braceleft" format="2">
  <advance width="585"/>
  <unicode hex="007B"/>
  <outline>
    <contour>
      <point x="192.12" y="948.96" type="curve" smooth="yes"/>
      <point x="192.12" y="779.12"/>
      <point x="164.44" y="696.32"/>
      <point x="66.44" y="696.32" type="curve"/>
      <point x="46.84" y="540.8" type="line"/>
      <point x="164.12" y="606.88" type="line"/>
      <point x="304.04" y="606.88"/>
      <point x="397.16" y="712.88"/>
      <point x="411.24" y="843.12" type="curve" smooth="yes"/>
      <point x="423.56" y="959.76"/>
      <point x="412.6" y="1070.96"/>
      <point x="428.44" y="1212.72" type="curve"/>
      <point x="439" y="1316.16"/>
      <point x="485.4" y="1378.4"/>
      <point x="567.4" y="1378.4" type="curve" smooth="yes" name="n14"/>
      <point x="570.44" y="1378.4" type="line" smooth="yes"/>
      <point x="589" y="1378.4"/>
      <point x="628.2" y="1392.96"/>
      <point x="631.96" y="1430.64" type="curve" smooth="yes"/>
      <point x="646.04" y="1551.28" type="line"/>
      <point x="599.32" y="1551.28" type="line" smooth="yes" name="n20"/>
      <point x="316.28" y="1551.28"/>
      <point x="188.2" y="1386.08"/>
      <point x="188.2" y="1091.28" type="curve" smooth="yes"/>
      <point x="188.2" y="1055.12"/>
      <point x="192.12" y="983.36"/>
    </contour>
    <contour>
      <point x="135.8" y="436" type="curve" smooth="yes"/>
      <point x="135.8" y="286.88"/>
      <point x="47.24" y="150.4"/>
      <point x="47.24" y="-21.52" type="curve" smooth="yes"/>
      <point x="47.24" y="-194.8"/>
      <point x="145.88" y="-314.16"/>
      <point x="369.48" y="-314.16" type="curve" smooth="yes" name="n32"/>
      <point x="417.96" y="-314.16" type="line"/>
      <point x="432.28" y="-195.28" type="line"/>
      <point x="437.56" y="-157.6"/>
      <point x="403.64" y="-141.28"/>
      <point x="383.56" y="-141.28" type="curve" smooth="yes"/>
      <point x="380.28" y="-141.28" type="line" smooth="yes" name="n38"/>
      <point x="311.72" y="-141.28"/>
      <point x="278.68" y="-90.96"/>
      <point x="278.68" y="-16.48" type="curve" smooth="yes"/>
      <point x="278.68" y="142.4"/>
      <point x="358.2" y="277.28"/>
      <point x="358.2" y="430.96" type="curve" smooth="yes"/>
      <point x="358.2" y="536.24"/>
      <point x="292.52" y="628.48"/>
      <point x="167.64" y="628.48" type="curve"/>
      <point x="66.44" y="696.32" type="line"/>
      <point x="46.84" y="540.8" type="line"/>
      <point x="109.48" y="540.8"/>
      <point x="135.8" y="496.88"/>
    </contour>
  </outline>
  <guideline angle="0" x="0" y="630"/>
  <guideline angle="82.9991" x="276" y="0"/>
</glyph>
<glyph name="bar" format="2">
  <advance width="548"/>
  <unicode hex="007C"/>
  <outline>
    <contour>
      <point x="166.44" y="-331.84" type="line" name="n00"/>
      <point x="380.04" y="-331.84" type="line"/>
      <point x="380.04" y="1553.04" type="line" name="n02"/>
      <point x="166.44" y="1553.04" type="line"/>
    </contour>
  </outline>
  <guideline angle="82.9991" x="300" y="0"/>
</glyph>
<glyph name="braceright" format="2">
  <advance width="584"/>
  <unicode hex="007D"/>
  <outline>
    <contour>
      <point x="450.76" y="801.12" type="curve" smooth="yes"/>
      <point x="450.76" y="948.48"/>
      <point x="537.32" y="1086.72"/>
      <point x="537.32" y="1256.88" type="curve" smooth="yes"/>
      <point x="537.32" y="1431.92"/>
      <point x="438.68" y="1551.28"/>
      <point x="216.84" y="1551.28" type="curve" smooth="yes" name="n06"/>
      <point x="168.36" y="1551.28" type="line"/>
      <point x="154.28" y="1430.64" type="line"/>
      <point x="148.76" y="1392.96"/>
      <point x="182.68" y="1378.4"/>
      <point x="203" y="1378.4" type="curve" smooth="yes"/>
      <point x="206.04" y="1378.4" type="line" smooth="yes" name="n12"/>
      <point x="274.6" y="1378.4"/>
      <point x="307.64" y="1328.08"/>
      <point x="307.64" y="1253.6" type="curve" smooth="yes"/>
      <point x="307.64" y="1094.72"/>
      <point x="226.36" y="958.08"/>
      <point x="226.36" y="806.16" type="curve" smooth="yes"/>
      <point x="226.36" y="699.12"/>
      <point x="292.04" y="606.88"/>
      <point x="418.92" y="606.88" type="curve"/>
      <point x="519.88" y="540.8" type="line"/>
      <point x="537.96" y="696.32" type="line"/>
      <point x="475.08" y="696.32"/>
      <point x="450.76" y="740.24"/>
    </contour>
    <contour>
      <point x="394.2" y="286.4" type="curve" smooth="yes"/>
      <point x="394.2" y="458"/>
      <point x="422.12" y="540.8"/>
      <point x="519.88" y="540.8" type="curve"/>
      <point x="537.96" y="696.32" type="line"/>
      <point x="420.68" y="628.48" type="line"/>
      <point x="282.28" y="628.48"/>
      <point x="187.64" y="522.48"/>
      <point x="175.32" y="392.24" type="curve"/>
      <point x="163" y="277.36"/>
      <point x="173.72" y="164.4"/>
      <point x="157.88" y="24.4" type="curve"/>
      <point x="147.32" y="-79.04"/>
      <point x="100.92" y="-141.28"/>
      <point x="18.92" y="-141.28" type="curve" smooth="yes" name="n40"/>
      <point x="15.88" y="-141.28" type="line" smooth="yes"/>
      <point x="-4.44" y="-141.28"/>
      <point x="-41.88" y="-157.6"/>
      <point x="-45.4" y="-195.28" type="curve"/>
      <point x="-61.48" y="-314.16" type="line"/>
      <point x="-13" y="-314.16" type="line" smooth="yes" name="n46"/>
      <point x="268.28" y="-314.16"/>
      <point x="396.36" y="-148.96"/>
      <point x="396.36" y="145.84" type="curve" smooth="yes"/>
      <point x="396.36" y="182"/>
      <point x="394.2" y="253.76"/>
    </contour>
  </outline>
  <guideline angle="0" x="0" y="630"/>
  <guideline angle="82.9991" x="276" y="0"/>
</glyph>
<glyph name="asciitilde" format="2">
  <advance width="1160.0"/>
  <unicode hex="007E"/>
  <guideline x="580.0" y="0.0" angle="82.9991"/>
  <outline>
    <contour>
      <point x="736.28" y="665.28" type="curve"/>
      <point x="657.56" y="665.28"/>
      <point x="544.12" y="745.92"/>
      <point x="402.84000000000003" y="745.92" type="curve"/>
      <point x="204.2" y="745.92"/>
      <point x="87.96" y="608.48"/>
      <point x="87.96" y="390.4" type="curve"/>
      <point x="310.36" y="390.4" type="line"/>
      <point x="310.6" y="472.48"/>
      <point x="350.68" y="518.24"/>
      <point x="420.44" y="518.24" type="curve" smooth="yes"/>
      <point x="499.16" y="518.24"/>
      <point x="612.6" y="437.6"/>
      <point x="753.88" y="437.6" type="curve"/>
      <point x="952.52" y="437.6"/>
      <point x="1068.76" y="575.04"/>
      <point x="1068.76" y="793.12" type="curve"/>
      <point x="846.36" y="793.12" type="line"/>
      <point x="846.12" y="711.04"/>
      <point x="806.04" y="665.28"/>
    </contour>
  </outline>
</glyph>
<glyph name="exclamdown" format="2">
  <advance width="515.04"/>
  <unicode hex="00A1"/>
  <guideline x="340.84000000000003"/>
  <guideline x="100.0" y="0.0" angle="82.9991"/>
  <outline>
    <contour>
      <point x="20.08" y="-333.6" type="line"/>
      <point x="86.32" y="198.0" type="line" smooth="yes"/>
      <point x="100.32" y="319.52"/>
      <point x="129.44" y="436.0"/>
      <point x="164.8" y="564.08" type="curve"/>
      <point x="342.64" y="564.08" type="line"/>
      <point x="347.03999999999996" y="436.0"/>
      <point x="345.6" y="319.52"/>
      <point x="329.84000000000003" y="198.0" type="curve" smooth="yes"/>
      <point x="265.36" y="-333.6" type="line"/>
    </contour>
    <contour>
      <point x="127.75999999999999" y="886.0" type="curve" smooth="yes"/>
      <point x="127.75999999999999" y="793.68"/>
      <point x="198.0" y="723.44"/>
      <point x="290.32" y="723.44" type="curve" smooth="yes"/>
      <point x="380.88" y="723.44"/>
      <point x="453.12" y="793.68"/>
      <point x="453.12" y="886.0" type="curve" smooth="yes"/>
      <point x="453.12" y="976.56"/>
      <point x="380.88" y="1048.8"/>
      <point x="290.32" y="1048.8" type="curve" smooth="yes"/>
      <point x="198.0" y="1048.8"/>
      <point x="127.75999999999999" y="976.56"/>
    </contour>
  </outline>
</glyph>
<glyph name="cent" format="2">
  <advance width="1160"/>
  <unicode hex="00A2"/>
  <outline>
    <contour>
      <point x="1077.32" y="899.28" type="line"/>
      <point x="990.44" y="992.72"/>
      <point x="871.32" y="1045.28"/>
      <point x="706.12" y="1045.28" type="curve" smooth="yes" name="n03"/>
      <point x="321.56" y="1045.28"/>
      <point x="94.2" y="782.88"/>
      <point x="94.2" y="443.44" type="curve" smooth="yes"/>
      <point x="94.2" y="156.8"/>
      <point x="284.44" y="-15.52"/>
      <point x="537.72" y="-15.52" type="curve" smooth="yes" name="n09"/>
      <point x="696.92" y="-15.52"/>
      <point x="866.84" y="22.8"/>
      <point x="997.56" y="154.72" type="curve"/>
      <point x="935.48" y="250.24" type="line" smooth="yes"/>
      <point x="926.44" y="264.56"/>
      <point x="910.6" y="271.84"/>
      <point x="889" y="271.84" type="curve" smooth="yes"/>
      <point x="827.24" y="271.84"/>
      <point x="778.52" y="185.76"/>
      <point x="601.32" y="185.76" type="curve" smooth="yes" name="n19"/>
      <point x="445.24" y="185.76"/>
      <point x="355.8" y="284.72"/>
      <point x="355.8" y="456" type="curve" smooth="yes"/>
      <point x="355.8" y="692.64"/>
      <point x="460.76" y="844"/>
      <point x="690.04" y="844" type="curve" smooth="yes" name="n25"/>
      <point x="842.28" y="844"/>
      <point x="888.68" y="774.88"/>
      <point x="939.88" y="774.88" type="curve" smooth="yes"/>
      <point x="966.76" y="774.88"/>
      <point x="981.08" y="783.92"/>
      <point x="997.4" y="805.28" type="curve"/>
    </contour>
    <contour>
      <point x="404.52" y="-216.96" type="line" name="n32"/>
      <point x="502.52" y="-216.96" type="line" smooth="yes"/>
      <point x="542.2" y="-216.96"/>
      <point x="574.36" y="-184.56"/>
      <point x="581.64" y="-149.92" type="curve" smooth="yes"/>
      <point x="882.28" y="1261.36" type="line" name="n37"/>
      <point x="784.28" y="1261.36" type="line" smooth="yes"/>
      <point x="744.6" y="1261.36"/>
      <point x="712.44" y="1227.2"/>
      <point x="705.16" y="1194.32" type="curve" smooth="yes"/>
    </contour>
  </outline>
  <guideline angle="82.9991" x="580" y="0"/>
</glyph>
<glyph name="sterling" format="2">
  <advance width="1160"/>
  <unicode hex="00A3"/>
  <outline>
    <contour>
      <point x="1078.56" y="227.92" type="line"/>
      <point x="516.88" y="227.92" type="line" smooth="yes"/>
      <point x="391.6" y="227.92"/>
      <point x="265.28" y="189.2"/>
      <point x="141.28" y="140.96" type="curve"/>
      <point x="0.56" y="168.08" type="line" name="n05"/>
      <point x="-20.8" y="0" type="line" name="n06"/>
      <point x="937.6" y="0" type="line" smooth="yes"/>
      <point x="1005.44" y="0"/>
      <point x="1057.44" y="62.32"/>
      <point x="1064.48" y="115.84" type="curve" smooth="yes"/>
    </contour>
    <contour>
      <point x="903.04" y="661.76" type="curve" smooth="yes"/>
      <point x="915.36" y="770.08" type="line"/>
      <point x="129.28" y="770.08" type="line" smooth="yes" name="n13"/>
      <point x="85.84" y="770.08"/>
      <point x="52.8" y="736.16"/>
      <point x="48.28" y="703.52" type="curve" smooth="yes"/>
      <point x="34.96" y="595.2" type="line" name="n17"/>
      <point x="821.92" y="595.2" type="line" smooth="yes"/>
      <point x="865.36" y="595.2"/>
      <point x="899.28" y="629.12"/>
    </contour>
    <contour>
      <point x="224.24" y="108.56" type="line"/>
      <point x="356.56" y="192"/>
      <point x="419.44" y="275.36"/>
      <point x="436.56" y="414.32" type="curve" smooth="yes"/>
      <point x="506.96" y="1000.8" type="line" smooth="yes"/>
      <point x="525.4" y="1152.32"/>
      <point x="619.04" y="1241.12"/>
      <point x="748.16" y="1241.12" type="curve" smooth="yes" name="n28"/>
      <point x="846.56" y="1241.12"/>
      <point x="878.16" y="1211.76"/>
      <point x="925.2" y="1149.2" type="curve"/>
      <point x="959.12" y="1107.52"/>
      <point x="1005.36" y="1107.28"/>
      <point x="1055.6" y="1132.16" type="curve"/>
      <point x="1171.2" y="1202.8" type="line"/>
      <point x="1115.84" y="1356.24"/>
      <point x="1005.68" y="1467.04"/>
      <point x="774.8" y="1467.04" type="curve" smooth="yes" name="n38"/>
      <point x="462.48" y="1467.04"/>
      <point x="266.56" y="1252.08"/>
      <point x="234.8" y="999.04" type="curve" smooth="yes"/>
      <point x="153.84" y="340.4" type="line" smooth="yes"/>
      <point x="140.88" y="235.68"/>
      <point x="91.76" y="187.2"/>
      <point x="0.56" y="168.08" type="curve"/>
    </contour>
  </outline>
  <guideline angle="82.9991" x="580" y="0"/>
</glyph>
<glyph name="currency" format="2">
  <advance width="1160"/>
  <unicode hex="00A4"/>
  <outline>
    <contour>
      <point x="211.28" y="673.52" type="curve" smooth="yes"/>
      <point x="211.28" y="465.12"/>
      <point x="376.88" y="299.52"/>
      <point x="585.28" y="299.52" type="curve" smooth="yes" name="n03"/>
      <point x="792.16" y="299.52"/>
      <point x="959.52" y="465.12"/>
      <point x="959.52" y="673.52" type="curve" smooth="yes"/>
      <point x="959.52" y="882.16"/>
      <point x="792.16" y="1047.76"/>
      <point x="585.28" y="1047.76" type="curve" smooth="yes" name="n09"/>
      <point x="376.88" y="1047.76"/>
      <point x="211.28" y="882.16"/>
    </contour>
    <contour>
      <point x="414.32" y="673.52" type="curve" smooth="yes"/>
      <point x="414.32" y="769.84"/>
      <point x="490.96" y="846.48"/>
      <point x="585.28" y="846.48" type="curve" smooth="yes" name="n15"/>
      <point x="681.6" y="846.48"/>
      <point x="758.24" y="769.84"/>
      <point x="758.24" y="673.52" type="curve" smooth="yes"/>
      <point x="758.24" y="580.96"/>
      <point x="681.6" y="502.56"/>
      <point x="585.28" y="502.56" type="curve" smooth="yes" name="n21"/>
      <point x="490.96" y="502.56"/>
      <point x="414.32" y="580.96"/>
    </contour>
    <contour>
      <point x="324.88" y="791.44" type="line"/>
      <point x="463.84" y="928.64" type="line"/>
      <point x="245.28" y="1147.2" type="line" name="n26"/>
      <point x="106.32" y="1010" type="line"/>
    </contour>
    <contour>
      <point x="703.2" y="933.92" type="line"/>
      <point x="840.4" y="794.96" type="line"/>
      <point x="1058.96" y="1013.52" type="line"/>
      <point x="921.76" y="1152.48" type="line"/>
    </contour>
    <contour>
      <point x="469.12" y="413.12" type="line"/>
      <point x="330.16" y="552.08" type="line"/>
      <point x="111.6" y="333.52" type="line"/>
      <point x="248.8" y="194.56" type="line" name="n35"/>
    </contour>
    <contour>
      <point x="845.68" y="557.36" type="line"/>
      <point x="706.72" y="418.4" type="line"/>
      <point x="925.28" y="199.84" type="line"/>
      <point x="1064.24" y="338.8" type="line"/>
    </contour>
  </outline>
  <guideline angle="82.9991" x="580" y="0"/>
</glyph>
<glyph name="yen" format="2">
  <advance width="1160"/>
  <unicode hex="00A5"/>
  <outline>
    <contour>
      <point x="1253.96" y="1451.04" type="line" name="n00"/>
      <point x="1029.8" y="1451.04" type="line" smooth="yes"/>
      <point x="981.56" y="1451.04"/>
      <point x="945.88" y="1419.12"/>
      <point x="927.56" y="1384.96" type="curve" smooth="yes"/>
      <point x="668.92" y="921.84" type="line"/>
      <point x="593.8" y="779.12"/>
      <point x="569.96" y="684.64"/>
      <point x="545.88" y="533.92" type="curve"/>
      <point x="695.88" y="533.92" type="line"/>
    </contour>
    <contour>
      <point x="434.76" y="533.92" type="line"/>
      <point x="593.56" y="533.92" type="line"/>
      <point x="607.4" y="686.4"/>
      <point x="601.16" y="777.36"/>
      <point x="559.96" y="921.84" type="curve"/>
      <point x="413.16" y="1384.96" type="line"/>
      <point x="402.36" y="1424.4"/>
      <point x="373.72" y="1451.04"/>
      <point x="325.48" y="1451.04" type="curve" smooth="yes"/>
      <point x="103.08" y="1451.04" type="line"/>
    </contour>
    <contour>
      <point x="708.68" y="609.76" type="line"/>
      <point x="441.8" y="609.76" type="line"/>
      <point x="367.8" y="0" type="line" name="n22"/>
      <point x="632.92" y="0" type="line"/>
    </contour>
    <contour>
      <point x="83.08" y="246.4" type="line" name="n24"/>
      <point x="976.36" y="246.4" type="line"/>
      <point x="994.2" y="394.88" type="line"/>
      <point x="102.68" y="394.88" type="line" name="n27"/>
    </contour>
    <contour>
      <point x="113.4" y="485.92" type="line" name="n28"/>
      <point x="1006.68" y="485.92" type="line"/>
      <point x="1024.52" y="634.4" type="line"/>
      <point x="131.24" y="634.4" type="line" name="n31"/>
    </contour>
  </outline>
  <guideline angle="82.9991" x="580" y="0"/>
</glyph>
<glyph name="brokenbar" format="2">
  <advance width="546"/>
  <unicode hex="00A6"/>
  <outline>
    <contour>
      <point x="165.56" y="738.24" type="line"/>
      <point x="379.16" y="738.24" type="line"/>
      <point x="379.16" y="1553.04" type="line" name="n02"/>
      <point x="165.56" y="1553.04" type="line"/>
    </contour>
    <contour>
      <point x="165.56" y="-331.84" type="line" name="n04"/>
      <point x="379.16" y="-331.84" type="line"/>
      <point x="379.16" y="482.96" type="line"/>
      <point x="165.56" y="482.96" type="line"/>
    </contour>
  </outline>
  <guideline angle="82.9991" x="300" y="0"/>
</glyph>
<glyph name="section" format="2">
  <advance width="948"/>
  <unicode hex="00A7"/>
  <outline>
    <contour>
      <point x="488.6" y="967.2" type="line"/>
      <point x="221.88" y="958"/>
      <point x="85.96" y="826.32"/>
      <point x="85.96" y="645.92" type="curve" smooth="yes"/>
      <point x="85.96" y="336.48"/>
      <point x="534.36" y="380.64"/>
      <point x="534.36" y="195.36" type="curve" smooth="yes"/>
      <point x="534.36" y="116.8"/>
      <point x="476.68" y="68.8"/>
      <point x="381.24" y="68.8" type="curve" smooth="yes" name="n09"/>
      <point x="242.2" y="68.8"/>
      <point x="222.6" y="147.12" name="n11"/>
      <point x="160.12" y="147.12" type="curve" smooth="yes"/>
      <point x="125.96" y="147.12"/>
      <point x="104.6" y="134.56"/>
      <point x="88.28" y="109.44" type="curve"/>
      <point x="13.64" y="6.64" type="line"/>
      <point x="77.64" y="-65.36"/>
      <point x="205.48" y="-118.4"/>
      <point x="335.24" y="-118.4" type="curve" smooth="yes" name="n19"/>
      <point x="614.92" y="-118.4"/>
      <point x="772.84" y="45.44"/>
      <point x="772.84" y="259.2" type="curve" smooth="yes"/>
      <point x="772.84" y="551.76"/>
      <point x="327.96" y="538.72"/>
      <point x="327.96" y="713.28" type="curve" smooth="yes"/>
      <point x="327.96" y="778.56"/>
      <point x="364.84" y="821.84"/>
      <point x="468.2" y="859.92" type="curve"/>
    </contour>
    <contour>
      <point x="917.64" y="1335.84" type="line"/>
      <point x="857.16" y="1410.88"/>
      <point x="746.68" y="1465.28"/>
      <point x="611.48" y="1465.28" type="curve" smooth="yes" name="n32"/>
      <point x="343.96" y="1465.28"/>
      <point x="199.16" y="1298.32"/>
      <point x="199.16" y="1106.8" type="curve" smooth="yes"/>
      <point x="199.16" y="785.76"/>
      <point x="642.2" y="816"/>
      <point x="642.2" y="634.32" type="curve" smooth="yes"/>
      <point x="642.2" y="566.32"/>
      <point x="600.76" y="510.24"/>
      <point x="491.4" y="487.2" type="curve"/>
      <point x="459.4" y="376.4" type="line"/>
      <point x="762.44" y="384.64"/>
      <point x="882.44" y="536"/>
      <point x="882.44" y="712.24" type="curve" smooth="yes"/>
      <point x="882.44" y="995.68"/>
      <point x="437.64" y="1007.12"/>
      <point x="437.64" y="1149.52" type="curve" smooth="yes"/>
      <point x="437.64" y="1214.64"/>
      <point x="491.24" y="1269.28"/>
      <point x="591.64" y="1269.28" type="curve" smooth="yes" name="n51"/>
      <point x="697.32" y="1269.28"/>
      <point x="739.32" y="1205.92"/>
      <point x="791" y="1205.92" type="curve" smooth="yes"/>
      <point x="814.36" y="1205.92"/>
      <point x="830.68" y="1214.96"/>
      <point x="846.76" y="1238.32" type="curve" smooth="yes"/>
    </contour>
  </outline>
  <guideline angle="82.9991" x="459" y="0"/>
</glyph>
<glyph name="dieresis" format="2">
  <advance width="736"/>
  <unicode hex="00A8"/>
  <anchor x="470.4" y="1120" name="_top"/>
  <anchor x="514.4" y="1450.16" name="top"/>
  <outline>
    <contour>
      <point x="462.48" y="1294.08" type="curve" smooth="yes"/>
      <point x="462.48" y="1376.88"/>
      <point x="394" y="1445.12"/>
      <point x="311.44" y="1445.12" type="curve" smooth="yes" name="n03"/>
      <point x="233.92" y="1445.12"/>
      <point x="165.68" y="1376.88"/>
      <point x="165.68" y="1294.08" type="curve" smooth="yes"/>
      <point x="165.68" y="1213.28"/>
      <point x="233.92" y="1148.56"/>
      <point x="311.44" y="1148.56" type="curve" smooth="yes" name="n09"/>
      <point x="394" y="1148.56"/>
      <point x="462.48" y="1213.28"/>
    </contour>
    <contour>
      <point x="856.72" y="1294.08" type="curve" smooth="yes"/>
      <point x="856.72" y="1376.88"/>
      <point x="790" y="1445.12"/>
      <point x="707.44" y="1445.12" type="curve" smooth="yes"/>
      <point x="626.4" y="1445.12"/>
      <point x="559.92" y="1376.88"/>
      <point x="559.92" y="1294.08" type="curve" smooth="yes"/>
      <point x="559.92" y="1213.28"/>
      <point x="626.4" y="1148.56"/>
      <point x="707.44" y="1148.56" type="curve" smooth="yes"/>
      <point x="790" y="1148.56"/>
      <point x="856.72" y="1213.28"/>
    </contour>
  </outline>
  <guideline angle="82.9991" x="368" y="0"/>
</glyph>
<glyph name="copyright" format="2">
  <advance width="1644"/>
  <unicode hex="00A9"/>
  <outline>
    <contour>
      <point x="1049.76" y="530.08" type="curve"/>
      <point x="994.16" y="521.68"/>
      <point x="979.52" y="469.6"/>
      <point x="850.4" y="469.6" type="curve" smooth="yes" name="n03"/>
      <point x="728.8" y="469.6"/>
      <point x="641.04" y="560.72"/>
      <point x="641.04" y="729.92" type="curve" smooth="yes"/>
      <point x="641.04" y="889.84"/>
      <point x="723.52" y="990.48"/>
      <point x="871.44" y="990.48" type="curve" smooth="yes" name="n09"/>
      <point x="999.52" y="990.48"/>
      <point x="1016.48" y="930.16"/>
      <point x="1065.92" y="930.16" type="curve" smooth="yes"/>
      <point x="1089.28" y="930.16"/>
      <point x="1103.84" y="946"/>
      <point x="1112.88" y="957.04" type="curve"/>
      <point x="1185.52" y="1058.08" type="line"/>
      <point x="1115.36" y="1136.64"/>
      <point x="1007.44" y="1195.28"/>
      <point x="857.36" y="1195.28" type="curve" smooth="yes" name="n19"/>
      <point x="598.4" y="1195.28"/>
      <point x="397.04" y="1001.2"/>
      <point x="397.04" y="729.92" type="curve" smooth="yes"/>
      <point x="397.04" y="468.24"/>
      <point x="568.48" y="263.04"/>
      <point x="836.32" y="263.04" type="curve" smooth="yes" name="n25"/>
      <point x="988.8" y="263.04"/>
      <point x="1105.92" y="314.8"/>
      <point x="1178.88" y="412.96" type="curve"/>
      <point x="1087.68" y="510.96" type="line"/>
      <point x="1078.64" y="521.52"/>
      <point x="1064.32" y="530.32"/>
    </contour>
    <contour>
      <point x="94.72" y="726.4" type="curve" smooth="yes"/>
      <point x="94.72" y="318.32"/>
      <point x="427.04" y="-14"/>
      <point x="835.12" y="-14" type="curve" smooth="yes" name="n35"/>
      <point x="1244.96" y="-14"/>
      <point x="1577.28" y="318.32"/>
      <point x="1577.28" y="726.4" type="curve" smooth="yes"/>
      <point x="1577.28" y="1136.24"/>
      <point x="1244.96" y="1468.56"/>
      <point x="835.12" y="1468.56" type="curve" smooth="yes" name="n41"/>
      <point x="427.04" y="1468.56"/>
      <point x="94.72" y="1136.24"/>
    </contour>
    <contour>
      <point x="243.68" y="726.4" type="curve" smooth="yes"/>
      <point x="243.68" y="1069.68"/>
      <point x="502.4" y="1340.96"/>
      <point x="835.12" y="1340.96" type="curve" smooth="yes" name="n47"/>
      <point x="1169.6" y="1340.96"/>
      <point x="1432.08" y="1069.68"/>
      <point x="1432.08" y="726.4" type="curve" smooth="yes"/>
      <point x="1432.08" y="384.88"/>
      <point x="1169.6" y="117.36"/>
      <point x="835.12" y="117.36" type="curve" smooth="yes" name="n53"/>
      <point x="502.4" y="117.36"/>
      <point x="243.68" y="384.88"/>
    </contour>
  </outline>
  <guideline angle="82.9991" x="794" y="0"/>
</glyph>
<glyph name="ordfeminine" format="2">
  <advance width="687"/>
  <unicode hex="00AA"/>
  <anchor x="322.96" y="-70" name="bottom"/>
  <outline>
    <contour>
      <point x="459.32" y="1471.84" type="curve" smooth="yes" name="n00"/>
      <point x="360.44" y="1471.84"/>
      <point x="268.76" y="1441.84"/>
      <point x="189.4" y="1373.04" type="curve"/>
      <point x="216.04" y="1310.72" type="line"/>
      <point x="225.08" y="1292.88"/>
      <point x="239.4" y="1275.04"/>
      <point x="266.28" y="1275.04" type="curve" smooth="yes"/>
      <point x="322.76" y="1275.04"/>
      <point x="339.56" y="1318.08"/>
      <point x="416.6" y="1318.08" type="curve" smooth="yes" name="n10"/>
      <point x="472.36" y="1318.08"/>
      <point x="479.64" y="1274.16"/>
      <point x="477.72" y="1227.6" type="curve"/>
      <point x="663.4" y="1227.6" type="line"/>
      <point x="677.64" y="1359.76"/>
      <point x="593.88" y="1471.84"/>
    </contour>
    <contour>
      <point x="615.64" y="841.52" type="line"/>
      <point x="663.4" y="1227.6" type="line"/>
      <point x="477.72" y="1227.6" type="line"/>
      <point x="447.48" y="968.4" type="line"/>
      <point x="467.64" y="879.68" type="line"/>
      <point x="480.2" y="848.8"/>
      <point x="492.52" y="841.52"/>
      <point x="526.68" y="841.52" type="curve" smooth="yes"/>
    </contour>
    <contour>
      <point x="487.16" y="933.44" type="curve"/>
      <point x="487.16" y="933.44"/>
      <point x="479.64" y="1039.44"/>
      <point x="479.64" y="1039.44" type="curve"/>
      <point x="429.72" y="986.48"/>
      <point x="396.92" y="964.16"/>
      <point x="349.48" y="964.16" type="curve" smooth="yes" name="n31"/>
      <point x="316.12" y="964.16"/>
      <point x="299.08" y="975.04"/>
      <point x="299.08" y="1003.28" type="curve" smooth="yes"/>
      <point x="299.08" y="1052.96"/>
      <point x="337.88" y="1088.08"/>
      <point x="489.08" y="1089.04" type="curve" name="n37"/>
      <point x="477" y="1205.84" type="line" name="n38"/>
      <point x="185.88" y="1198.32"/>
      <point x="115.16" y="1078.32"/>
      <point x="115.16" y="979.92" type="curve" smooth="yes"/>
      <point x="115.16" y="886.88"/>
      <point x="173.88" y="833.28"/>
      <point x="271.56" y="833.28" type="curve" smooth="yes" name="n44"/>
      <point x="360.76" y="833.28"/>
      <point x="409.4" y="866.72"/>
    </contour>
  </outline>
  <guideline angle="82.9991" x="304" y="0"/>
</glyph>
<glyph name="logicalnot" format="2">
  <advance width="1160.0"/>
  <unicode hex="00AC"/>
  <guideline x="580.0" y="0.0" angle="82.9991"/>
  <outline>
    <contour>
      <point x="124.88" y="572.0" type="line"/>
      <point x="1016.64" y="572.0" type="line"/>
      <point x="1041.52" y="771.52" type="line"/>
      <point x="148.0" y="771.52" type="line"/>
    </contour>
    <contour>
      <point x="757.76" y="291.36" type="line"/>
      <point x="982.16" y="291.36" type="line"/>
      <point x="1041.52" y="771.52" type="line"/>
      <point x="817.12" y="771.52" type="line"/>
    </contour>
  </outline>
</glyph>
<glyph name="registered" format="2">
  <advance width="1644.24"/>
  <unicode hex="00AE"/>
  <guideline x="759.68" y="0.0" angle="82.9991"/>
  <outline>
    <contour>
      <point x="781.52" y="590.72" type="line" smooth="yes"/>
      <point x="814.24" y="590.72"/>
      <point x="831.52" y="582.48"/>
      <point x="841.52" y="559.92" type="curve" smooth="yes"/>
      <point x="962.08" y="315.52" type="line"/>
      <point x="975.12" y="291.68"/>
      <point x="998.48" y="279.36"/>
      <point x="1030.88" y="279.36" type="curve" smooth="yes"/>
      <point x="1260.32" y="279.36" type="line"/>
      <point x="1098.8" y="573.52" type="line" smooth="yes"/>
      <point x="1062.72" y="645.28"/>
      <point x="1020.08" y="684.96"/>
      <point x="909.44" y="684.96" type="curve"/>
      <point x="810.8" y="634.72" type="line"/>
      <point x="849.68" y="634.72" type="line" smooth="yes"/>
      <point x="1097.84" y="634.72"/>
      <point x="1204.0" y="754.64"/>
      <point x="1204.0" y="914.72" type="curve" smooth="yes"/>
      <point x="1204.0" y="1084.08"/>
      <point x="1091.2" y="1178.72"/>
      <point x="833.52" y="1178.72" type="curve" smooth="yes"/>
      <point x="498.32" y="1178.72" type="line"/>
      <point x="498.32" y="279.36" type="line"/>
      <point x="737.04" y="279.36" type="line"/>
      <point x="737.04" y="996.8" type="line"/>
      <point x="833.52" y="996.8" type="line" smooth="yes"/>
      <point x="949.44" y="996.8"/>
      <point x="968.8" y="957.92"/>
      <point x="968.8" y="883.04" type="curve" smooth="yes"/>
      <point x="968.8" y="804.88"/>
      <point x="947.76" y="762.08"/>
      <point x="814.48" y="762.08" type="curve" smooth="yes"/>
      <point x="673.52" y="762.08" type="line"/>
      <point x="666.48" y="590.72" type="line"/>
    </contour>
    <contour>
      <point x="94.72" y="726.4" type="curve" smooth="yes"/>
      <point x="94.72" y="318.32"/>
      <point x="427.04" y="-14.0"/>
      <point x="835.12" y="-14.0" type="curve" smooth="yes"/>
      <point x="1244.96" y="-14.0"/>
      <point x="1577.28" y="318.32"/>
      <point x="1577.28" y="726.4" type="curve" smooth="yes"/>
      <point x="1577.28" y="1136.24"/>
      <point x="1244.96" y="1468.56"/>
      <point x="835.12" y="1468.56" type="curve" smooth="yes"/>
      <point x="427.04" y="1468.56"/>
      <point x="94.72" y="1136.24"/>
    </contour>
    <contour>
      <point x="243.68" y="726.4" type="curve" smooth="yes"/>
      <point x="243.68" y="1069.68"/>
      <point x="502.4" y="1340.96"/>
      <point x="835.12" y="1340.96" type="curve" smooth="yes"/>
      <point x="1169.6" y="1340.96"/>
      <point x="1432.08" y="1069.68"/>
      <point x="1432.08" y="726.4" type="curve" smooth="yes"/>
      <point x="1432.08" y="384.88"/>
      <point x="1169.6" y="117.36"/>
      <point x="835.12" y="117.36" type="curve" smooth="yes"/>
      <point x="502.4" y="117.36"/>
      <point x="243.68" y="384.88"/>
    </contour>
  </outline>
</glyph>
<glyph name="macron" format="2">
  <advance width="736"/>
  <unicode hex="00AF"/>
  <unicode hex="02C9"/>
  <anchor x="400" y="1120" name="_top"/>
  <outline>
    <contour>
      <point x="224.36" y="1206.64" type="line" name="n00"/>
      <point x="783.44" y="1206.64" type="line"/>
      <point x="804.04" y="1383.28" type="line"/>
      <point x="244.08" y="1383.28" type="line" name="n03"/>
    </contour>
  </outline>
  <guideline angle="82.9991" x="368" y="0"/>
</glyph>
<glyph name="degree" format="2">
  <advance width="827"/>
  <unicode hex="00B0"/>
  <outline>
    <contour>
      <point x="118.6" y="1120.64" type="curve" smooth="yes"/>
      <point x="118.6" y="931.44"/>
      <point x="273" y="772.24"/>
      <point x="472.28" y="772.24" type="curve" smooth="yes" name="n03"/>
      <point x="672.28" y="772.24"/>
      <point x="827.96" y="931.44"/>
      <point x="827.96" y="1120.64" type="curve" smooth="yes"/>
      <point x="827.96" y="1315.12"/>
      <point x="672.28" y="1470.56"/>
      <point x="472.28" y="1470.56" type="curve" smooth="yes" name="n09"/>
      <point x="273" y="1470.56"/>
      <point x="118.6" y="1315.12"/>
    </contour>
    <contour>
      <point x="309.32" y="1118.88" type="curve" smooth="yes"/>
      <point x="309.32" y="1213.36"/>
      <point x="377.8" y="1286.88"/>
      <point x="472.28" y="1286.88" type="curve" smooth="yes" name="n15"/>
      <point x="566.76" y="1286.88"/>
      <point x="635" y="1213.36"/>
      <point x="635" y="1118.88" type="curve" smooth="yes"/>
      <point x="635" y="1026.16"/>
      <point x="566.76" y="954.4"/>
      <point x="472.28" y="954.4" type="curve" smooth="yes" name="n21"/>
      <point x="377.8" y="954.4"/>
      <point x="309.32" y="1026.16"/>
    </contour>
  </outline>
  <guideline angle="82.9991" x="374" y="0"/>
</glyph>
<glyph name="plusminus" format="2">
  <advance width="1160.0"/>
  <unicode hex="00B1"/>
  <guideline x="580.0" y="0.0" angle="82.9991"/>
  <outline>
    <contour>
      <point x="104.84" y="707.52" type="line"/>
      <point x="1083.16" y="707.52" type="line"/>
      <point x="1108.04" y="907.04" type="line"/>
      <point x="127.96" y="907.04" type="line"/>
    </contour>
    <contour>
      <point x="552.52" y="1254.32" type="line"/>
      <point x="444.52" y="375.84000000000003" type="line"/>
      <point x="659.88" y="375.84000000000003" type="line"/>
      <point x="767.88" y="1254.32" type="line"/>
    </contour>
    <contour>
      <point x="27.560000000000002" y="80.0" type="line"/>
      <point x="1005.88" y="80.0" type="line"/>
      <point x="1030.76" y="279.52" type="line"/>
      <point x="50.68" y="279.52" type="line"/>
    </contour>
  </outline>
</glyph>
<glyph name="acute" format="2">
  <advance width="736"/>
  <unicode hex="00B4"/>
  <anchor x="400" y="1120" name="_top"/>
  <outline>
    <contour>
      <point x="627.2" y="1468.8" type="line" smooth="yes" name="n00"/>
      <point x="574.64" y="1468.8"/>
      <point x="549.92" y="1448.96"/>
      <point x="526.36" y="1411.6" type="curve" smooth="yes"/>
      <point x="371.36" y="1166.8" type="line" name="n04"/>
      <point x="523.4" y="1166.8" type="line" smooth="yes"/>
      <point x="560.96" y="1166.8"/>
      <point x="581.92" y="1177.6"/>
      <point x="609.68" y="1206.48" type="curve"/>
      <point x="872.96" y="1468.8" type="line"/>
    </contour>
  </outline>
  <guideline angle="82.9991" x="368" y="0"/>
</glyph>
<glyph name="micro" format="2">
  <advance width="1244"/>
  <unicode hex="00B5"/>
  <anchor x="532.08" y="-421" name="bottom"/>
  <anchor x="641.92" y="1120" name="top"/>
  <outline>
    <contour>
      <point x="206.8" y="1032.8" type="line" name="n00"/>
      <point x="53.36" y="-216" type="line" smooth="yes"/>
      <point x="44.56" y="-290.64"/>
      <point x="83.64" y="-331.84" name="n03"/>
      <point x="160.28" y="-331.84" type="curve" smooth="yes"/>
      <point x="297.24" y="-331.84" type="line"/>
      <point x="324.64" y="-109.68" type="line" smooth="yes"/>
      <point x="334.52" y="-27.36"/>
      <point x="337.6" y="85.2"/>
      <point x="304.88" y="149.92" type="curve"/>
      <point x="379.64" y="193.04" type="line"/>
      <point x="482.48" y="1032.8" type="line"/>
    </contour>
    <contour>
      <point x="247.8" y="429.44" type="line"/>
      <point x="216.16" y="172.8"/>
      <point x="281.36" y="19.2" name="n14"/>
      <point x="472.56" y="19.2" type="curve" smooth="yes"/>
      <point x="605.48" y="19.2"/>
      <point x="707.88" y="123.4"/>
      <point x="799.32" y="296.44" type="curve"/>
      <point x="733.96" y="447.16" type="line"/>
      <point x="690.2" y="321.8"/>
      <point x="619.44" y="245.12"/>
      <point x="517.8" y="245.12" type="curve" smooth="yes"/>
      <point x="431.12" y="245.12"/>
      <point x="394.32" y="318.8"/>
      <point x="408" y="429.44" type="curve"/>
    </contour>
    <contour>
      <point x="702.84" y="328.12" type="line"/>
      <point x="728.48" y="317" type="line"/>
      <point x="702.44" y="92.72"/>
      <point x="804.8" y="-10.64"/>
      <point x="940.24" y="-10.64" type="curve" smooth="yes" name="n30"/>
      <point x="1043.16" y="-10.64"/>
      <point x="1111.6" y="35.72"/>
      <point x="1117.88" y="82.96" type="curve" smooth="yes"/>
      <point x="1131.2" y="193.28" type="line"/>
      <point x="1055.04" y="193.28" type="line" smooth="yes" name="n35"/>
      <point x="997.08" y="193.28"/>
      <point x="967.56" y="232.92"/>
      <point x="977.52" y="316.12" type="curve" smooth="yes"/>
      <point x="1065.48" y="1032.8" type="line"/>
      <point x="789.8" y="1032.8" type="line"/>
    </contour>
  </outline>
  <guideline angle="82.9991" x="536" y="0"/>
</glyph>
<glyph name="paragraph" format="2">
  <advance width="1496.68"/>
  <unicode hex="00B6"/>
  <guideline x="713.52" y="0.0" angle="82.9991"/>
  <outline>
    <contour>
      <point x="861.2" y="1452.8" type="line"/>
      <point x="620.72" y="1452.8" type="line"/>
      <point x="416.16" y="-213.44" type="line"/>
      <point x="656.64" y="-213.44" type="line"/>
    </contour>
    <contour>
      <point x="620.72" y="1452.8" type="line"/>
      <point x="314.88" y="1452.8"/>
      <point x="106.0" y="1236.64"/>
      <point x="106.0" y="983.2" type="curve" smooth="yes"/>
      <point x="106.0" y="771.6"/>
      <point x="267.04" y="615.84"/>
      <point x="519.36" y="615.84" type="curve"/>
      <point x="645.28" y="1219.6" type="line"/>
      <point x="1502.8" y="1219.6" type="line"/>
      <point x="1531.2" y="1452.8" type="line"/>
    </contour>
    <contour>
      <point x="1318.8" y="1452.8" type="line"/>
      <point x="1078.32" y="1452.8" type="line"/>
      <point x="873.76" y="-213.44" type="line"/>
      <point x="1114.24" y="-213.44" type="line"/>
    </contour>
  </outline>
</glyph>
<glyph name="periodcentered" format="2">
  <advance width="563.48"/>
  <unicode hex="00B7"/>
  <unicode hex="2219"/>
  <guideline x="282.0" y="0.0" angle="82.9991"/>
  <outline>
    <contour>
      <point x="72.4" y="595.28" type="curve" smooth="yes"/>
      <point x="72.4" y="482.56"/>
      <point x="163.76" y="391.2"/>
      <point x="276.48" y="391.2" type="curve" smooth="yes"/>
      <point x="391.44" y="391.2"/>
      <point x="482.8" y="482.56"/>
      <point x="482.8" y="595.28" type="curve" smooth="yes"/>
      <point x="482.8" y="710.24"/>
      <point x="391.44" y="801.6"/>
      <point x="276.48" y="801.6" type="curve" smooth="yes"/>
      <point x="163.76" y="801.6"/>
      <point x="72.4" y="710.24"/>
    </contour>
  </outline>
</glyph>
<glyph name="cedilla" format="2">
  <advance width="736"/>
  <unicode hex="00B8"/>
  <anchor x="400" y="-70" name="_bottom"/>
  <outline>
    <contour>
      <point x="229.64" y="-225.6" type="curve" smooth="yes"/>
      <point x="211.56" y="-225.6"/>
      <point x="201.64" y="-234.64"/>
      <point x="195.88" y="-250.96" type="curve"/>
      <point x="160.08" y="-337.68" type="line"/>
      <point x="203.44" y="-350.08"/>
      <point x="244.12" y="-356.24"/>
      <point x="294" y="-356.24" type="curve" smooth="yes" name="n07"/>
      <point x="447.36" y="-356.24"/>
      <point x="556.08" y="-293.16"/>
      <point x="556.08" y="-188.8" type="curve" smooth="yes"/>
      <point x="556.08" y="-120.08"/>
      <point x="507.32" y="-64.28"/>
      <point x="352.52" y="-41.12" type="curve"/>
      <point x="406.4" y="-94.64" type="line"/>
      <point x="456.92" y="40.48" type="line" name="n15"/>
      <point x="303.52" y="40.48" type="line"/>
      <point x="222.36" y="-143.6" type="line"/>
      <point x="306.2" y="-156.36"/>
      <point x="340.48" y="-167.44"/>
      <point x="340.48" y="-197.2" type="curve" smooth="yes"/>
      <point x="340.48" y="-216.92"/>
      <point x="324.8" y="-236.16"/>
      <point x="288.8" y="-236.16" type="curve" smooth="yes" name="n23"/>
      <point x="261.12" y="-236.16"/>
      <point x="247.68" y="-225.6"/>
    </contour>
  </outline>
  <guideline angle="82.9991" x="368" y="0"/>
</glyph>
<glyph name="ordmasculine" format="2">
  <advance width="749"/>
  <unicode hex="00BA"/>
  <anchor x="353.8" y="-70" name="bottom"/>
  <outline>
    <contour>
      <point x="478.76" y="1470.08" type="curve" smooth="yes" name="n00"/>
      <point x="277.64" y="1470.08"/>
      <point x="124.12" y="1330.32"/>
      <point x="124.12" y="1106.72" type="curve" smooth="yes"/>
      <point x="124.12" y="936.08"/>
      <point x="233.32" y="829.52"/>
      <point x="401.48" y="829.52" type="curve" smooth="yes" name="n06"/>
      <point x="602.36" y="829.52"/>
      <point x="752.36" y="970.8"/>
      <point x="752.36" y="1196.16" type="curve" smooth="yes"/>
      <point x="752.36" y="1363.28"/>
      <point x="644.92" y="1470.08"/>
    </contour>
    <contour>
      <point x="421.08" y="986.32" type="curve" smooth="yes"/>
      <point x="359.48" y="986.32"/>
      <point x="330.68" y="1025.52"/>
      <point x="330.68" y="1103.2" type="curve" smooth="yes"/>
      <point x="330.68" y="1228.32"/>
      <point x="354.04" y="1313.28"/>
      <point x="460.92" y="1313.28" type="curve" smooth="yes"/>
      <point x="517" y="1313.28"/>
      <point x="546.04" y="1273.84"/>
      <point x="546.04" y="1196.16" type="curve" smooth="yes"/>
      <point x="546.04" y="1062.24"/>
      <point x="510.12" y="986.32"/>
    </contour>
  </outline>
  <guideline angle="82.9991" x="338" y="0"/>
</glyph>
<glyph name="questiondown" format="2">
  <advance width="853.04"/>
  <unicode hex="00BF"/>
  <guideline x="399.2" y="0.0" angle="82.9991"/>
  <outline>
    <contour>
      <point x="641.32" y="-86.96000000000001" type="line"/>
      <point x="632.28" y="-65.6"/>
      <point x="614.68" y="-54.80000000000001"/>
      <point x="591.32" y="-54.80000000000001" type="curve"/>
      <point x="547.88" y="-54.80000000000001"/>
      <point x="495.64" y="-131.76"/>
      <point x="363.88" y="-131.76" type="curve" smooth="yes"/>
      <point x="301.0" y="-131.76"/>
      <point x="248.84" y="-89.52000000000001"/>
      <point x="248.84" y="-3.3599999999999994" type="curve" smooth="yes"/>
      <point x="248.84" y="179.84"/>
      <point x="543.8" y="213.52"/>
      <point x="546.2" y="400.64" type="curve" smooth="yes"/>
      <point x="548.6" y="564.08" type="line"/>
      <point x="367.4" y="564.08" type="line"/>
      <point x="325.32" y="420.24" type="line"/>
      <point x="283.96" y="283.84000000000003"/>
      <point x="-16.28" y="266.8"/>
      <point x="-16.28" y="-52.879999999999995" type="curve" smooth="yes"/>
      <point x="-16.28" y="-235.28"/>
      <point x="109.24" y="-348.88"/>
      <point x="314.36" y="-348.88" type="curve" smooth="yes"/>
      <point x="476.04" y="-348.88"/>
      <point x="598.6800000000001" y="-280.88"/>
      <point x="698.36" y="-200.56" type="curve"/>
    </contour>
    <component base="period" xOffset="328.36" yOffset="737.6800000000001"/>
  </outline>
</glyph>
<glyph name="multiply" format="2">
  <advance width="1160"/>
  <unicode hex="00D7"/>
  <outline>
    <contour>
      <point x="165.36" y="992.88" type="line"/>
      <point x="864.88" y="195.84" type="line"/>
      <point x="1021.44" y="336.56" type="line"/>
      <point x="322.4" y="1133.84" type="line" name="n03"/>
    </contour>
    <contour>
      <point x="962.64" y="1131.84" type="line"/>
      <point x="67.6" y="334.56" type="line"/>
      <point x="190.48" y="193.84" type="line" name="n06"/>
      <point x="1085.76" y="990.88" type="line"/>
    </contour>
  </outline>
  <guideline angle="82.9991" x="580" y="0"/>
</glyph>
<glyph name="Oslash" format="2">
  <advance width="1512.56"/>
  <unicode hex="00D8"/>
  <guideline x="732.0" y="0.0" angle="82.9991"/>
  <anchor x="877.2" y="1521.52" name="Top"/>
  <anchor x="877.2" y="1521.52" name="top"/>
  <anchor x="630.6800000000001" y="-70.0" name="bottom"/>
  <outline>
    <contour>
      <point x="1523.8" y="1516.8" type="line"/>
      <point x="1376.04" y="1516.8" type="line" smooth="yes"/>
      <point x="1313.24" y="1516.8"/>
      <point x="1293.4" y="1496.96"/>
      <point x="1248.44" y="1444.96" type="curve"/>
      <point x="21.64" y="-112.56" type="line"/>
      <point x="135.72" y="-112.56" type="line" smooth="yes"/>
      <point x="189.48000000000002" y="-112.56"/>
      <point x="253.8" y="-90.96"/>
      <point x="302.28" y="-33.68" type="curve"/>
    </contour>
    <contour>
      <point x="1466.68" y="821.04" type="curve" smooth="yes"/>
      <point x="1466.68" y="1185.28"/>
      <point x="1236.52" y="1468.8"/>
      <point x="862.44" y="1468.8" type="curve" smooth="yes"/>
      <point x="409.08" y="1468.8"/>
      <point x="73.64" y="1106.08"/>
      <point x="73.64" y="630.0" type="curve" smooth="yes"/>
      <point x="73.64" y="265.76"/>
      <point x="303.8" y="-15.76"/>
      <point x="679.4" y="-15.76" type="curve" smooth="yes"/>
      <point x="1131.72" y="-15.76"/>
      <point x="1466.68" y="346.48"/>
    </contour>
    <contour>
      <point x="1169.6399999999999" y="814.0" type="curve" smooth="yes"/>
      <point x="1169.6399999999999" y="459.84000000000003"/>
      <point x="991.0" y="226.0"/>
      <point x="711.32" y="226.0" type="curve" smooth="yes"/>
      <point x="494.52" y="226.0"/>
      <point x="370.44" y="388.4"/>
      <point x="370.44" y="637.28" type="curve"/>
      <point x="370.44" y="991.2"/>
      <point x="548.28" y="1227.04"/>
      <point x="827.0" y="1227.04" type="curve" smooth="yes"/>
      <point x="1042.52" y="1227.04"/>
      <point x="1169.6399999999999" y="1062.88"/>
    </contour>
  </outline>
</glyph>
<glyph name="germandbls" format="2">
  <advance width="1239"/>
  <unicode hex="00DF"/>
  <anchor x="748.92" y="1521.52" name="Top"/>
  <anchor x="529.12" y="-421" name="bottom"/>
  <anchor x="748.92" y="1521.52" name="top"/>
  <outline>
    <contour>
      <point x="794.32" y="1477.36" type="curve" smooth="yes" name="n00"/>
      <point x="478.72" y="1477.36"/>
      <point x="253.52" y="1177.36"/>
      <point x="217.76" y="894" type="curve"/>
      <point x="78.8" y="-246.72" type="line" name="n04"/>
      <point x="190.16" y="-246.72" type="line" smooth="yes"/>
      <point x="269.84" y="-246.72"/>
      <point x="309.28" y="-204.24"/>
      <point x="332.4" y="-132.64" type="curve"/>
      <point x="384.48" y="46.96" type="line"/>
      <point x="486.4" y="885.2" type="line" smooth="yes"/>
      <point x="509.84" y="1083.52"/>
      <point x="601.52" y="1283.12"/>
      <point x="758.64" y="1283.12" type="curve" smooth="yes" name="n13"/>
      <point x="868.96" y="1283.12"/>
      <point x="916.4" y="1224.56"/>
      <point x="916.4" y="1149.84" type="curve" smooth="yes"/>
      <point x="916.4" y="956.8"/>
      <point x="612.32" y="964.72"/>
      <point x="612.32" y="688.32" type="curve" smooth="yes"/>
      <point x="612.32" y="454.4"/>
      <point x="907.12" y="461.68"/>
      <point x="907.12" y="307.76" type="curve" smooth="yes"/>
      <point x="907.12" y="229.76"/>
      <point x="850.96" y="171.2"/>
      <point x="787.44" y="171.2" type="curve" smooth="yes" name="n25"/>
      <point x="690.64" y="171.2"/>
      <point x="663.76" y="251.28"/>
      <point x="601.52" y="251.28" type="curve" smooth="yes"/>
      <point x="569.12" y="251.28"/>
      <point x="546" y="236.96"/>
      <point x="529.68" y="213.6" type="curve" smooth="yes"/>
      <point x="455.04" y="110.8" type="line"/>
      <point x="520.8" y="38.8"/>
      <point x="630.8" y="-16"/>
      <point x="741.44" y="-16" type="curve" smooth="yes" name="n35"/>
      <point x="955.76" y="-16"/>
      <point x="1161.44" y="117.92"/>
      <point x="1161.44" y="380.4" type="curve" smooth="yes"/>
      <point x="1161.44" y="637.6"/>
      <point x="898.32" y="657.44"/>
      <point x="898.32" y="767.76" type="curve" smooth="yes"/>
      <point x="898.32" y="892.88"/>
      <point x="1174" y="896"/>
      <point x="1174" y="1157.6" type="curve" smooth="yes"/>
      <point x="1174" y="1286.4"/>
      <point x="1079.28" y="1477.36"/>
    </contour>
    <contour>
      <point x="390.64" y="833.52" type="line" name="n47"/>
      <point x="415.52" y="1024.24" type="line" name="n48"/>
      <point x="78.64" y="1024.24" type="line"/>
      <point x="66.32" y="914.16" type="line"/>
      <point x="60.8" y="874.96"/>
      <point x="85.92" y="856.88"/>
      <point x="125.6" y="848.08" type="curve" smooth="yes"/>
      <point x="239.36" y="824.72" type="line"/>
      <point x="276" y="833.52" type="line"/>
    </contour>
  </outline>
  <guideline angle="82.9991" x="480" y="0"/>
</glyph>
<glyph name="ae" format="2">
  <advance width="1498"/>
  <unicode hex="00E6"/>
  <anchor x="654.96" y="-70" name="bottom"/>
  <anchor x="834.08" y="1120" name="top"/>
  <outline>
    <contour>
      <point x="1110.08" y="1047.04" type="curve" smooth="yes" name="n00"/>
      <point x="802.8" y="1047.04"/>
      <point x="619.44" y="775.12"/>
      <point x="619.44" y="433.68" type="curve" smooth="yes"/>
      <point x="619.44" y="125.12"/>
      <point x="783.76" y="-15.52" name="n05"/>
      <point x="974.24" y="-15.52" type="curve" smooth="yes"/>
      <point x="1165.28" y="-15.52"/>
      <point x="1289.48" y="48"/>
      <point x="1432.48" y="190.8" type="curve"/>
      <point x="1361.84" y="277.28" type="line"/>
      <point x="1349.04" y="291.84"/>
      <point x="1331.2" y="302.4"/>
      <point x="1313.12" y="302.4" type="curve" smooth="yes"/>
      <point x="1228.68" y="302.4"/>
      <point x="1200.72" y="199.84"/>
      <point x="1029.04" y="199.84" type="curve" smooth="yes"/>
      <point x="905.84" y="199.84"/>
      <point x="834.56" y="277.44"/>
      <point x="834.56" y="455.28" type="curve" smooth="yes"/>
      <point x="834.56" y="689.44"/>
      <point x="908.08" y="854.32"/>
      <point x="1074.88" y="854.32" type="curve" smooth="yes" name="n22"/>
      <point x="1147.84" y="854.32"/>
      <point x="1179.28" y="813.2"/>
      <point x="1179.28" y="761.04" type="curve" smooth="yes"/>
      <point x="1179.28" y="689.68"/>
      <point x="1121.84" y="625.92"/>
      <point x="817.92" y="603.6" type="curve"/>
      <point x="782.24" y="446.56" type="line"/>
      <point x="1310.88" y="450.08"/>
      <point x="1419.52" y="624.16"/>
      <point x="1419.52" y="775.12" type="curve" smooth="yes"/>
      <point x="1419.52" y="923.28"/>
      <point x="1284.8" y="1047.04"/>
    </contour>
    <contour>
      <point x="757.44" y="421.04" type="line"/>
      <point x="802" y="648" type="line"/>
      <point x="831.52" y="883.36"/>
      <point x="758.24" y="1050.56"/>
      <point x="518.64" y="1050.56" type="curve" smooth="yes"/>
      <point x="371.76" y="1050.56"/>
      <point x="244.08" y="996.56"/>
      <point x="119.44" y="887.52" type="curve"/>
      <point x="156.64" y="800.8" type="line"/>
      <point x="169.44" y="773.92"/>
      <point x="192.56" y="752.56"/>
      <point x="228.24" y="752.56" type="curve" smooth="yes"/>
      <point x="311.6" y="752.56"/>
      <point x="349.52" y="836.72"/>
      <point x="488.48" y="836.72" type="curve" smooth="yes"/>
      <point x="578.32" y="836.72"/>
      <point x="621.44" y="778.32"/>
      <point x="606" y="648" type="curve"/>
      <point x="577.28" y="421.04" type="line"/>
    </contour>
    <contour>
      <point x="577.28" y="421.04" type="line"/>
      <point x="554.56" y="239.28"/>
      <point x="464.48" y="167.68"/>
      <point x="354.64" y="167.68" type="curve" smooth="yes" name="n57"/>
      <point x="290.72" y="167.68"/>
      <point x="253.76" y="201.52"/>
      <point x="253.76" y="268.08" type="curve" smooth="yes"/>
      <point x="253.76" y="367.52"/>
      <point x="324.8" y="446.64"/>
      <point x="618.88" y="453.36" type="curve" name="n63"/>
      <point x="605.04" y="615.92" type="line" name="n64"/>
      <point x="132.08" y="604.16"/>
      <point x="-2.56" y="409.2"/>
      <point x="-2.56" y="234.16" type="curve" smooth="yes"/>
      <point x="-2.56" y="75.68"/>
      <point x="97.92" y="-16"/>
      <point x="303.36" y="-16" type="curve" smooth="yes" name="n70"/>
      <point x="497.44" y="-16"/>
      <point x="719.68" y="107.68"/>
      <point x="757.44" y="421.04" type="curve"/>
    </contour>
  </outline>
  <guideline angle="82.9991" x="707" y="0"/>
</glyph>
<glyph name="eth" format="2">
  <advance width="1068.84"/>
  <unicode hex="00F0"/>
  <guideline y="1406.88"/>
  <guideline x="527.76" y="0.0" angle="82.9991"/>
  <anchor x="712.88" y="1521.52" name="Top"/>
  <anchor x="712.88" y="1521.52" name="top"/>
  <anchor x="443.08" y="-70.0" name="bottom"/>
  <outline>
    <contour>
      <point x="397.52" y="1437.12" type="curve"/>
      <point x="356.8" y="1351.8" type="line"/>
      <point x="331.92" y="1300.56"/>
      <point x="338.68" y="1261.48"/>
      <point x="397.72" y="1242.0" type="curve"/>
      <point x="745.28" y="1131.4"/>
      <point x="828.96" y="951.2"/>
      <point x="786.48" y="601.76" type="curve"/>
      <point x="749.28" y="597.52" type="line"/>
      <point x="711.04" y="286.64"/>
      <point x="596.24" y="189.52"/>
      <point x="470.0" y="189.52" type="curve" smooth="yes"/>
      <point x="368.4" y="189.52"/>
      <point x="295.76" y="273.44"/>
      <point x="295.76" y="420.72" type="curve" smooth="yes"/>
      <point x="295.76" y="595.12"/>
      <point x="391.44" y="728.8"/>
      <point x="547.52" y="728.8" type="curve" smooth="yes"/>
      <point x="677.28" y="728.8"/>
      <point x="733.04" y="634.56"/>
      <point x="754.3199999999999" y="524.56" type="curve"/>
      <point x="877.44" y="586.64" type="line"/>
      <point x="832.8" y="805.92"/>
      <point x="716.4" y="933.6"/>
      <point x="517.84" y="933.6" type="curve" smooth="yes"/>
      <point x="241.12" y="933.6"/>
      <point x="32.4" y="693.12"/>
      <point x="32.4" y="408.16" type="curve" smooth="yes"/>
      <point x="32.4" y="145.76"/>
      <point x="199.04" y="-15.280000000000001"/>
      <point x="438.08" y="-15.280000000000001" type="curve" smooth="yes"/>
      <point x="797.52" y="-15.280000000000001"/>
      <point x="1008.08" y="268.0"/>
      <point x="1008.08" y="727.04" type="curve" smooth="yes"/>
      <point x="1008.08" y="1154.24"/>
      <point x="741.28" y="1377.28"/>
    </contour>
    <contour>
      <point x="454.8" y="968.8" type="line"/>
      <point x="711.36" y="1126.16" type="line"/>
      <point x="732.96" y="1114.32" type="line"/>
      <point x="952.04" y="1246.76" type="line" smooth="yes"/>
      <point x="985.2" y="1265.84"/>
      <point x="985.08" y="1296.72"/>
      <point x="972.4" y="1320.84" type="curve"/>
      <point x="927.92" y="1409.44" type="line"/>
      <point x="662.88" y="1251.28" type="line"/>
      <point x="644.8" y="1263.12" type="line"/>
      <point x="420.76" y="1125.96" type="line" smooth="yes"/>
      <point x="399.92" y="1113.04"/>
      <point x="389.72" y="1084.92"/>
      <point x="404.92" y="1058.28" type="curve" smooth="yes"/>
    </contour>
  </outline>
</glyph>
<glyph name="divide" format="2">
  <advance width="1160"/>
  <unicode hex="00F7"/>
  <outline>
    <contour>
      <point x="83.76" y="572" type="line" name="n00"/>
      <point x="1063.84" y="572" type="line"/>
      <point x="1088.72" y="771.52" type="line"/>
      <point x="108.64" y="771.52" type="line" name="n03"/>
    </contour>
    <contour>
      <point x="469.2" y="1008.96" type="curve" smooth="yes"/>
      <point x="469.2" y="929.68"/>
      <point x="526.4" y="868.48"/>
      <point x="609.68" y="868.48" type="curve" smooth="yes" name="n07"/>
      <point x="704" y="868.48"/>
      <point x="789.28" y="944.24"/>
      <point x="789.28" y="1044.08" type="curve" smooth="yes"/>
      <point x="789.28" y="1123.6"/>
      <point x="730.08" y="1186.8"/>
      <point x="648.56" y="1186.8" type="curve" smooth="yes" name="n13"/>
      <point x="550.72" y="1186.8"/>
      <point x="469.2" y="1107.04"/>
    </contour>
    <contour>
      <point x="381.2" y="296.96" type="curve" smooth="yes"/>
      <point x="381.2" y="217.68"/>
      <point x="438.64" y="156.48"/>
      <point x="521.68" y="156.48" type="curve" smooth="yes" name="n19"/>
      <point x="616.24" y="156.48"/>
      <point x="701.28" y="232.24"/>
      <point x="701.28" y="332.08" type="curve" smooth="yes"/>
      <point x="701.28" y="411.6"/>
      <point x="642.08" y="474.8"/>
      <point x="560.56" y="474.8" type="curve" smooth="yes" name="n25"/>
      <point x="462.72" y="474.8"/>
      <point x="381.2" y="395.04"/>
    </contour>
  </outline>
  <guideline angle="82.9991" x="580" y="0"/>
</glyph>
<glyph name="oslash" format="2">
  <advance width="1049"/>
  <unicode hex="00F8"/>
  <anchor x="406.16" y="-70" name="bottom"/>
  <anchor x="609.08" y="1120" name="top"/>
  <outline>
    <contour>
      <point x="863.2" y="857.36" type="line"/>
      <point x="889.6" y="857.36" type="line"/>
      <point x="1050.88" y="1079.52" type="line" name="n02"/>
      <point x="915.2" y="1079.52" type="line" smooth="yes"/>
      <point x="850.64" y="1079.52"/>
      <point x="830.8" y="1059.68"/>
      <point x="791.36" y="1005.92" type="curve" smooth="yes"/>
      <point x="689.84" y="865.12" type="line"/>
      <point x="661.68" y="865.12" type="line"/>
      <point x="160.96" y="173.2" type="line"/>
      <point x="134.56" y="173.2" type="line"/>
      <point x="-24.88" y="-45.84" type="line" name="n11"/>
      <point x="75.36" y="-45.84" type="line" smooth="yes"/>
      <point x="132.64" y="-45.84"/>
      <point x="196.96" y="-24.24"/>
      <point x="239.92" y="34.8" type="curve" smooth="yes"/>
      <point x="338.08" y="171.2" type="line"/>
      <point x="364.48" y="171.2" type="line"/>
    </contour>
    <contour>
      <point x="464.56" y="180.48" type="curve" smooth="yes" name="n18"/>
      <point x="360.32" y="180.48"/>
      <point x="294.88" y="266.4"/>
      <point x="294.88" y="421.2" type="curve" smooth="yes"/>
      <point x="294.88" y="682.48"/>
      <point x="407.76" y="852.8"/>
      <point x="560.88" y="852.8" type="curve" smooth="yes" name="n24"/>
      <point x="664.88" y="852.8"/>
      <point x="730.56" y="768.64"/>
      <point x="730.56" y="612.08" type="curve" smooth="yes"/>
      <point x="730.56" y="353.04"/>
      <point x="617.68" y="180.48"/>
    </contour>
    <contour>
      <point x="439.68" y="-15.52" type="curve" smooth="yes" name="n30"/>
      <point x="736" y="-15.52"/>
      <point x="988.64" y="255.04"/>
      <point x="988.64" y="613.84" type="curve" smooth="yes"/>
      <point x="988.64" y="892.8"/>
      <point x="814.88" y="1048.8"/>
      <point x="585.76" y="1048.8" type="curve" smooth="yes" name="n36"/>
      <point x="289.44" y="1048.8"/>
      <point x="36.8" y="782"/>
      <point x="36.8" y="419.44" type="curve" smooth="yes"/>
      <point x="36.8" y="140.24"/>
      <point x="210.56" y="-15.52"/>
    </contour>
  </outline>
  <guideline angle="82.9991" x="486" y="0"/>
</glyph>
<glyph name="thorn" format="2">
  <advance width="1086"/>
  <unicode hex="00FE"/>
  <anchor x="406.6" y="1521.52" name="Top"/>
  <anchor x="366.28" y="-421" name="bottom"/>
  <anchor x="406.6" y="1521.52" name="top"/>
  <outline>
    <contour>
      <point x="163.44" y="-331.84" type="line" smooth="yes" name="n00"/>
      <point x="224.24" y="-331.84"/>
      <point x="265.44" y="-287.12"/>
      <point x="270.96" y="-239.92" type="curve" smooth="yes"/>
      <point x="485.44" y="1492.8" type="line" name="n04"/>
      <point x="213.52" y="1492.8" type="line"/>
      <point x="-8.24" y="-331.84" type="line"/>
    </contour>
    <contour>
      <point x="258.08" y="134.24" type="line"/>
      <point x="311.84" y="46.48"/>
      <point x="402.96" y="-15.52"/>
      <point x="524.72" y="-15.52" type="curve" smooth="yes" name="n10"/>
      <point x="794.56" y="-15.52"/>
      <point x="1027.36" y="303.36"/>
      <point x="1027.36" y="659.76" type="curve" smooth="yes"/>
      <point x="1027.36" y="929.2"/>
      <point x="912.16" y="1048.56"/>
      <point x="741.68" y="1048.56" type="curve" smooth="yes" name="n16"/>
      <point x="530.32" y="1048.56"/>
      <point x="347.6" y="836.32"/>
      <point x="251.12" y="549.12" type="curve"/>
      <point x="343.36" y="423.04" type="line"/>
      <point x="392" y="642.24"/>
      <point x="522.96" y="829.68"/>
      <point x="632.56" y="829.68" type="curve" smooth="yes" name="n23"/>
      <point x="707.12" y="829.68"/>
      <point x="753.68" y="767.52"/>
      <point x="753.68" y="631.6" type="curve" smooth="yes"/>
      <point x="753.68" y="417.2"/>
      <point x="642.24" y="196.32"/>
      <point x="480.96" y="196.32" type="curve" smooth="yes" name="n29"/>
      <point x="416.24" y="196.32"/>
      <point x="339.92" y="220.4"/>
      <point x="299.04" y="289.44" type="curve"/>
    </contour>
  </outline>
  <guideline angle="82.9991" x="496" y="0"/>
</glyph>
<glyph name="Dcroat" format="2">
  <advance width="1432"/>
  <unicode hex="0110"/>
  <anchor x="738.08" y="1521.52" name="Top"/>
  <anchor x="537.84" y="-70" name="bottom"/>
  <anchor x="738.08" y="1521.52" name="top"/>
  <outline>
    <contour>
      <point x="1384.08" y="820.8" type="curve" smooth="yes"/>
      <point x="1384.08" y="1183.28"/>
      <point x="1153.92" y="1452.8"/>
      <point x="778.08" y="1452.8" type="curve" smooth="yes" name="n03"/>
      <point x="261.76" y="1452.8" type="line"/>
      <point x="84.48" y="0" type="line"/>
      <point x="600.8" y="0" type="line" smooth="yes" name="n06"/>
      <point x="1053.12" y="0"/>
      <point x="1384.08" y="344.48"/>
    </contour>
    <contour>
      <point x="1087.04" y="813.76" type="curve" smooth="yes"/>
      <point x="1087.04" y="456.08"/>
      <point x="908.88" y="232.96"/>
      <point x="629.2" y="232.96" type="curve" smooth="yes" name="n12"/>
      <point x="404.4" y="232.96" type="line"/>
      <point x="524.64" y="1219.84" type="line"/>
      <point x="749.68" y="1219.84" type="line" smooth="yes" name="n15"/>
      <point x="965.2" y="1219.84"/>
      <point x="1087.04" y="1060.64"/>
    </contour>
    <contour>
      <point x="5.76" y="645.68" type="line" name="n18"/>
      <point x="776.32" y="645.68" type="line"/>
      <point x="795.92" y="811.76" type="line"/>
      <point x="27.12" y="811.76" type="line" name="n21"/>
    </contour>
  </outline>
  <guideline angle="82.9991" x="723" y="0"/>
</glyph>
<glyph name="dcroat" format="2">
  <advance width="1087.44"/>
  <unicode hex="0111"/>
  <guideline x="541.28" y="0.0" angle="82.9991"/>
  <anchor x="902.64" y="1521.52" name="Top"/>
  <anchor x="902.64" y="1521.52" name="top"/>
  <anchor x="486.92" y="-70.0" name="bottom"/>
  <outline>
    <contour>
      <point x="579.48" y="1222.72" type="line"/>
      <point x="568.68" y="1155.36"/>
      <point x="593.32" y="1127.76"/>
      <point x="665.16" y="1127.76" type="curve" smooth="yes"/>
      <point x="1168.52" y="1127.76" type="line"/>
      <point x="1188.12" y="1293.84" type="line"/>
      <point x="590.28" y="1293.84" type="line"/>
    </contour>
    <contour>
      <point x="904.92" y="0.0" type="line"/>
      <point x="1089.72" y="1492.8" type="line"/>
      <point x="819.56" y="1492.8" type="line"/>
      <point x="665.88" y="255.6" type="line"/>
      <point x="674.68" y="237.84" type="line"/>
      <point x="668.68" y="91.44" type="line"/>
      <point x="668.68" y="39.68"/>
      <point x="688.28" y="0.0"/>
      <point x="758.12" y="0.0" type="curve" smooth="yes"/>
    </contour>
    <contour>
      <point x="804.36" y="865.6" type="line"/>
      <point x="750.6" y="953.36"/>
      <point x="659.48" y="1015.12"/>
      <point x="537.72" y="1015.12" type="curve" smooth="yes"/>
      <point x="267.88" y="1015.12"/>
      <point x="35.08" y="729.92"/>
      <point x="35.08" y="373.52" type="curve" smooth="yes"/>
      <point x="35.08" y="104.08"/>
      <point x="150.28" y="-15.52"/>
      <point x="320.76" y="-15.52" type="curve" smooth="yes"/>
      <point x="532.12" y="-15.52"/>
      <point x="714.84" y="196.96"/>
      <point x="811.32" y="484.16" type="curve"/>
      <point x="719.08" y="610.24" type="line"/>
      <point x="670.44" y="391.03999999999996"/>
      <point x="539.48" y="203.36"/>
      <point x="429.88" y="203.36" type="curve" smooth="yes"/>
      <point x="355.32" y="203.36"/>
      <point x="308.76" y="265.76"/>
      <point x="308.76" y="401.68" type="curve" smooth="yes"/>
      <point x="308.76" y="616.08"/>
      <point x="420.2" y="803.28"/>
      <point x="581.48" y="803.28" type="curve" smooth="yes"/>
      <point x="646.2" y="803.28"/>
      <point x="722.52" y="779.44"/>
      <point x="763.4" y="710.4" type="curve"/>
    </contour>
  </outline>
</glyph>
<glyph name="hcircumflex" format="2">
  <advance width="1091.48"/>
  <unicode hex="0125"/>
  <guideline x="547.76" y="0.0" angle="82.9991"/>
  <anchor x="407.48" y="1521.52" name="Top"/>
  <anchor x="407.48" y="1521.52" name="top"/>
  <anchor x="469.96" y="-70.0" name="bottom"/>
  <anchor x="560.88" y="724.64" name="Slash"/>
  <outline>
    <contour>
      <point x="2.3599999999999994" y="1550.32" type="line"/>
      <point x="201.88" y="1550.32" type="line" smooth="yes"/>
      <point x="223.72" y="1550.32"/>
      <point x="251.08" y="1557.6"/>
      <point x="267.64" y="1567.12" type="curve"/>
      <point x="351.48" y="1625.04" type="line"/>
      <point x="410.52" y="1662.96"/>
      <point x="458.28" y="1728.56"/>
      <point x="463.56" y="1772.0" type="curve"/>
      <point x="252.68" y="1772.0" type="line"/>
    </contour>
    <contour>
      <point x="518.6" y="1772.0" type="line"/>
      <point x="307.72" y="1772.0" type="line"/>
      <point x="302.2" y="1728.56"/>
      <point x="333.88" y="1664.72"/>
      <point x="384.12" y="1625.04" type="curve" smooth="yes"/>
      <point x="452.6" y="1567.12" type="line"/>
      <point x="468.92" y="1559.36"/>
      <point x="494.52" y="1550.32"/>
      <point x="514.36" y="1550.32" type="curve" smooth="yes"/>
      <point x="715.64" y="1550.32" type="line"/>
    </contour>
    <component base="h"/>
  </outline>
</glyph>
<glyph name="Hbar" format="2">
  <advance width="1461"/>
  <unicode hex="0126"/>
  <anchor x="834.88" y="1521.52" name="Top"/>
  <anchor x="647.04" y="-70" name="bottom"/>
  <anchor x="-24.96" y="1120" name="onRight"/>
  <anchor x="834.88" y="1521.52" name="top"/>
  <outline>
    <component base="H" xOffset="11.72"/>
    <contour>
      <point x="77.24" y="1034.96" type="line" name="n00"/>
      <point x="1495.16" y="1034.96" type="line"/>
      <point x="1514.76" y="1206.08" type="line"/>
      <point x="96.84" y="1206.08" type="line" name="n03"/>
    </contour>
  </outline>
  <guideline angle="82.9991" x="714" y="0"/>
</glyph>
<glyph name="hbar" format="2">
  <advance width="1091.48"/>
  <unicode hex="0127"/>
  <guideline x="547.76" y="0.0" angle="82.9991"/>
  <anchor x="392.52" y="1521.52" name="Top"/>
  <anchor x="392.52" y="1521.52" name="top"/>
  <anchor x="469.96" y="-70.0" name="bottom"/>
  <outline>
    <contour>
      <point x="29.799999999999997" y="1126.0" type="line"/>
      <point x="615.24" y="1126.0" type="line" smooth="yes"/>
      <point x="664.2" y="1126.0"/>
      <point x="694.84" y="1152.88"/>
      <point x="702.12" y="1197.84" type="curve" smooth="yes"/>
      <point x="716.44" y="1297.36" type="line"/>
      <point x="52.92" y="1297.36" type="line"/>
    </contour>
    <contour>
      <point x="307.8" y="0.0" type="line"/>
      <point x="488.84000000000003" y="1492.8" type="line"/>
      <point x="213.4" y="1492.8" type="line"/>
      <point x="32.36" y="0.0" type="line"/>
    </contour>
    <contour>
      <point x="919.08" y="0.0" type="line"/>
      <point x="993.08" y="620.96" type="line"/>
      <point x="717.64" y="620.96" type="line"/>
      <point x="643.64" y="0.0" type="line"/>
    </contour>
    <contour>
      <point x="993.08" y="620.96" type="line"/>
      <point x="1024.6" y="872.32"/>
      <point x="912.04" y="1013.36"/>
      <point x="738.28" y="1013.36" type="curve" smooth="yes"/>
      <point x="552.76" y="1013.36"/>
      <point x="371.32" y="871.84"/>
      <point x="260.52" y="570.96" type="curve"/>
      <point x="352.52" y="437.84000000000003" type="line"/>
      <point x="396.36" y="646.16"/>
      <point x="527.56" y="787.44"/>
      <point x="632.44" y="787.44" type="curve" smooth="yes"/>
      <point x="705.72" y="787.44"/>
      <point x="733.08" y="742.16"/>
      <point x="717.64" y="620.96" type="curve"/>
    </contour>
  </outline>
</glyph>
<glyph name="idotless" format="2">
  <advance width="502.76"/>
  <unicode hex="0131"/>
  <guideline x="263.16" y="0.0" angle="82.9991"/>
  <anchor x="304.0" y="1120.0" name="top"/>
  <anchor x="171.8" y="-70.0" name="bottom"/>
  <outline>
    <contour>
      <point x="165.12" y="1032.8" type="line"/>
      <point x="41.599999999999994" y="0.0" type="line"/>
      <point x="313.52" y="0.0" type="line"/>
      <point x="437.03999999999996" y="1032.8" type="line"/>
    </contour>
  </outline>
</glyph>
<glyph name="kgreenlandic" format="2">
  <advance width="1022"/>
  <unicode hex="0138"/>
  <anchor x="450.52" y="-70" name="bottom"/>
  <anchor x="565.28" y="1120" name="top"/>
  <outline>
    <contour>
      <point x="158.52" y="1032.8" type="line" name="n00"/>
      <point x="31.24" y="0" type="line" name="n01"/>
      <point x="303.16" y="0" type="line"/>
      <point x="430.44" y="1032.8" type="line"/>
    </contour>
    <contour>
      <point x="287" y="648.64" type="line"/>
      <point x="314.92" y="463.44" type="line"/>
      <point x="392.6" y="463.44" type="line" smooth="yes"/>
      <point x="430.36" y="463.44"/>
      <point x="442.6" y="457.44"/>
      <point x="457.08" y="424.88" type="curve" smooth="yes"/>
      <point x="632.6" y="48.96" type="line"/>
      <point x="646.12" y="12.56"/>
      <point x="673.24" y="0"/>
      <point x="713.16" y="0" type="curve" smooth="yes"/>
      <point x="950.92" y="0" type="line"/>
      <point x="717.96" y="496.96" type="line"/>
      <point x="682.84" y="576.32"/>
      <point x="640.44" y="625.52"/>
      <point x="518.2" y="625.52" type="curve"/>
      <point x="508.92" y="541.6" type="line"/>
      <point x="609.08" y="541.6"/>
      <point x="686.2" y="581.04"/>
      <point x="746.68" y="658.64" type="curve"/>
      <point x="1057.8" y="1032.8" type="line"/>
      <point x="813" y="1032.8" type="line" smooth="yes"/>
      <point x="772.36" y="1032.8"/>
      <point x="746.52" y="1016.24"/>
      <point x="722.44" y="985.12" type="curve"/>
      <point x="476.76" y="684.24" type="line" smooth="yes"/>
      <point x="454.76" y="657.2"/>
      <point x="437" y="648.64"/>
      <point x="405.88" y="648.64" type="curve" smooth="yes"/>
    </contour>
  </outline>
  <guideline angle="82.9991" x="413" y="0"/>
</glyph>
<glyph name="Lcaron" format="2">
  <advance width="973"/>
  <unicode hex="013D"/>
  <anchor x="298.68" y="724.64" name="Bar"/>
  <anchor x="412.28" y="1521.52" name="Top"/>
  <anchor x="434.24" y="-70" name="bottom"/>
  <anchor x="412.28" y="1521.52" name="top"/>
  <outline>
    <component base="L"/>
    <contour>
      <point x="731.08" y="1493.04" type="line" name="n00"/>
      <point x="628.44" y="1140.88" type="line" name="n01"/>
      <point x="722.44" y="1140.88" type="line" smooth="yes"/>
      <point x="767.64" y="1140.88"/>
      <point x="796.04" y="1146.88"/>
      <point x="819.4" y="1188.32" type="curve" smooth="yes"/>
      <point x="940.28" y="1407.92"/>
      <point x="948.44" y="1436.72"/>
      <point x="948.44" y="1461.2" type="curve" smooth="yes"/>
      <point x="948.44" y="1474.96"/>
      <point x="942.68" y="1493.04"/>
      <point x="910.04" y="1493.04" type="curve" smooth="yes"/>
    </contour>
  </outline>
  <guideline angle="82.9991" x="468" y="0"/>
</glyph>
<glyph name="Lslash" format="2">
  <advance width="1011.8"/>
  <unicode hex="0141"/>
  <guideline x="511.16" y="0.0" angle="82.9991"/>
  <anchor x="451.52" y="1521.52" name="Top"/>
  <anchor x="451.52" y="1521.52" name="top"/>
  <anchor x="473.48" y="-70.0" name="bottom"/>
  <anchor x="337.92" y="724.64" name="Bar"/>
  <outline>
    <contour>
      <point x="-13.439999999999998" y="430.8" type="line"/>
      <point x="351.68" y="609.92" type="line"/>
      <point x="357.44" y="595.84" type="line"/>
      <point x="765.04" y="810.72" type="line"/>
      <point x="787.6" y="820.24"/>
      <point x="801.6800000000001" y="840.32"/>
      <point x="805.44" y="867.68" type="curve"/>
      <point x="830.08" y="1065.52" type="line"/>
      <point x="386.08" y="839.6" type="line"/>
      <point x="383.84000000000003" y="855.44" type="line"/>
      <point x="48.32" y="684.08" type="line"/>
      <point x="26.0" y="674.56"/>
      <point x="13.2" y="656.48"/>
      <point x="11.439999999999998" y="632.4" type="curve"/>
    </contour>
    <component base="L" xOffset="39.239999999999995"/>
  </outline>
</glyph>
<glyph name="lslash" format="2">
  <advance width="623"/>
  <unicode hex="0142"/>
  <anchor x="425.16" y="1521.52" name="Top"/>
  <anchor x="336.32" y="749.28" name="bar"/>
  <anchor x="230" y="-70" name="bottom"/>
  <anchor x="388.28" y="197.76" name="hook"/>
  <anchor x="425.16" y="1521.52" name="top"/>
  <outline>
    <component base="l" xScale="1" xOffset="73.4"/>
    <contour>
      <point x="41.12" y="576.08" type="line" name="n00"/>
      <point x="333.28" y="692.88" type="line"/>
      <point x="340.8" y="677.04" type="line"/>
      <point x="594.56" y="784.32" type="line"/>
      <point x="618.88" y="793.84"/>
      <point x="631.2" y="813.92"/>
      <point x="631.2" y="843.04" type="curve" smooth="yes"/>
      <point x="631.2" y="1003.92" type="line" name="n07"/>
      <point x="340.8" y="887.36" type="line"/>
      <point x="335.04" y="903.2" type="line"/>
      <point x="74.24" y="793.92" type="line" smooth="yes"/>
      <point x="51.92" y="784.4"/>
      <point x="41.12" y="766.32"/>
      <point x="41.12" y="742.24" type="curve" smooth="yes"/>
    </contour>
  </outline>
  <guideline angle="82.9991" x="264" y="0"/>
</glyph>
<glyph name="Eng" format="2">
  <advance width="1440"/>
  <unicode hex="014A"/>
  <anchor x="807.2" y="1521.28" name="Top"/>
  <anchor x="597" y="-421" name="bottom"/>
  <anchor x="807.2" y="1521.28" name="top"/>
  <outline>
    <contour>
      <point x="1062.56" y="425.68" type="line"/>
      <point x="488.6" y="1404.32" type="line"/>
      <point x="462.72" y="1444.64"/>
      <point x="447.28" y="1451.92" name="n03"/>
      <point x="397.28" y="1451.92" type="curve" smooth="yes"/>
      <point x="245.84" y="1451.92" type="line"/>
      <point x="67.68" y="0" type="line" name="n06"/>
      <point x="322.64" y="0" type="line"/>
      <point x="426.04" y="845.2" type="line" smooth="yes"/>
      <point x="435.96" y="925.44"/>
      <point x="441.24" y="1040.24"/>
      <point x="432.44" y="1120.48" type="curve"/>
      <point x="404.84" y="1026.24" type="line"/>
      <point x="976.16" y="50.12" type="line"/>
      <point x="1000.28" y="13.56"/>
      <point x="1026.04" y="0"/>
      <point x="1070.64" y="0" type="curve"/>
      <point x="1230.76" y="73.92" type="line"/>
      <point x="1399.24" y="1451.92" type="line"/>
      <point x="1144.28" y="1451.92" type="line"/>
      <point x="1041.88" y="615.76" type="line" smooth="yes"/>
      <point x="1031.08" y="526.96"/>
      <point x="1027.56" y="403.6"/>
      <point x="1035.48" y="315.68" type="curve"/>
    </contour>
    <contour>
      <point x="1260.4" y="315.08" type="line"/>
      <point x="1003.56" y="315.08" type="line"/>
      <point x="967.68" y="18.88" type="line" smooth="yes"/>
      <point x="952.72" y="-102.04"/>
      <point x="904.68" y="-158.72"/>
      <point x="819.8" y="-158.72" type="curve" smooth="yes"/>
      <point x="784.32" y="-158.72"/>
      <point x="771.32" y="-147.4"/>
      <point x="750.88" y="-147.4" type="curve" smooth="yes" name="n32"/>
      <point x="726" y="-147.4"/>
      <point x="703.4" y="-157.08"/>
      <point x="687.2" y="-198.52" type="curve" smooth="yes"/>
      <point x="643.72" y="-315.52" type="line"/>
      <point x="703.72" y="-343.96"/>
      <point x="751.16" y="-356.48"/>
      <point x="820.56" y="-356.48" type="curve" smooth="yes" name="n39"/>
      <point x="1079.84" y="-356.48"/>
      <point x="1198.88" y="-185.6"/>
      <point x="1227.04" y="49.68" type="curve"/>
    </contour>
  </outline>
  <guideline angle="82.9991" x="665" y="0"/>
</glyph>
<glyph name="eng" format="2">
  <advance width="1092.6"/>
  <unicode hex="014B"/>
  <guideline x="547.88" y="0.0" angle="82.9991"/>
  <anchor x="598.84" y="1120.0" name="top"/>
  <anchor x="428.84000000000003" y="-421.0" name="bottom"/>
  <outline>
    <contour>
      <point x="656.2" y="93.28" type="line"/>
      <point x="647.08" y="16.08" type="line" smooth="yes"/>
      <point x="633.12" y="-104.84"/>
      <point x="592.52" y="-153.6"/>
      <point x="510.4" y="-153.6" type="curve" smooth="yes"/>
      <point x="473.92" y="-153.6"/>
      <point x="461.8" y="-148.44"/>
      <point x="441.48" y="-148.44" type="curve" smooth="yes"/>
      <point x="395.36" y="-148.44"/>
      <point x="385.96" y="-165.16"/>
      <point x="378.56" y="-207.48" type="curve"/>
      <point x="355.32" y="-339.44" type="line"/>
      <point x="414.44" y="-355.56"/>
      <point x="444.4" y="-359.28"/>
      <point x="513.68" y="-359.28" type="curve" smooth="yes"/>
      <point x="777.48" y="-359.28"/>
      <point x="896.88" y="-191.92000000000002"/>
      <point x="926.92" y="47.75999999999999" type="curve" smooth="yes"/>
      <point x="936.04" y="121.44" type="line"/>
    </contour>
    <contour>
      <point x="308.68" y="0.0" type="line"/>
      <point x="390.76" y="742.72" type="line"/>
      <point x="383.72" y="759.04" type="line"/>
      <point x="389.0" y="943.6" type="line"/>
      <point x="389.12" y="1005.92"/>
      <point x="355.32" y="1033.28"/>
      <point x="297.8" y="1033.28" type="curve" smooth="yes"/>
      <point x="156.52" y="1033.28" type="line"/>
      <point x="33.239999999999995" y="0.0" type="line"/>
    </contour>
    <contour>
      <point x="936.04" y="121.44" type="line"/>
      <point x="997.72" y="656.16" type="line"/>
      <point x="722.28" y="656.16" type="line"/>
      <point x="656.2" y="93.28" type="line"/>
    </contour>
    <contour>
      <point x="997.72" y="656.16" type="line"/>
      <point x="1029.24" y="907.52"/>
      <point x="916.44" y="1048.56"/>
      <point x="744.6800000000001" y="1048.56" type="curve" smooth="yes"/>
      <point x="557.4" y="1048.56"/>
      <point x="377.72" y="907.04"/>
      <point x="266.92" y="606.16" type="curve"/>
      <point x="357.15999999999997" y="473.04" type="line"/>
      <point x="400.76" y="681.36"/>
      <point x="531.96" y="820.88"/>
      <point x="638.84" y="820.88" type="curve" smooth="yes"/>
      <point x="710.36" y="820.88"/>
      <point x="737.72" y="777.36"/>
      <point x="722.28" y="656.16" type="curve"/>
    </contour>
  </outline>
</glyph>
<glyph name="OE" format="2">
  <advance width="1998.32"/>
  <unicode hex="0152"/>
  <guideline x="983.68" y="0.0" angle="82.9991"/>
  <anchor x="1095.96" y="1521.52" name="Top"/>
  <anchor x="1095.96" y="1521.52" name="top"/>
  <anchor x="1036.12" y="-70.0" name="bottom"/>
  <outline>
    <contour>
      <point x="1308.68" y="833.28" type="curve" smooth="yes"/>
      <point x="1308.68" y="1191.04"/>
      <point x="1125.88" y="1468.8"/>
      <point x="793.88" y="1468.8" type="curve" smooth="yes"/>
      <point x="381.8" y="1468.8"/>
      <point x="75.64" y="1100.32"/>
      <point x="75.64" y="620.0" type="curve" smooth="yes"/>
      <point x="75.64" y="260.0"/>
      <point x="278.28" y="-15.52"/>
      <point x="612.84" y="-15.52" type="curve" smooth="yes"/>
      <point x="1023.32" y="-15.52"/>
      <point x="1308.68" y="352.48"/>
    </contour>
    <contour>
      <point x="1463.56" y="1452.8" type="line"/>
      <point x="1207.24" y="1452.8" type="line"/>
      <point x="1028.2" y="0.0" type="line"/>
      <point x="1286.28" y="0.0" type="line"/>
    </contour>
    <contour>
      <point x="1360.28" y="841.6800000000001" type="line"/>
      <point x="1333.64" y="617.28" type="line"/>
      <point x="1797.72" y="617.28" type="line"/>
      <point x="1824.36" y="841.6800000000001" type="line"/>
    </contour>
    <contour>
      <point x="1435.48" y="1452.8" type="line"/>
      <point x="1406.84" y="1219.6" type="line"/>
      <point x="1998.76" y="1219.6" type="line"/>
      <point x="2027.16" y="1452.8" type="line"/>
    </contour>
    <contour>
      <point x="1286.6" y="233.2" type="line"/>
      <point x="1256.44" y="0.0" type="line"/>
      <point x="1848.12" y="0.0" type="line"/>
      <point x="1876.76" y="233.2" type="line"/>
    </contour>
    <contour>
      <point x="1089.8" y="824.0" type="curve" smooth="yes"/>
      <point x="1089.8" y="465.84000000000003"/>
      <point x="926.12" y="217.44"/>
      <point x="669.88" y="217.44" type="curve" smooth="yes"/>
      <point x="476.03999999999996" y="217.44"/>
      <point x="372.44" y="384.4"/>
      <point x="372.44" y="627.28" type="curve" smooth="yes"/>
      <point x="372.44" y="985.2"/>
      <point x="536.84" y="1235.84"/>
      <point x="795.88" y="1235.84" type="curve" smooth="yes"/>
      <point x="986.68" y="1235.84"/>
      <point x="1089.8" y="1066.64"/>
    </contour>
  </outline>
</glyph>
